G04 #@! TF.FileFunction,Copper,L1,Top,Signal*
%FSLAX46Y46*%
G04 Gerber Fmt 4.6, Leading zero omitted, Abs format (unit mm)*
G04 Created by KiCad (PCBNEW 4.0.1-3.201512221401+6198~38~ubuntu15.10.1-stable) date Thu 31 Mar 2016 02:38:09 PM EEST*
%MOMM*%
G01*
G04 APERTURE LIST*
%ADD10C,0.100000*%
%ADD11C,1.400000*%
%ADD12C,5.100000*%
%ADD13R,0.550000X0.500000*%
%ADD14R,1.016000X1.016000*%
%ADD15R,0.600000X2.500000*%
%ADD16R,1.600200X1.168400*%
%ADD17R,1.524000X1.270000*%
%ADD18R,1.778000X1.524000*%
%ADD19C,1.000000*%
%ADD20R,1.750000X1.750000*%
%ADD21C,1.800000*%
%ADD22C,1.410000*%
%ADD23C,3.500000*%
%ADD24C,0.500000*%
%ADD25C,0.600000*%
%ADD26C,0.508000*%
%ADD27C,1.016000*%
%ADD28C,1.524000*%
%ADD29C,0.203200*%
%ADD30C,2.540000*%
%ADD31C,0.635000*%
G04 APERTURE END LIST*
D10*
D11*
X143171000Y-84350000D03*
X145457000Y-84350000D03*
X147743000Y-84350000D03*
X150029000Y-84350000D03*
X152315000Y-84350000D03*
X142028000Y-81810000D03*
X144314000Y-81810000D03*
X146600000Y-81810000D03*
X148886000Y-81810000D03*
X151172000Y-81810000D03*
X143171000Y-79270000D03*
X145457000Y-79270000D03*
X147743000Y-79270000D03*
X150029000Y-79270000D03*
X152315000Y-79270000D03*
D12*
X159997000Y-81810000D03*
X135003000Y-81810000D03*
D13*
X156591000Y-112522000D03*
X156591000Y-111506000D03*
D14*
X158750000Y-111125000D03*
X158750000Y-112903000D03*
D13*
X161925000Y-111506000D03*
X161925000Y-112522000D03*
X160909000Y-112522000D03*
X160909000Y-111506000D03*
X154305000Y-112522000D03*
X154305000Y-111506000D03*
X155575000Y-112522000D03*
X155575000Y-111506000D03*
X160020000Y-111506000D03*
X160020000Y-112522000D03*
X137287000Y-104267000D03*
X137287000Y-105283000D03*
X142875000Y-105283000D03*
X142875000Y-104267000D03*
X146812000Y-104267000D03*
X146812000Y-105283000D03*
D15*
X154250000Y-118000000D03*
X155250000Y-118000000D03*
X156250000Y-118000000D03*
X157250000Y-118000000D03*
X158250000Y-118000000D03*
X159250000Y-118000000D03*
X160250000Y-118000000D03*
X161250000Y-118000000D03*
D16*
X161290000Y-108966000D03*
X161290000Y-108966000D03*
X161290000Y-107442000D03*
D14*
X139000000Y-89889000D03*
X139000000Y-88111000D03*
X142000000Y-89889000D03*
X142000000Y-88111000D03*
X145500000Y-89889000D03*
X145500000Y-88111000D03*
X147000000Y-89889000D03*
X147000000Y-88111000D03*
X150500000Y-89889000D03*
X150500000Y-88111000D03*
D13*
X144653000Y-104267000D03*
X144653000Y-105283000D03*
X139573000Y-104267000D03*
X139573000Y-105283000D03*
D17*
X155575000Y-107188000D03*
X155575000Y-109220000D03*
D18*
X152527000Y-113411000D03*
X152527000Y-110617000D03*
D17*
X158242000Y-109220000D03*
X158242000Y-107188000D03*
D14*
X140500000Y-89889000D03*
X140500000Y-88111000D03*
D13*
X141351000Y-105283000D03*
X141351000Y-104267000D03*
D14*
X144000000Y-89889000D03*
X144000000Y-88111000D03*
D13*
X140462000Y-104267000D03*
X140462000Y-105283000D03*
D14*
X149000000Y-89889000D03*
X149000000Y-88111000D03*
D13*
X143764000Y-104267000D03*
X143764000Y-105283000D03*
D14*
X152000000Y-89889000D03*
X152000000Y-88111000D03*
D19*
X128270000Y-118110000D03*
X128270000Y-71755000D03*
X167005000Y-71755000D03*
D20*
X130810000Y-74676000D03*
D21*
X128270000Y-74676000D03*
X130810000Y-77216000D03*
X128270000Y-77216000D03*
X130810000Y-79756000D03*
X128270000Y-79756000D03*
X130810000Y-82296000D03*
X128270000Y-82296000D03*
X130810000Y-84836000D03*
X128270000Y-84836000D03*
X128270000Y-87376000D03*
X130810000Y-87376000D03*
X128270000Y-89916000D03*
X130810000Y-89916000D03*
X128270000Y-92456000D03*
X130810000Y-92456000D03*
X128270000Y-94996000D03*
X130810000Y-94996000D03*
X128270000Y-97536000D03*
X130810000Y-97536000D03*
X128270000Y-105156000D03*
X130810000Y-105156000D03*
X128270000Y-115316000D03*
X130810000Y-112776000D03*
X128270000Y-112776000D03*
X130810000Y-115316000D03*
X130810000Y-110236000D03*
X128270000Y-107696000D03*
X128270000Y-110236000D03*
X130810000Y-107696000D03*
X128270000Y-100076000D03*
X128270000Y-102616000D03*
X130810000Y-102616000D03*
X130810000Y-100076000D03*
D20*
X164465000Y-74676000D03*
D21*
X167005000Y-74676000D03*
X164465000Y-77216000D03*
X167005000Y-77216000D03*
X164465000Y-79756000D03*
X167005000Y-79756000D03*
X164465000Y-82296000D03*
X167005000Y-82296000D03*
X164465000Y-84836000D03*
X167005000Y-84836000D03*
X167005000Y-87376000D03*
X164465000Y-87376000D03*
X167005000Y-89916000D03*
X164465000Y-89916000D03*
X167005000Y-92456000D03*
X164465000Y-92456000D03*
X167005000Y-94996000D03*
X164465000Y-94996000D03*
X167005000Y-97536000D03*
X164465000Y-97536000D03*
X167005000Y-105156000D03*
X164465000Y-105156000D03*
X167005000Y-115316000D03*
X164465000Y-112776000D03*
X167005000Y-112776000D03*
X164465000Y-115316000D03*
X164465000Y-110236000D03*
X167005000Y-107696000D03*
X167005000Y-110236000D03*
X164465000Y-107696000D03*
X167005000Y-100076000D03*
X167005000Y-102616000D03*
X164465000Y-102616000D03*
X164465000Y-100076000D03*
D22*
X141770000Y-111730000D03*
X139230000Y-111730000D03*
X143760000Y-111730000D03*
X137240000Y-111730000D03*
X143760000Y-109190000D03*
X137240000Y-109190000D03*
X139230000Y-109190000D03*
X141770000Y-109190000D03*
D23*
X134200000Y-114500000D03*
X140500000Y-115300000D03*
X146800000Y-114500000D03*
D24*
X138049000Y-86855023D03*
X160782000Y-86855023D03*
X137287000Y-101854000D03*
X160782000Y-101854000D03*
X160782000Y-88646000D03*
X160782000Y-90624809D03*
X160782000Y-91734429D03*
X160782000Y-93091000D03*
X160782000Y-94361000D03*
X160782000Y-95550810D03*
X160782000Y-96901000D03*
X160782000Y-98090810D03*
X160782000Y-99441000D03*
X137287000Y-88646000D03*
X137287000Y-90624809D03*
X137287000Y-91821000D03*
X137287000Y-93091000D03*
X137287000Y-94361000D03*
X137287000Y-95631000D03*
X137287000Y-96901000D03*
X137287000Y-99441000D03*
X137287000Y-98171000D03*
D19*
X133295106Y-119126000D03*
X135890000Y-119126000D03*
X138430000Y-119126000D03*
X140970000Y-119126000D03*
X143510000Y-119126000D03*
X146050000Y-119126000D03*
X148590000Y-119126000D03*
X125984000Y-119126000D03*
X130683000Y-119126000D03*
X151003000Y-119126000D03*
X152781000Y-119126000D03*
X162052000Y-119126000D03*
X163957000Y-119126000D03*
X165735000Y-119126000D03*
X167640000Y-119126000D03*
X169164000Y-79756000D03*
X169164000Y-77216000D03*
X169164000Y-72898000D03*
X169164000Y-74673470D03*
X169105430Y-70993000D03*
X164973000Y-71120000D03*
X162560000Y-71120000D03*
X160020000Y-71120000D03*
X156845000Y-71120000D03*
X154305000Y-71120000D03*
X151765000Y-71120000D03*
X149225000Y-71120000D03*
X146685000Y-71120000D03*
X144145000Y-71120000D03*
X140970000Y-71120000D03*
X138430000Y-71120000D03*
X135890000Y-71120000D03*
X133350000Y-71120000D03*
X130810000Y-71120000D03*
X125984000Y-72898000D03*
X125984000Y-70993000D03*
X125984000Y-74676000D03*
X125984000Y-77216000D03*
X125984000Y-79883000D03*
D24*
X146284264Y-104267000D03*
X147447000Y-104267000D03*
X136652000Y-104267000D03*
X138811000Y-105029000D03*
X138049000Y-104267000D03*
X145268264Y-105283000D03*
X145288000Y-105791000D03*
X144653000Y-105791000D03*
X161798000Y-106553000D03*
X160782000Y-106553000D03*
X161290000Y-106553000D03*
X160020000Y-110363000D03*
X160020000Y-110871000D03*
X159512000Y-111379000D03*
X159512000Y-110363000D03*
X159512000Y-110871000D03*
X159004000Y-110363000D03*
X158496000Y-110363000D03*
X154305000Y-110490000D03*
X154305000Y-110998000D03*
D19*
X169164000Y-117856000D03*
X125984000Y-117221000D03*
X169164000Y-115316000D03*
X169164000Y-112776000D03*
X169164000Y-110236000D03*
X169164000Y-107696000D03*
X169164000Y-105156000D03*
X169164000Y-102616000D03*
X169164000Y-100076000D03*
X169164000Y-97536000D03*
X169164000Y-94996000D03*
X169164000Y-92456000D03*
X169164000Y-89916000D03*
X169164000Y-87376000D03*
X169164000Y-84836000D03*
X169164000Y-82296000D03*
X125984000Y-115316000D03*
X125984000Y-112776000D03*
X125984000Y-110236000D03*
X125984000Y-107696000D03*
X125984000Y-105156000D03*
X125984000Y-102616000D03*
X125984000Y-100076000D03*
X125984000Y-97409000D03*
X125984000Y-94996000D03*
X125984000Y-92456000D03*
X125984000Y-89916000D03*
X125984000Y-87376000D03*
X125984000Y-84836000D03*
X125984000Y-82296000D03*
D25*
X161798000Y-116141500D03*
D24*
X142875000Y-105791000D03*
X142113000Y-105791000D03*
X136282310Y-105802310D03*
X136779000Y-105791000D03*
X137287000Y-105791000D03*
X141351000Y-105791000D03*
X156845000Y-109982000D03*
X156845000Y-109474000D03*
D19*
X156210000Y-75184000D03*
D24*
X160898040Y-110474090D03*
X160903047Y-110984208D03*
X152527000Y-109601000D03*
X151892000Y-109601000D03*
X153162000Y-109601000D03*
X159674582Y-87519420D03*
X156937526Y-89409986D03*
X150922812Y-107478222D03*
X151981645Y-106275225D03*
X152612774Y-103658216D03*
X153340359Y-102442180D03*
X154046260Y-96267714D03*
X149224565Y-117348532D03*
X149883495Y-117923780D03*
X155572857Y-106008813D03*
X153648833Y-105537000D03*
X150494422Y-116760160D03*
X149402000Y-106718117D03*
X149599700Y-105549682D03*
X153599251Y-100671113D03*
X154682479Y-98756857D03*
X139419762Y-91179619D03*
X139573000Y-93726000D03*
X160909000Y-113792000D03*
X157861000Y-113792000D03*
D26*
X160782000Y-86614000D02*
X160782000Y-86855023D01*
X138049000Y-86741000D02*
X138049000Y-86855023D01*
X137287000Y-101854000D02*
X137287000Y-99441000D01*
X137287000Y-104267000D02*
X137287000Y-101854000D01*
X160782000Y-101854000D02*
X160782000Y-99441000D01*
X160782000Y-106553000D02*
X160782000Y-101854000D01*
X160782000Y-86614000D02*
X160782000Y-82595000D01*
X160782000Y-88646000D02*
X160782000Y-86614000D01*
X160782000Y-90678000D02*
X160782000Y-88646000D01*
X160782000Y-91694000D02*
X160782000Y-90678000D01*
X160782000Y-90678000D02*
X160782000Y-90624809D01*
X160782000Y-93091000D02*
X160782000Y-91694000D01*
X160782000Y-91694000D02*
X160782000Y-91734429D01*
X160782000Y-94361000D02*
X160782000Y-93091000D01*
X160782000Y-95504000D02*
X160782000Y-94361000D01*
X160782000Y-96901000D02*
X160782000Y-95504000D01*
X160782000Y-95504000D02*
X160782000Y-95550810D01*
X160782000Y-98044000D02*
X160782000Y-96901000D01*
X160782000Y-98044000D02*
X160782000Y-98090810D01*
X160782000Y-99441000D02*
X160782000Y-98044000D01*
X160782000Y-82595000D02*
X159997000Y-81810000D01*
X138049000Y-86741000D02*
X140814089Y-83975911D01*
X137287000Y-87503000D02*
X138049000Y-86741000D01*
X137287000Y-88646000D02*
X137287000Y-87503000D01*
X137287000Y-90678000D02*
X137287000Y-88646000D01*
X137287000Y-91821000D02*
X137287000Y-90678000D01*
X137287000Y-90678000D02*
X137287000Y-90624809D01*
X137287000Y-93091000D02*
X137287000Y-91821000D01*
X137287000Y-94361000D02*
X137287000Y-93091000D01*
X137287000Y-95631000D02*
X137287000Y-94361000D01*
X137287000Y-96901000D02*
X137287000Y-95631000D01*
X137287000Y-98171000D02*
X137287000Y-96901000D01*
X137287000Y-99441000D02*
X137287000Y-98171000D01*
X140814089Y-83975911D02*
X140814089Y-83023911D01*
X140814089Y-83023911D02*
X142028000Y-81810000D01*
D27*
X125984000Y-77216000D02*
X125984000Y-79883000D01*
X125984000Y-75438000D02*
X125984000Y-77216000D01*
X125984000Y-79883000D02*
X125984000Y-84836000D01*
D26*
X160020000Y-81787000D02*
X159997000Y-81810000D01*
X146050000Y-104501264D02*
X146284264Y-104267000D01*
X145268264Y-105283000D02*
X146050000Y-104501264D01*
X146812000Y-104267000D02*
X147447000Y-104267000D01*
X137287000Y-104267000D02*
X136652000Y-104267000D01*
X138811000Y-105029000D02*
X139065000Y-105283000D01*
X138049000Y-104267000D02*
X138811000Y-105029000D01*
X145288000Y-105791000D02*
X145288000Y-105302736D01*
X145288000Y-105302736D02*
X145268264Y-105283000D01*
X144653000Y-105283000D02*
X145268264Y-105283000D01*
X146284264Y-104267000D02*
X146812000Y-104267000D01*
X144653000Y-105791000D02*
X145288000Y-105791000D01*
X144653000Y-107188000D02*
X144653000Y-105791000D01*
X144653000Y-105791000D02*
X144653000Y-105283000D01*
X145288000Y-107823000D02*
X144653000Y-107188000D01*
X145288000Y-110202000D02*
X145288000Y-107823000D01*
X143760000Y-111730000D02*
X145288000Y-110202000D01*
D28*
X151172000Y-81810000D02*
X152315000Y-82953000D01*
X152315000Y-82953000D02*
X152315000Y-84350000D01*
X148886000Y-81810000D02*
X151172000Y-81810000D01*
X146600000Y-81810000D02*
X148886000Y-81810000D01*
X144314000Y-81810000D02*
X146600000Y-81810000D01*
X142028000Y-81810000D02*
X144314000Y-81810000D01*
D26*
X161798000Y-106553000D02*
X160782000Y-106553000D01*
X161798000Y-106934000D02*
X161798000Y-106553000D01*
X161290000Y-107442000D02*
X161798000Y-106934000D01*
X160782000Y-106934000D02*
X160782000Y-106553000D01*
X161290000Y-107442000D02*
X160782000Y-106934000D01*
X161290000Y-107442000D02*
X161290000Y-106553000D01*
X160020000Y-110363000D02*
X159512000Y-110363000D01*
X160020000Y-110871000D02*
X160020000Y-110363000D01*
X159512000Y-111379000D02*
X159893000Y-111379000D01*
X159893000Y-111379000D02*
X160020000Y-111506000D01*
X160020000Y-110871000D02*
X159512000Y-110871000D01*
X160020000Y-111506000D02*
X160020000Y-110871000D01*
X159512000Y-111379000D02*
X159512000Y-110871000D01*
X159004000Y-111379000D02*
X159512000Y-111379000D01*
X158750000Y-111125000D02*
X159004000Y-111379000D01*
X159512000Y-110363000D02*
X159004000Y-110363000D01*
X159512000Y-110871000D02*
X159512000Y-110363000D01*
X159004000Y-110871000D02*
X159512000Y-110871000D01*
X158750000Y-111125000D02*
X159004000Y-110871000D01*
X158750000Y-111125000D02*
X159004000Y-111125000D01*
X159004000Y-111125000D02*
X159004000Y-110363000D01*
X159004000Y-110363000D02*
X158496000Y-110363000D01*
X158750000Y-111125000D02*
X158504753Y-111125000D01*
X158504753Y-111125000D02*
X158496000Y-111116247D01*
X158496000Y-111116247D02*
X158496000Y-110363000D01*
X154305000Y-110998000D02*
X154305000Y-110490000D01*
X154305000Y-111506000D02*
X154305000Y-110998000D01*
X167005000Y-74676000D02*
X167005000Y-74549000D01*
X125984000Y-92456000D02*
X125857000Y-92583000D01*
D27*
X125984000Y-84836000D02*
X125984000Y-89916000D01*
X125984000Y-89916000D02*
X125984000Y-94996000D01*
X125984000Y-94996000D02*
X125984000Y-100076000D01*
X125984000Y-100076000D02*
X125984000Y-105156000D01*
X125984000Y-105156000D02*
X125984000Y-110236000D01*
X125984000Y-110236000D02*
X125984000Y-115316000D01*
X125984000Y-115316000D02*
X125984000Y-119126000D01*
X167005000Y-74676000D02*
X168402000Y-74676000D01*
X168402000Y-74676000D02*
X169164000Y-75438000D01*
X169164000Y-75438000D02*
X169164000Y-84836000D01*
X169164000Y-84836000D02*
X169164000Y-89916000D01*
X169164000Y-89916000D02*
X169164000Y-94996000D01*
X169164000Y-94996000D02*
X169164000Y-100076000D01*
X169164000Y-100076000D02*
X169164000Y-105156000D01*
X169164000Y-105156000D02*
X169164000Y-110236000D01*
X169164000Y-110236000D02*
X169164000Y-115316000D01*
X169164000Y-115316000D02*
X169164000Y-117856000D01*
X169164000Y-117856000D02*
X169164000Y-119126000D01*
X128270000Y-74676000D02*
X126746000Y-74676000D01*
X126746000Y-74676000D02*
X125984000Y-75438000D01*
D28*
X128270000Y-74676000D02*
X128270000Y-77216000D01*
X167005000Y-74676000D02*
X167005000Y-77216000D01*
D26*
X137287000Y-104267000D02*
X138049000Y-104267000D01*
X139065000Y-105283000D02*
X139573000Y-105283000D01*
X161250000Y-116689500D02*
X161798000Y-116141500D01*
X161250000Y-118000000D02*
X161250000Y-116689500D01*
X141351000Y-105791000D02*
X142875000Y-105791000D01*
D27*
X135509000Y-105283000D02*
X135509000Y-87376000D01*
X135509000Y-87376000D02*
X139305233Y-83579767D01*
X139305233Y-83579767D02*
X139305233Y-79107233D01*
X139305233Y-79107233D02*
X134874000Y-74676000D01*
X134874000Y-74676000D02*
X130810000Y-74676000D01*
D26*
X142875000Y-105283000D02*
X142875000Y-105791000D01*
X142113000Y-105791000D02*
X142113000Y-105314060D01*
X142113000Y-105314060D02*
X142081476Y-105282536D01*
X142081476Y-105282536D02*
X142239536Y-105282536D01*
X142239536Y-105282536D02*
X142240000Y-105283000D01*
X136779000Y-105283000D02*
X136398000Y-105283000D01*
X136398000Y-105283000D02*
X135509000Y-105283000D01*
X136282310Y-105802310D02*
X136282310Y-105398690D01*
X136282310Y-105398690D02*
X136398000Y-105283000D01*
X137287000Y-105283000D02*
X136779000Y-105283000D01*
X136779000Y-105791000D02*
X136779000Y-105283000D01*
D27*
X135509000Y-109999000D02*
X135509000Y-105791000D01*
X135509000Y-105791000D02*
X135509000Y-105283000D01*
D26*
X136282310Y-105802310D02*
X135520310Y-105802310D01*
X135520310Y-105802310D02*
X135509000Y-105791000D01*
X136779000Y-105791000D02*
X136282310Y-105802310D01*
X136282310Y-105802310D02*
X136271000Y-105791000D01*
X137287000Y-105791000D02*
X136779000Y-105791000D01*
X137287000Y-105791000D02*
X137287000Y-105283000D01*
X141351000Y-105283000D02*
X141351000Y-105791000D01*
D27*
X137240000Y-111730000D02*
X135509000Y-109999000D01*
D26*
X141351000Y-105283000D02*
X142240000Y-105283000D01*
X142240000Y-105283000D02*
X142875000Y-105283000D01*
X156845000Y-109474000D02*
X156845000Y-109982000D01*
X156845000Y-110331190D02*
X156845000Y-109982000D01*
X158242000Y-107188000D02*
X157996776Y-106942776D01*
X157996776Y-106942776D02*
X157996776Y-106229719D01*
X155575000Y-111506000D02*
X155575000Y-111029535D01*
X155575000Y-111029535D02*
X155987535Y-110617000D01*
X155987535Y-110617000D02*
X156559190Y-110617000D01*
X156559190Y-110617000D02*
X156845000Y-110331190D01*
X158242000Y-107188000D02*
X158054038Y-107188000D01*
X158054038Y-107188000D02*
X156845000Y-108397038D01*
X156845000Y-108397038D02*
X156845000Y-109120447D01*
X156845000Y-109120447D02*
X156845000Y-109474000D01*
D27*
X158242000Y-106299000D02*
X158848742Y-105692258D01*
X158848742Y-105692258D02*
X158848742Y-88675853D01*
X158848742Y-88675853D02*
X156210000Y-86037111D01*
X156210000Y-86037111D02*
X156210000Y-77470000D01*
X156210000Y-77470000D02*
X156210000Y-75184000D01*
D26*
X158750000Y-106680000D02*
X158750000Y-106299000D01*
X158242000Y-107188000D02*
X158750000Y-106680000D01*
X158242000Y-107188000D02*
X158242000Y-106299000D01*
X160903047Y-111337761D02*
X160903047Y-110984208D01*
X160909000Y-111506000D02*
X160903047Y-111500047D01*
X160903047Y-111500047D02*
X160903047Y-111337761D01*
X152527000Y-110617000D02*
X152019000Y-110109000D01*
X152527000Y-110617000D02*
X152527000Y-109601000D01*
X152527000Y-110617000D02*
X152516983Y-110627017D01*
X152516983Y-110627017D02*
X151889207Y-110627017D01*
X151889207Y-110627017D02*
X151892000Y-110624224D01*
X151892000Y-110624224D02*
X151892000Y-109601000D01*
X152527000Y-110617000D02*
X153162000Y-110617000D01*
X153162000Y-110617000D02*
X153162000Y-109601000D01*
D29*
X159674582Y-87872973D02*
X159674582Y-87519420D01*
X160290510Y-109871510D02*
X159674582Y-109255582D01*
X159674582Y-109255582D02*
X159674582Y-87872973D01*
X161375090Y-109871510D02*
X160290510Y-109871510D01*
X161925000Y-110421420D02*
X161375090Y-109871510D01*
X161925000Y-111506000D02*
X161925000Y-110421420D01*
X153720801Y-106871174D02*
X156937526Y-103654449D01*
X154305000Y-112522000D02*
X154280000Y-112522000D01*
X156937526Y-89763539D02*
X156937526Y-89409986D01*
X154280000Y-112522000D02*
X153720801Y-111962801D01*
X156937526Y-103654449D02*
X156937526Y-89763539D01*
X153720801Y-111962801D02*
X153720801Y-106871174D01*
D26*
X156250000Y-118000000D02*
X156250000Y-115986646D01*
X156250000Y-115986646D02*
X154309354Y-114046000D01*
X154309354Y-114046000D02*
X154305000Y-114046000D01*
X154305000Y-114046000D02*
X154305000Y-112522000D01*
D29*
X145500000Y-89889000D02*
X145499148Y-89889000D01*
X147238051Y-90701801D02*
X151382578Y-94846328D01*
X151382578Y-94846328D02*
X151382578Y-107018456D01*
X145499148Y-89889000D02*
X145499148Y-89952790D01*
X145499148Y-89952790D02*
X146248159Y-90701801D01*
X146248159Y-90701801D02*
X147238051Y-90701801D01*
X151382578Y-107018456D02*
X151172811Y-107228223D01*
X151172811Y-107228223D02*
X150922812Y-107478222D01*
X147000000Y-89889000D02*
X151981645Y-94870645D01*
X151981645Y-94870645D02*
X151981645Y-105921672D01*
X151981645Y-105921672D02*
X151981645Y-106275225D01*
X152612774Y-103304663D02*
X152612774Y-103658216D01*
X152612774Y-94880583D02*
X152612774Y-103304663D01*
X149000000Y-91267809D02*
X152612774Y-94880583D01*
X149000000Y-89889000D02*
X149000000Y-91267809D01*
X150500000Y-89889000D02*
X150500000Y-92193059D01*
X150500000Y-92193059D02*
X153019185Y-94712244D01*
X153019185Y-94712244D02*
X153019185Y-102121006D01*
X153019185Y-102121006D02*
X153090360Y-102192181D01*
X153090360Y-102192181D02*
X153340359Y-102442180D01*
X150728999Y-78570001D02*
X151059486Y-78239514D01*
X151059486Y-78239514D02*
X153550514Y-78239514D01*
X153550514Y-78239514D02*
X154252187Y-78941187D01*
X154252187Y-78941187D02*
X154252187Y-95135776D01*
X154252187Y-95135776D02*
X154046260Y-95341703D01*
X154046260Y-95341703D02*
X154046260Y-96267714D01*
D27*
X150029000Y-79270000D02*
X150728999Y-78570001D01*
D26*
X150029000Y-79270000D02*
X150029000Y-79333000D01*
D29*
X142000000Y-89889000D02*
X142015932Y-89889000D01*
X142828733Y-90701801D02*
X144173409Y-90701801D01*
X142015932Y-89889000D02*
X142828733Y-90701801D01*
X144173409Y-90701801D02*
X144579819Y-91108211D01*
X150569756Y-106334996D02*
X149466822Y-107437930D01*
X149466822Y-107437930D02*
X149466822Y-116348242D01*
X144579819Y-91108211D02*
X145505069Y-91108211D01*
X145505069Y-91108211D02*
X145911479Y-91514621D01*
X145911479Y-91514621D02*
X146901371Y-91514621D01*
X150569756Y-95183006D02*
X150569756Y-106334996D01*
X146901371Y-91514621D02*
X150569756Y-95183006D01*
X149466822Y-116348242D02*
X149224565Y-116590499D01*
X149224565Y-116590499D02*
X149224565Y-117348532D01*
X144000000Y-89889000D02*
X143997214Y-89889000D01*
X143997214Y-89889000D02*
X143997214Y-89950856D01*
X143997214Y-89950856D02*
X144748159Y-90701801D01*
X144748159Y-90701801D02*
X145673409Y-90701801D01*
X145673409Y-90701801D02*
X146079819Y-91108211D01*
X146079819Y-91108211D02*
X147069711Y-91108211D01*
X147069711Y-91108211D02*
X150976167Y-95014667D01*
X150976167Y-95014667D02*
X150976167Y-106503336D01*
X150976167Y-106503336D02*
X149883495Y-107596008D01*
X149883495Y-107596008D02*
X149883495Y-117570227D01*
X149883495Y-117570227D02*
X149883495Y-117923780D01*
X155575000Y-106006670D02*
X155572857Y-106008813D01*
X155575000Y-106054740D02*
X155575000Y-106006670D01*
D26*
X155575000Y-107188000D02*
X155575000Y-106006670D01*
D29*
X151997833Y-107188000D02*
X153648833Y-105537000D01*
X150300955Y-115849778D02*
X150494422Y-116043245D01*
X151997833Y-107188000D02*
X150300955Y-108884878D01*
X150300955Y-108884878D02*
X150300955Y-115849778D01*
X150494422Y-116043245D02*
X150494422Y-116760160D01*
X140500000Y-89889000D02*
X140496312Y-89889000D01*
X140496312Y-89889000D02*
X140496312Y-89949954D01*
X140496312Y-89949954D02*
X141248159Y-90701801D01*
X141248159Y-90701801D02*
X142253983Y-90701801D01*
X142253983Y-90701801D02*
X142660393Y-91108211D01*
X145743139Y-91921031D02*
X146733031Y-91921031D01*
X142660393Y-91108211D02*
X144005069Y-91108211D01*
X144005069Y-91108211D02*
X144411479Y-91514621D01*
X144411479Y-91514621D02*
X145336729Y-91514621D01*
X145336729Y-91514621D02*
X145743139Y-91921031D01*
X146733031Y-91921031D02*
X150163345Y-95351345D01*
X150163345Y-95351345D02*
X150163345Y-105956772D01*
X150163345Y-105956772D02*
X149651999Y-106468118D01*
X149651999Y-106468118D02*
X149402000Y-106718117D01*
X139000000Y-89889000D02*
X138993680Y-89889000D01*
X138993680Y-89889000D02*
X138993680Y-89947322D01*
X138993680Y-89947322D02*
X139748159Y-90701801D01*
X139748159Y-90701801D02*
X140673409Y-90701801D01*
X140673409Y-90701801D02*
X141079819Y-91108211D01*
X142085643Y-91108211D02*
X142492053Y-91514621D01*
X141079819Y-91108211D02*
X142085643Y-91108211D01*
X142492053Y-91514621D02*
X143836729Y-91514621D01*
X143836729Y-91514621D02*
X144243139Y-91921031D01*
X144243139Y-91921031D02*
X145168389Y-91921031D01*
X145574799Y-92327441D02*
X146516121Y-92327441D01*
X145168389Y-91921031D02*
X145574799Y-92327441D01*
X146516121Y-92327441D02*
X149599700Y-95411020D01*
X149599700Y-95411020D02*
X149599700Y-105196129D01*
X149599700Y-105196129D02*
X149599700Y-105549682D01*
X152000000Y-89889000D02*
X152000000Y-93067499D01*
X152000000Y-93067499D02*
X153457152Y-94524651D01*
X153457152Y-94524651D02*
X153457152Y-99590526D01*
X153457152Y-99590526D02*
X153599251Y-99732625D01*
X153599251Y-99732625D02*
X153599251Y-100671113D01*
X154682479Y-98403304D02*
X154682479Y-98756857D01*
X148844000Y-78232000D02*
X149319971Y-77756029D01*
X149319971Y-77756029D02*
X153839376Y-77756029D01*
X153839376Y-77756029D02*
X154682479Y-78599132D01*
X154682479Y-78599132D02*
X154682479Y-98403304D01*
D27*
X147806000Y-79270000D02*
X148844000Y-78232000D01*
D26*
X147743000Y-79270000D02*
X147806000Y-79270000D01*
D29*
X142875000Y-103378000D02*
X142875000Y-94612965D01*
X142875000Y-94612965D02*
X139441654Y-91179619D01*
X139441654Y-91179619D02*
X139419762Y-91179619D01*
D26*
X142875000Y-103378000D02*
X142875000Y-104267000D01*
X144653000Y-104267000D02*
X143764000Y-104267000D01*
X142875000Y-104267000D02*
X143764000Y-104267000D01*
D29*
X139573000Y-93726000D02*
X139574865Y-93727865D01*
X139574865Y-93727865D02*
X139574865Y-96264135D01*
X139574865Y-96264135D02*
X139573000Y-96266000D01*
X139573000Y-96266000D02*
X139573000Y-103378000D01*
D26*
X139573000Y-103378000D02*
X139573000Y-104267000D01*
X140462000Y-104267000D02*
X139573000Y-104267000D01*
X141351000Y-104267000D02*
X140462000Y-104267000D01*
X159250000Y-118000000D02*
X159250000Y-114825290D01*
X159250000Y-114825290D02*
X158750000Y-114325290D01*
X158750000Y-114325290D02*
X158750000Y-114300000D01*
X158750000Y-114300000D02*
X158750000Y-112903000D01*
X158750000Y-112903000D02*
X158750000Y-112535383D01*
X158734707Y-112520090D02*
X158419579Y-112520090D01*
X158750000Y-112535383D02*
X158734707Y-112520090D01*
X157784799Y-109677201D02*
X158242000Y-109220000D01*
X158419579Y-112520090D02*
X157784799Y-111885310D01*
X157784799Y-111885310D02*
X157784799Y-109677201D01*
X158750000Y-112903000D02*
X158750000Y-112550893D01*
X158750000Y-112550893D02*
X158738404Y-112539297D01*
X158738404Y-112539297D02*
X158755701Y-112522000D01*
X158755701Y-112522000D02*
X160020000Y-112522000D01*
D30*
X140500000Y-115300000D02*
X146000000Y-115300000D01*
X146000000Y-115300000D02*
X146800000Y-114500000D01*
X134200000Y-114500000D02*
X135000000Y-115300000D01*
X135000000Y-115300000D02*
X140500000Y-115300000D01*
D26*
X146812000Y-105283000D02*
X146812000Y-114488000D01*
X146812000Y-114488000D02*
X146800000Y-114500000D01*
D31*
X154250000Y-118000000D02*
X154250000Y-115394502D01*
X154250000Y-115394502D02*
X152527000Y-113671502D01*
X152527000Y-113671502D02*
X152527000Y-113411000D01*
D26*
X158250000Y-118000000D02*
X158250000Y-115578000D01*
X158250000Y-115578000D02*
X156598620Y-113926620D01*
X156598620Y-113926620D02*
X156598620Y-112529620D01*
X156598620Y-112529620D02*
X156591000Y-112522000D01*
X161925000Y-112522000D02*
X162433000Y-112522000D01*
X162433000Y-112522000D02*
X162659059Y-112295941D01*
X162659059Y-112295941D02*
X162659059Y-110208059D01*
X162659059Y-110208059D02*
X161412698Y-108961698D01*
X161294302Y-108961698D02*
X161290000Y-108966000D01*
X161412698Y-108961698D02*
X161294302Y-108961698D01*
X160250000Y-118000000D02*
X160250000Y-114463419D01*
X160250000Y-114463419D02*
X160909000Y-113804419D01*
X160909000Y-113804419D02*
X160909000Y-113792000D01*
D29*
X156591000Y-111506000D02*
X156718000Y-111506000D01*
X156718000Y-111506000D02*
X157214539Y-112002539D01*
X157214539Y-112002539D02*
X157214539Y-113145539D01*
X157214539Y-113145539D02*
X157861000Y-113792000D01*
D26*
X160909000Y-112522000D02*
X160909000Y-113792000D01*
X161925000Y-112522000D02*
X160909000Y-112522000D01*
X140462000Y-105283000D02*
X140462000Y-110422000D01*
X140462000Y-110422000D02*
X141770000Y-111730000D01*
X143764000Y-105283000D02*
X143764000Y-109186000D01*
X143764000Y-109186000D02*
X143760000Y-109190000D01*
D27*
X143171000Y-84350000D02*
X141987270Y-85533730D01*
X141987270Y-85533730D02*
X141987270Y-88098270D01*
D26*
X141987270Y-88098270D02*
X142000000Y-88111000D01*
D27*
X140500000Y-88111000D02*
X142000000Y-88111000D01*
X139000000Y-88111000D02*
X140500000Y-88111000D01*
D29*
X155575000Y-109220000D02*
X154940000Y-109855000D01*
X154940000Y-109855000D02*
X154940000Y-111944642D01*
X154940000Y-111944642D02*
X155517358Y-112522000D01*
X155517358Y-112522000D02*
X155575000Y-112522000D01*
X155575000Y-112522000D02*
X155448000Y-112522000D01*
D26*
X157250000Y-118000000D02*
X157250000Y-115848000D01*
X155575000Y-114173000D02*
X155575000Y-113157000D01*
X157250000Y-115848000D02*
X155575000Y-114173000D01*
X155575000Y-113157000D02*
X155575000Y-112522000D01*
X145500000Y-88111000D02*
X145457000Y-88068000D01*
D27*
X145457000Y-88068000D02*
X145457000Y-84350000D01*
X145500000Y-88111000D02*
X147000000Y-88111000D01*
X144000000Y-88111000D02*
X145500000Y-88111000D01*
D26*
X149000000Y-88111000D02*
X149005480Y-88105520D01*
D27*
X149005480Y-88105520D02*
X149005480Y-85612480D01*
X149005480Y-85612480D02*
X147743000Y-84350000D01*
X150500000Y-88111000D02*
X149000000Y-88111000D01*
X152000000Y-88111000D02*
X150500000Y-88111000D01*
D29*
G36*
X126899465Y-70837507D02*
X126652681Y-71431828D01*
X126652119Y-72075349D01*
X126897866Y-72670100D01*
X127352507Y-73125535D01*
X127735825Y-73284703D01*
X127660662Y-73430266D01*
X128270000Y-74039604D01*
X128879338Y-73430266D01*
X128804101Y-73284560D01*
X129185100Y-73127134D01*
X129640535Y-72672493D01*
X129887319Y-72078172D01*
X129887881Y-71434651D01*
X129642134Y-70839900D01*
X129285457Y-70482600D01*
X165989992Y-70482600D01*
X165634465Y-70837507D01*
X165387681Y-71431828D01*
X165387119Y-72075349D01*
X165632866Y-72670100D01*
X166087507Y-73125535D01*
X166470825Y-73284703D01*
X166395662Y-73430266D01*
X167005000Y-74039604D01*
X167614338Y-73430266D01*
X167539101Y-73284560D01*
X167920100Y-73127134D01*
X168375535Y-72672493D01*
X168622319Y-72078172D01*
X168622881Y-71434651D01*
X168377134Y-70839900D01*
X168020457Y-70482600D01*
X169517400Y-70482600D01*
X169517400Y-119517400D01*
X162099066Y-119517400D01*
X162159600Y-119371257D01*
X162159600Y-118685800D01*
X162007200Y-118533400D01*
X161400000Y-118533400D01*
X161400000Y-118553400D01*
X161100000Y-118553400D01*
X161100000Y-118533400D01*
X160950000Y-118533400D01*
X160950000Y-117466600D01*
X161100000Y-117466600D01*
X161100000Y-116292800D01*
X161400000Y-116292800D01*
X161400000Y-117466600D01*
X162007200Y-117466600D01*
X162159600Y-117314200D01*
X162159600Y-116628743D01*
X162066794Y-116404689D01*
X161895311Y-116233206D01*
X161671257Y-116140400D01*
X161552400Y-116140400D01*
X161400000Y-116292800D01*
X161100000Y-116292800D01*
X160947600Y-116140400D01*
X160859600Y-116140400D01*
X160859600Y-115564659D01*
X163209182Y-115564659D01*
X163399933Y-116026311D01*
X163752831Y-116379825D01*
X164214150Y-116571382D01*
X164713659Y-116571818D01*
X165175311Y-116381067D01*
X165528825Y-116028169D01*
X165720382Y-115566850D01*
X165720383Y-115564659D01*
X165749182Y-115564659D01*
X165939933Y-116026311D01*
X166292831Y-116379825D01*
X166754150Y-116571382D01*
X167253659Y-116571818D01*
X167715311Y-116381067D01*
X168068825Y-116028169D01*
X168260382Y-115566850D01*
X168260818Y-115067341D01*
X168070067Y-114605689D01*
X167717169Y-114252175D01*
X167255850Y-114060618D01*
X166756341Y-114060182D01*
X166294689Y-114250933D01*
X165941175Y-114603831D01*
X165749618Y-115065150D01*
X165749182Y-115564659D01*
X165720383Y-115564659D01*
X165720818Y-115067341D01*
X165530067Y-114605689D01*
X165177169Y-114252175D01*
X164715850Y-114060618D01*
X164216341Y-114060182D01*
X163754689Y-114250933D01*
X163401175Y-114603831D01*
X163209618Y-115065150D01*
X163209182Y-115564659D01*
X160859600Y-115564659D01*
X160859600Y-114715923D01*
X161340052Y-114235471D01*
X161376313Y-114181203D01*
X161422103Y-114135493D01*
X161447133Y-114075214D01*
X161472197Y-114037703D01*
X161480922Y-113993842D01*
X161514494Y-113912990D01*
X161514571Y-113824674D01*
X161518600Y-113804419D01*
X161518600Y-113131600D01*
X161635353Y-113131600D01*
X161650000Y-113134566D01*
X162200000Y-113134566D01*
X162215763Y-113131600D01*
X162433000Y-113131600D01*
X162666284Y-113085197D01*
X162864052Y-112953052D01*
X163090112Y-112726993D01*
X163209598Y-112548169D01*
X163209182Y-113024659D01*
X163399933Y-113486311D01*
X163752831Y-113839825D01*
X164214150Y-114031382D01*
X164713659Y-114031818D01*
X165175311Y-113841067D01*
X165528825Y-113488169D01*
X165720382Y-113026850D01*
X165720383Y-113024659D01*
X165749182Y-113024659D01*
X165939933Y-113486311D01*
X166292831Y-113839825D01*
X166754150Y-114031382D01*
X167253659Y-114031818D01*
X167715311Y-113841067D01*
X168068825Y-113488169D01*
X168260382Y-113026850D01*
X168260818Y-112527341D01*
X168070067Y-112065689D01*
X167717169Y-111712175D01*
X167255850Y-111520618D01*
X166756341Y-111520182D01*
X166294689Y-111710933D01*
X165941175Y-112063831D01*
X165749618Y-112525150D01*
X165749182Y-113024659D01*
X165720383Y-113024659D01*
X165720818Y-112527341D01*
X165530067Y-112065689D01*
X165177169Y-111712175D01*
X164715850Y-111520618D01*
X164216341Y-111520182D01*
X163754689Y-111710933D01*
X163401175Y-112063831D01*
X163235433Y-112462982D01*
X163268659Y-112295941D01*
X163268659Y-110628604D01*
X163399933Y-110946311D01*
X163752831Y-111299825D01*
X164214150Y-111491382D01*
X164713659Y-111491818D01*
X165175311Y-111301067D01*
X165528825Y-110948169D01*
X165720382Y-110486850D01*
X165720383Y-110484659D01*
X165749182Y-110484659D01*
X165939933Y-110946311D01*
X166292831Y-111299825D01*
X166754150Y-111491382D01*
X167253659Y-111491818D01*
X167715311Y-111301067D01*
X168068825Y-110948169D01*
X168260382Y-110486850D01*
X168260818Y-109987341D01*
X168070067Y-109525689D01*
X167717169Y-109172175D01*
X167255850Y-108980618D01*
X166756341Y-108980182D01*
X166294689Y-109170933D01*
X165941175Y-109523831D01*
X165749618Y-109985150D01*
X165749182Y-110484659D01*
X165720383Y-110484659D01*
X165720818Y-109987341D01*
X165530067Y-109525689D01*
X165177169Y-109172175D01*
X164715850Y-108980618D01*
X164216341Y-108980182D01*
X163754689Y-109170933D01*
X163401175Y-109523831D01*
X163217119Y-109967086D01*
X163169326Y-109895561D01*
X163090112Y-109777007D01*
X162452666Y-109139562D01*
X162452666Y-108525739D01*
X162606894Y-108371511D01*
X162699700Y-108147457D01*
X162699700Y-107944659D01*
X163209182Y-107944659D01*
X163399933Y-108406311D01*
X163752831Y-108759825D01*
X164214150Y-108951382D01*
X164713659Y-108951818D01*
X165175311Y-108761067D01*
X165528825Y-108408169D01*
X165720382Y-107946850D01*
X165720383Y-107944659D01*
X165749182Y-107944659D01*
X165939933Y-108406311D01*
X166292831Y-108759825D01*
X166754150Y-108951382D01*
X167253659Y-108951818D01*
X167715311Y-108761067D01*
X168068825Y-108408169D01*
X168260382Y-107946850D01*
X168260818Y-107447341D01*
X168070067Y-106985689D01*
X167717169Y-106632175D01*
X167255850Y-106440618D01*
X166756341Y-106440182D01*
X166294689Y-106630933D01*
X165941175Y-106983831D01*
X165749618Y-107445150D01*
X165749182Y-107944659D01*
X165720383Y-107944659D01*
X165720818Y-107447341D01*
X165530067Y-106985689D01*
X165177169Y-106632175D01*
X164715850Y-106440618D01*
X164216341Y-106440182D01*
X163754689Y-106630933D01*
X163401175Y-106983831D01*
X163209618Y-107445150D01*
X163209182Y-107944659D01*
X162699700Y-107944659D01*
X162699700Y-107886500D01*
X162547300Y-107734100D01*
X161690050Y-107734100D01*
X161690050Y-107995400D01*
X160889950Y-107995400D01*
X160889950Y-107734100D01*
X160736600Y-107734100D01*
X160736600Y-107149900D01*
X160889950Y-107149900D01*
X160889950Y-106400600D01*
X161690050Y-106400600D01*
X161690050Y-107149900D01*
X162547300Y-107149900D01*
X162699700Y-106997500D01*
X162699700Y-106736543D01*
X162606894Y-106512489D01*
X162435411Y-106341006D01*
X162211357Y-106248200D01*
X161842450Y-106248200D01*
X161690050Y-106400600D01*
X160889950Y-106400600D01*
X160737550Y-106248200D01*
X160368643Y-106248200D01*
X160144589Y-106341006D01*
X160131782Y-106353813D01*
X160131782Y-105404659D01*
X163209182Y-105404659D01*
X163399933Y-105866311D01*
X163752831Y-106219825D01*
X164214150Y-106411382D01*
X164713659Y-106411818D01*
X165175311Y-106221067D01*
X165528825Y-105868169D01*
X165720382Y-105406850D01*
X165720383Y-105404659D01*
X165749182Y-105404659D01*
X165939933Y-105866311D01*
X166292831Y-106219825D01*
X166754150Y-106411382D01*
X167253659Y-106411818D01*
X167715311Y-106221067D01*
X168068825Y-105868169D01*
X168260382Y-105406850D01*
X168260818Y-104907341D01*
X168070067Y-104445689D01*
X167717169Y-104092175D01*
X167255850Y-103900618D01*
X166756341Y-103900182D01*
X166294689Y-104090933D01*
X165941175Y-104443831D01*
X165749618Y-104905150D01*
X165749182Y-105404659D01*
X165720383Y-105404659D01*
X165720818Y-104907341D01*
X165530067Y-104445689D01*
X165177169Y-104092175D01*
X164715850Y-103900618D01*
X164216341Y-103900182D01*
X163754689Y-104090933D01*
X163401175Y-104443831D01*
X163209618Y-104905150D01*
X163209182Y-105404659D01*
X160131782Y-105404659D01*
X160131782Y-102864659D01*
X163209182Y-102864659D01*
X163399933Y-103326311D01*
X163752831Y-103679825D01*
X164214150Y-103871382D01*
X164713659Y-103871818D01*
X165175311Y-103681067D01*
X165528825Y-103328169D01*
X165720382Y-102866850D01*
X165720383Y-102864659D01*
X165749182Y-102864659D01*
X165939933Y-103326311D01*
X166292831Y-103679825D01*
X166754150Y-103871382D01*
X167253659Y-103871818D01*
X167715311Y-103681067D01*
X168068825Y-103328169D01*
X168260382Y-102866850D01*
X168260818Y-102367341D01*
X168070067Y-101905689D01*
X167717169Y-101552175D01*
X167255850Y-101360618D01*
X166756341Y-101360182D01*
X166294689Y-101550933D01*
X165941175Y-101903831D01*
X165749618Y-102365150D01*
X165749182Y-102864659D01*
X165720383Y-102864659D01*
X165720818Y-102367341D01*
X165530067Y-101905689D01*
X165177169Y-101552175D01*
X164715850Y-101360618D01*
X164216341Y-101360182D01*
X163754689Y-101550933D01*
X163401175Y-101903831D01*
X163209618Y-102365150D01*
X163209182Y-102864659D01*
X160131782Y-102864659D01*
X160131782Y-100324659D01*
X163209182Y-100324659D01*
X163399933Y-100786311D01*
X163752831Y-101139825D01*
X164214150Y-101331382D01*
X164713659Y-101331818D01*
X165175311Y-101141067D01*
X165528825Y-100788169D01*
X165720382Y-100326850D01*
X165720383Y-100324659D01*
X165749182Y-100324659D01*
X165939933Y-100786311D01*
X166292831Y-101139825D01*
X166754150Y-101331382D01*
X167253659Y-101331818D01*
X167715311Y-101141067D01*
X168068825Y-100788169D01*
X168260382Y-100326850D01*
X168260818Y-99827341D01*
X168070067Y-99365689D01*
X167717169Y-99012175D01*
X167255850Y-98820618D01*
X166756341Y-98820182D01*
X166294689Y-99010933D01*
X165941175Y-99363831D01*
X165749618Y-99825150D01*
X165749182Y-100324659D01*
X165720383Y-100324659D01*
X165720818Y-99827341D01*
X165530067Y-99365689D01*
X165177169Y-99012175D01*
X164715850Y-98820618D01*
X164216341Y-98820182D01*
X163754689Y-99010933D01*
X163401175Y-99363831D01*
X163209618Y-99825150D01*
X163209182Y-100324659D01*
X160131782Y-100324659D01*
X160131782Y-97784659D01*
X163209182Y-97784659D01*
X163399933Y-98246311D01*
X163752831Y-98599825D01*
X164214150Y-98791382D01*
X164713659Y-98791818D01*
X165175311Y-98601067D01*
X165528825Y-98248169D01*
X165720382Y-97786850D01*
X165720383Y-97784659D01*
X165749182Y-97784659D01*
X165939933Y-98246311D01*
X166292831Y-98599825D01*
X166754150Y-98791382D01*
X167253659Y-98791818D01*
X167715311Y-98601067D01*
X168068825Y-98248169D01*
X168260382Y-97786850D01*
X168260818Y-97287341D01*
X168070067Y-96825689D01*
X167717169Y-96472175D01*
X167255850Y-96280618D01*
X166756341Y-96280182D01*
X166294689Y-96470933D01*
X165941175Y-96823831D01*
X165749618Y-97285150D01*
X165749182Y-97784659D01*
X165720383Y-97784659D01*
X165720818Y-97287341D01*
X165530067Y-96825689D01*
X165177169Y-96472175D01*
X164715850Y-96280618D01*
X164216341Y-96280182D01*
X163754689Y-96470933D01*
X163401175Y-96823831D01*
X163209618Y-97285150D01*
X163209182Y-97784659D01*
X160131782Y-97784659D01*
X160131782Y-95244659D01*
X163209182Y-95244659D01*
X163399933Y-95706311D01*
X163752831Y-96059825D01*
X164214150Y-96251382D01*
X164713659Y-96251818D01*
X165175311Y-96061067D01*
X165528825Y-95708169D01*
X165720382Y-95246850D01*
X165720383Y-95244659D01*
X165749182Y-95244659D01*
X165939933Y-95706311D01*
X166292831Y-96059825D01*
X166754150Y-96251382D01*
X167253659Y-96251818D01*
X167715311Y-96061067D01*
X168068825Y-95708169D01*
X168260382Y-95246850D01*
X168260818Y-94747341D01*
X168070067Y-94285689D01*
X167717169Y-93932175D01*
X167255850Y-93740618D01*
X166756341Y-93740182D01*
X166294689Y-93930933D01*
X165941175Y-94283831D01*
X165749618Y-94745150D01*
X165749182Y-95244659D01*
X165720383Y-95244659D01*
X165720818Y-94747341D01*
X165530067Y-94285689D01*
X165177169Y-93932175D01*
X164715850Y-93740618D01*
X164216341Y-93740182D01*
X163754689Y-93930933D01*
X163401175Y-94283831D01*
X163209618Y-94745150D01*
X163209182Y-95244659D01*
X160131782Y-95244659D01*
X160131782Y-92704659D01*
X163209182Y-92704659D01*
X163399933Y-93166311D01*
X163752831Y-93519825D01*
X164214150Y-93711382D01*
X164713659Y-93711818D01*
X165175311Y-93521067D01*
X165528825Y-93168169D01*
X165720382Y-92706850D01*
X165720383Y-92704659D01*
X165749182Y-92704659D01*
X165939933Y-93166311D01*
X166292831Y-93519825D01*
X166754150Y-93711382D01*
X167253659Y-93711818D01*
X167715311Y-93521067D01*
X168068825Y-93168169D01*
X168260382Y-92706850D01*
X168260818Y-92207341D01*
X168070067Y-91745689D01*
X167717169Y-91392175D01*
X167255850Y-91200618D01*
X166756341Y-91200182D01*
X166294689Y-91390933D01*
X165941175Y-91743831D01*
X165749618Y-92205150D01*
X165749182Y-92704659D01*
X165720383Y-92704659D01*
X165720818Y-92207341D01*
X165530067Y-91745689D01*
X165177169Y-91392175D01*
X164715850Y-91200618D01*
X164216341Y-91200182D01*
X163754689Y-91390933D01*
X163401175Y-91743831D01*
X163209618Y-92205150D01*
X163209182Y-92704659D01*
X160131782Y-92704659D01*
X160131782Y-90164659D01*
X163209182Y-90164659D01*
X163399933Y-90626311D01*
X163752831Y-90979825D01*
X164214150Y-91171382D01*
X164713659Y-91171818D01*
X165175311Y-90981067D01*
X165528825Y-90628169D01*
X165720382Y-90166850D01*
X165720383Y-90164659D01*
X165749182Y-90164659D01*
X165939933Y-90626311D01*
X166292831Y-90979825D01*
X166754150Y-91171382D01*
X167253659Y-91171818D01*
X167715311Y-90981067D01*
X168068825Y-90628169D01*
X168260382Y-90166850D01*
X168260818Y-89667341D01*
X168070067Y-89205689D01*
X167717169Y-88852175D01*
X167255850Y-88660618D01*
X166756341Y-88660182D01*
X166294689Y-88850933D01*
X165941175Y-89203831D01*
X165749618Y-89665150D01*
X165749182Y-90164659D01*
X165720383Y-90164659D01*
X165720818Y-89667341D01*
X165530067Y-89205689D01*
X165177169Y-88852175D01*
X164715850Y-88660618D01*
X164216341Y-88660182D01*
X163754689Y-88850933D01*
X163401175Y-89203831D01*
X163209618Y-89665150D01*
X163209182Y-90164659D01*
X160131782Y-90164659D01*
X160131782Y-87918718D01*
X160187685Y-87862913D01*
X160280076Y-87640410D01*
X160280089Y-87624659D01*
X163209182Y-87624659D01*
X163399933Y-88086311D01*
X163752831Y-88439825D01*
X164214150Y-88631382D01*
X164713659Y-88631818D01*
X165175311Y-88441067D01*
X165528825Y-88088169D01*
X165720382Y-87626850D01*
X165720383Y-87624659D01*
X165749182Y-87624659D01*
X165939933Y-88086311D01*
X166292831Y-88439825D01*
X166754150Y-88631382D01*
X167253659Y-88631818D01*
X167715311Y-88441067D01*
X168068825Y-88088169D01*
X168260382Y-87626850D01*
X168260818Y-87127341D01*
X168070067Y-86665689D01*
X167717169Y-86312175D01*
X167255850Y-86120618D01*
X166756341Y-86120182D01*
X166294689Y-86310933D01*
X165941175Y-86663831D01*
X165749618Y-87125150D01*
X165749182Y-87624659D01*
X165720383Y-87624659D01*
X165720818Y-87127341D01*
X165530067Y-86665689D01*
X165177169Y-86312175D01*
X164715850Y-86120618D01*
X164216341Y-86120182D01*
X163754689Y-86310933D01*
X163401175Y-86663831D01*
X163209618Y-87125150D01*
X163209182Y-87624659D01*
X160280089Y-87624659D01*
X160280286Y-87399487D01*
X160188284Y-87176824D01*
X160018075Y-87006317D01*
X159795572Y-86913926D01*
X159554649Y-86913716D01*
X159331986Y-87005718D01*
X159161479Y-87175927D01*
X159069088Y-87398430D01*
X159068878Y-87639353D01*
X159093749Y-87699545D01*
X157073600Y-85679397D01*
X157073600Y-85084659D01*
X163209182Y-85084659D01*
X163399933Y-85546311D01*
X163752831Y-85899825D01*
X164214150Y-86091382D01*
X164713659Y-86091818D01*
X165175311Y-85901067D01*
X165528825Y-85548169D01*
X165720382Y-85086850D01*
X165720383Y-85084659D01*
X165749182Y-85084659D01*
X165939933Y-85546311D01*
X166292831Y-85899825D01*
X166754150Y-86091382D01*
X167253659Y-86091818D01*
X167715311Y-85901067D01*
X168068825Y-85548169D01*
X168260382Y-85086850D01*
X168260818Y-84587341D01*
X168070067Y-84125689D01*
X167717169Y-83772175D01*
X167534511Y-83696329D01*
X167614338Y-83541734D01*
X167005000Y-82932396D01*
X166395662Y-83541734D01*
X166475446Y-83696246D01*
X166294689Y-83770933D01*
X165941175Y-84123831D01*
X165749618Y-84585150D01*
X165749182Y-85084659D01*
X165720383Y-85084659D01*
X165720818Y-84587341D01*
X165530067Y-84125689D01*
X165177169Y-83772175D01*
X164715850Y-83580618D01*
X164216341Y-83580182D01*
X163754689Y-83770933D01*
X163401175Y-84123831D01*
X163209618Y-84585150D01*
X163209182Y-85084659D01*
X157073600Y-85084659D01*
X157073600Y-84324325D01*
X158237016Y-84324325D01*
X158561116Y-84693799D01*
X159773998Y-85023772D01*
X161020831Y-84864477D01*
X161432884Y-84693799D01*
X161756984Y-84324325D01*
X159997000Y-82564342D01*
X158237016Y-84324325D01*
X157073600Y-84324325D01*
X157073600Y-83150279D01*
X157113201Y-83245884D01*
X157482675Y-83569984D01*
X159242658Y-81810000D01*
X160751342Y-81810000D01*
X162511325Y-83569984D01*
X162880799Y-83245884D01*
X163071572Y-82544659D01*
X163209182Y-82544659D01*
X163399933Y-83006311D01*
X163752831Y-83359825D01*
X164214150Y-83551382D01*
X164713659Y-83551818D01*
X165175311Y-83361067D01*
X165528825Y-83008169D01*
X165604671Y-82825511D01*
X165759266Y-82905338D01*
X166368604Y-82296000D01*
X167641396Y-82296000D01*
X168250734Y-82905338D01*
X168460315Y-82797118D01*
X168541305Y-82202048D01*
X168460315Y-81794882D01*
X168250734Y-81686662D01*
X167641396Y-82296000D01*
X166368604Y-82296000D01*
X165759266Y-81686662D01*
X165604754Y-81766446D01*
X165530067Y-81585689D01*
X165177169Y-81232175D01*
X164715850Y-81040618D01*
X164216341Y-81040182D01*
X163754689Y-81230933D01*
X163401175Y-81583831D01*
X163209618Y-82045150D01*
X163209182Y-82544659D01*
X163071572Y-82544659D01*
X163210772Y-82033002D01*
X163051477Y-80786169D01*
X162880799Y-80374116D01*
X162511325Y-80050016D01*
X160751342Y-81810000D01*
X159242658Y-81810000D01*
X157482675Y-80050016D01*
X157113201Y-80374116D01*
X157073600Y-80519677D01*
X157073600Y-79295675D01*
X158237016Y-79295675D01*
X159997000Y-81055658D01*
X161047999Y-80004659D01*
X163209182Y-80004659D01*
X163399933Y-80466311D01*
X163752831Y-80819825D01*
X164214150Y-81011382D01*
X164713659Y-81011818D01*
X165175311Y-80821067D01*
X165528825Y-80468169D01*
X165720382Y-80006850D01*
X165720383Y-80004659D01*
X165749182Y-80004659D01*
X165939933Y-80466311D01*
X166292831Y-80819825D01*
X166475489Y-80895671D01*
X166395662Y-81050266D01*
X167005000Y-81659604D01*
X167614338Y-81050266D01*
X167534554Y-80895754D01*
X167715311Y-80821067D01*
X168068825Y-80468169D01*
X168260382Y-80006850D01*
X168260818Y-79507341D01*
X168070067Y-79045689D01*
X167717169Y-78692175D01*
X167534511Y-78616329D01*
X167614338Y-78461734D01*
X167005000Y-77852396D01*
X166395662Y-78461734D01*
X166475446Y-78616246D01*
X166294689Y-78690933D01*
X165941175Y-79043831D01*
X165749618Y-79505150D01*
X165749182Y-80004659D01*
X165720383Y-80004659D01*
X165720818Y-79507341D01*
X165530067Y-79045689D01*
X165177169Y-78692175D01*
X164715850Y-78500618D01*
X164216341Y-78500182D01*
X163754689Y-78690933D01*
X163401175Y-79043831D01*
X163209618Y-79505150D01*
X163209182Y-80004659D01*
X161047999Y-80004659D01*
X161756984Y-79295675D01*
X161432884Y-78926201D01*
X160220002Y-78596228D01*
X158973169Y-78755523D01*
X158561116Y-78926201D01*
X158237016Y-79295675D01*
X157073600Y-79295675D01*
X157073600Y-77464659D01*
X163209182Y-77464659D01*
X163399933Y-77926311D01*
X163752831Y-78279825D01*
X164214150Y-78471382D01*
X164713659Y-78471818D01*
X165175311Y-78281067D01*
X165528825Y-77928169D01*
X165604671Y-77745511D01*
X165759266Y-77825338D01*
X166368604Y-77216000D01*
X167641396Y-77216000D01*
X168250734Y-77825338D01*
X168460315Y-77717118D01*
X168541305Y-77122048D01*
X168460315Y-76714882D01*
X168250734Y-76606662D01*
X167641396Y-77216000D01*
X166368604Y-77216000D01*
X165759266Y-76606662D01*
X165604754Y-76686446D01*
X165530067Y-76505689D01*
X165177169Y-76152175D01*
X164715850Y-75960618D01*
X164216341Y-75960182D01*
X163754689Y-76150933D01*
X163401175Y-76503831D01*
X163209618Y-76965150D01*
X163209182Y-77464659D01*
X157073600Y-77464659D01*
X157073600Y-75921734D01*
X166395662Y-75921734D01*
X166408192Y-75946000D01*
X166395662Y-75970266D01*
X166447478Y-76022082D01*
X166503882Y-76131315D01*
X166565034Y-76139638D01*
X167005000Y-76579604D01*
X167440171Y-76144433D01*
X167506118Y-76131315D01*
X167562522Y-76022082D01*
X167614338Y-75970266D01*
X167601808Y-75946000D01*
X167614338Y-75921734D01*
X167562522Y-75869918D01*
X167506118Y-75760685D01*
X167444966Y-75752362D01*
X167005000Y-75312396D01*
X166569829Y-75747567D01*
X166503882Y-75760685D01*
X166447478Y-75869918D01*
X166395662Y-75921734D01*
X157073600Y-75921734D01*
X157073600Y-75184000D01*
X157065635Y-75143958D01*
X157065748Y-75014557D01*
X157015897Y-74893908D01*
X157007862Y-74853515D01*
X156985181Y-74819570D01*
X156935765Y-74699975D01*
X156843538Y-74607587D01*
X156820657Y-74573343D01*
X156786712Y-74550662D01*
X156695291Y-74459081D01*
X156574729Y-74409019D01*
X156540485Y-74386138D01*
X156500444Y-74378173D01*
X156380936Y-74328549D01*
X156250395Y-74328435D01*
X156210000Y-74320400D01*
X156169958Y-74328365D01*
X156040557Y-74328252D01*
X155919908Y-74378103D01*
X155879515Y-74386138D01*
X155845570Y-74408819D01*
X155725975Y-74458235D01*
X155633587Y-74550462D01*
X155599343Y-74573343D01*
X155576662Y-74607288D01*
X155485081Y-74698709D01*
X155435019Y-74819271D01*
X155412138Y-74853515D01*
X155404173Y-74893556D01*
X155354549Y-75013064D01*
X155354435Y-75143605D01*
X155346400Y-75184000D01*
X155346400Y-86037111D01*
X155400867Y-86310933D01*
X155412138Y-86367596D01*
X155599343Y-86647768D01*
X157985142Y-89033568D01*
X157985142Y-105334543D01*
X157631343Y-105688343D01*
X157444138Y-105968515D01*
X157440706Y-105985769D01*
X157433579Y-105996435D01*
X157391685Y-106207052D01*
X157348223Y-106215230D01*
X157227193Y-106293110D01*
X157145999Y-106411942D01*
X157117434Y-106553000D01*
X157117434Y-107262500D01*
X156699566Y-107680368D01*
X156699566Y-106553000D01*
X156674770Y-106421223D01*
X156596890Y-106300193D01*
X156478058Y-106218999D01*
X156337000Y-106190434D01*
X156184600Y-106190434D01*
X156184600Y-106006670D01*
X156178485Y-105975928D01*
X156178561Y-105888880D01*
X156145026Y-105807720D01*
X156138197Y-105773386D01*
X156118919Y-105744535D01*
X156086559Y-105666217D01*
X156026161Y-105605714D01*
X156006052Y-105575618D01*
X155976220Y-105555685D01*
X155916350Y-105495710D01*
X155837398Y-105462926D01*
X155808284Y-105443473D01*
X155797271Y-105441282D01*
X157260815Y-103977738D01*
X157359924Y-103829412D01*
X157394726Y-103654449D01*
X157394726Y-89809284D01*
X157450629Y-89753479D01*
X157543020Y-89530976D01*
X157543230Y-89290053D01*
X157451228Y-89067390D01*
X157281019Y-88896883D01*
X157058516Y-88804492D01*
X156817593Y-88804282D01*
X156594930Y-88896284D01*
X156424423Y-89066493D01*
X156332032Y-89288996D01*
X156331822Y-89529919D01*
X156423824Y-89752582D01*
X156480326Y-89809183D01*
X156480326Y-103465071D01*
X154230837Y-105714560D01*
X154254327Y-105657990D01*
X154254537Y-105417067D01*
X154162535Y-105194404D01*
X153992326Y-105023897D01*
X153769823Y-104931506D01*
X153528900Y-104931296D01*
X153306237Y-105023298D01*
X153135730Y-105193507D01*
X153043339Y-105416010D01*
X153043269Y-105495985D01*
X152527883Y-106011372D01*
X152495347Y-105932629D01*
X152438845Y-105876028D01*
X152438845Y-104241728D01*
X152491784Y-104263710D01*
X152732707Y-104263920D01*
X152955370Y-104171918D01*
X153125877Y-104001709D01*
X153218268Y-103779206D01*
X153218478Y-103538283D01*
X153126476Y-103315620D01*
X153069974Y-103259019D01*
X153069974Y-102985640D01*
X153219369Y-103047674D01*
X153460292Y-103047884D01*
X153682955Y-102955882D01*
X153853462Y-102785673D01*
X153945853Y-102563170D01*
X153946063Y-102322247D01*
X153854061Y-102099584D01*
X153683852Y-101929077D01*
X153476385Y-101842929D01*
X153476385Y-101275828D01*
X153478261Y-101276607D01*
X153719184Y-101276817D01*
X153941847Y-101184815D01*
X154112354Y-101014606D01*
X154204745Y-100792103D01*
X154204955Y-100551180D01*
X154112953Y-100328517D01*
X154056451Y-100271916D01*
X154056451Y-99732625D01*
X154021649Y-99557662D01*
X153922540Y-99409336D01*
X153914352Y-99401148D01*
X153914352Y-96868674D01*
X153925270Y-96873208D01*
X154166193Y-96873418D01*
X154225279Y-96849004D01*
X154225279Y-98357559D01*
X154169376Y-98413364D01*
X154076985Y-98635867D01*
X154076775Y-98876790D01*
X154168777Y-99099453D01*
X154338986Y-99269960D01*
X154561489Y-99362351D01*
X154802412Y-99362561D01*
X155025075Y-99270559D01*
X155195582Y-99100350D01*
X155287973Y-98877847D01*
X155288183Y-98636924D01*
X155196181Y-98414261D01*
X155139679Y-98357660D01*
X155139679Y-78599132D01*
X155104877Y-78424169D01*
X155005768Y-78275843D01*
X154162665Y-77432740D01*
X154014339Y-77333631D01*
X153839376Y-77298829D01*
X149319971Y-77298829D01*
X149145008Y-77333631D01*
X149035858Y-77406563D01*
X148844000Y-77368400D01*
X148513515Y-77434138D01*
X148233343Y-77621342D01*
X147640375Y-78214311D01*
X147533949Y-78214218D01*
X147145832Y-78374584D01*
X146848628Y-78671270D01*
X146687584Y-79059107D01*
X146687218Y-79479051D01*
X146847584Y-79867168D01*
X147144270Y-80164372D01*
X147532107Y-80325416D01*
X147952051Y-80325782D01*
X148340168Y-80165416D01*
X148637372Y-79868730D01*
X148785631Y-79511684D01*
X148973353Y-79323961D01*
X148973218Y-79479051D01*
X149133584Y-79867168D01*
X149430270Y-80164372D01*
X149818107Y-80325416D01*
X150238051Y-80325782D01*
X150626168Y-80165416D01*
X150923372Y-79868730D01*
X151084416Y-79480893D01*
X151084455Y-79435859D01*
X151259408Y-79260906D01*
X151259218Y-79479051D01*
X151419584Y-79867168D01*
X151716270Y-80164372D01*
X152104107Y-80325416D01*
X152524051Y-80325782D01*
X152912168Y-80165416D01*
X153209372Y-79868730D01*
X153370416Y-79480893D01*
X153370782Y-79060949D01*
X153220284Y-78696714D01*
X153361136Y-78696714D01*
X153794987Y-79130566D01*
X153794987Y-94223131D01*
X153780441Y-94201362D01*
X152457200Y-92878121D01*
X152457200Y-90759566D01*
X152508000Y-90759566D01*
X152639777Y-90734770D01*
X152760807Y-90656890D01*
X152842001Y-90538058D01*
X152870566Y-90397000D01*
X152870566Y-89381000D01*
X152845770Y-89249223D01*
X152767890Y-89128193D01*
X152649058Y-89046999D01*
X152508000Y-89018434D01*
X151492000Y-89018434D01*
X151360223Y-89043230D01*
X151248633Y-89115035D01*
X151149058Y-89046999D01*
X151008000Y-89018434D01*
X149992000Y-89018434D01*
X149860223Y-89043230D01*
X149748633Y-89115035D01*
X149649058Y-89046999D01*
X149508000Y-89018434D01*
X148492000Y-89018434D01*
X148360223Y-89043230D01*
X148239193Y-89121110D01*
X148157999Y-89239942D01*
X148129434Y-89381000D01*
X148129434Y-90371856D01*
X147870566Y-90112988D01*
X147870566Y-89381000D01*
X147845770Y-89249223D01*
X147767890Y-89128193D01*
X147649058Y-89046999D01*
X147508000Y-89018434D01*
X146492000Y-89018434D01*
X146360223Y-89043230D01*
X146248633Y-89115035D01*
X146149058Y-89046999D01*
X146008000Y-89018434D01*
X144992000Y-89018434D01*
X144860223Y-89043230D01*
X144748633Y-89115035D01*
X144649058Y-89046999D01*
X144508000Y-89018434D01*
X143492000Y-89018434D01*
X143360223Y-89043230D01*
X143239193Y-89121110D01*
X143157999Y-89239942D01*
X143129434Y-89381000D01*
X143129434Y-90244601D01*
X143018111Y-90244601D01*
X142870566Y-90097056D01*
X142870566Y-89381000D01*
X142845770Y-89249223D01*
X142767890Y-89128193D01*
X142649058Y-89046999D01*
X142508000Y-89018434D01*
X141492000Y-89018434D01*
X141360223Y-89043230D01*
X141248633Y-89115035D01*
X141149058Y-89046999D01*
X141008000Y-89018434D01*
X139992000Y-89018434D01*
X139860223Y-89043230D01*
X139748633Y-89115035D01*
X139649058Y-89046999D01*
X139508000Y-89018434D01*
X138492000Y-89018434D01*
X138360223Y-89043230D01*
X138239193Y-89121110D01*
X138157999Y-89239942D01*
X138129434Y-89381000D01*
X138129434Y-90397000D01*
X138154230Y-90528777D01*
X138232110Y-90649807D01*
X138350942Y-90731001D01*
X138492000Y-90759566D01*
X138983353Y-90759566D01*
X138906659Y-90836126D01*
X138814268Y-91058629D01*
X138814058Y-91299552D01*
X138906060Y-91522215D01*
X139076269Y-91692722D01*
X139298772Y-91785113D01*
X139400659Y-91785202D01*
X142417800Y-94802344D01*
X142417800Y-102986081D01*
X142311803Y-103144716D01*
X142265400Y-103378000D01*
X142265400Y-103878900D01*
X142237434Y-104017000D01*
X142237434Y-104517000D01*
X142262230Y-104648777D01*
X142278074Y-104673400D01*
X142241869Y-104673400D01*
X142239536Y-104672936D01*
X142081476Y-104672936D01*
X142079143Y-104673400D01*
X141949518Y-104673400D01*
X141960001Y-104658058D01*
X141988566Y-104517000D01*
X141988566Y-104017000D01*
X141963770Y-103885223D01*
X141885890Y-103764193D01*
X141767058Y-103682999D01*
X141626000Y-103654434D01*
X141076000Y-103654434D01*
X141060237Y-103657400D01*
X140751647Y-103657400D01*
X140737000Y-103654434D01*
X140187000Y-103654434D01*
X140182600Y-103655262D01*
X140182600Y-103378000D01*
X140136197Y-103144716D01*
X140030200Y-102986081D01*
X140030200Y-96273511D01*
X140032065Y-96264135D01*
X140032065Y-94123437D01*
X140086103Y-94069493D01*
X140178494Y-93846990D01*
X140178704Y-93606067D01*
X140086702Y-93383404D01*
X139916493Y-93212897D01*
X139693990Y-93120506D01*
X139453067Y-93120296D01*
X139230404Y-93212298D01*
X139059897Y-93382507D01*
X138967506Y-93605010D01*
X138967296Y-93845933D01*
X139059298Y-94068596D01*
X139117665Y-94127065D01*
X139117665Y-96256624D01*
X139115800Y-96266000D01*
X139115800Y-102986081D01*
X139009803Y-103144716D01*
X138963400Y-103378000D01*
X138963400Y-103878900D01*
X138935434Y-104017000D01*
X138935434Y-104517000D01*
X138938041Y-104530854D01*
X138781206Y-104687689D01*
X138688400Y-104911743D01*
X138688400Y-105005600D01*
X138840800Y-105158000D01*
X139435500Y-105158000D01*
X139435500Y-105033000D01*
X139710500Y-105033000D01*
X139710500Y-105158000D01*
X139824434Y-105158000D01*
X139824434Y-105408000D01*
X139710500Y-105408000D01*
X139710500Y-105990200D01*
X139852400Y-106132100D01*
X139852400Y-108312262D01*
X139831566Y-108291392D01*
X139441892Y-108129585D01*
X139019959Y-108129217D01*
X138630003Y-108290343D01*
X138331392Y-108588434D01*
X138234963Y-108820661D01*
X138139657Y-108590003D01*
X137841566Y-108291392D01*
X137451892Y-108129585D01*
X137029959Y-108129217D01*
X136640003Y-108290343D01*
X136372600Y-108557280D01*
X136372600Y-106410012D01*
X136785939Y-106400600D01*
X137287000Y-106400600D01*
X137307024Y-106396617D01*
X137406933Y-106396704D01*
X137500084Y-106358215D01*
X137520284Y-106354197D01*
X137537259Y-106342855D01*
X137629596Y-106304702D01*
X137700930Y-106233492D01*
X137718052Y-106222052D01*
X137729392Y-106205080D01*
X137800103Y-106134493D01*
X137838755Y-106041408D01*
X137850197Y-106024284D01*
X137854180Y-106004261D01*
X137892494Y-105911990D01*
X137892582Y-105811201D01*
X137896600Y-105791000D01*
X137896600Y-105671100D01*
X137919017Y-105560400D01*
X138688400Y-105560400D01*
X138688400Y-105654257D01*
X138781206Y-105878311D01*
X138952689Y-106049794D01*
X139176743Y-106142600D01*
X139283100Y-106142600D01*
X139435500Y-105990200D01*
X139435500Y-105408000D01*
X138840800Y-105408000D01*
X138688400Y-105560400D01*
X137919017Y-105560400D01*
X137924566Y-105533000D01*
X137924566Y-105033000D01*
X137921959Y-105019146D01*
X138078794Y-104862311D01*
X138171600Y-104638257D01*
X138171600Y-104544400D01*
X138019200Y-104392000D01*
X137424500Y-104392000D01*
X137424500Y-104517000D01*
X137149500Y-104517000D01*
X137149500Y-104392000D01*
X136554800Y-104392000D01*
X136402400Y-104544400D01*
X136402400Y-104638257D01*
X136416957Y-104673400D01*
X136372600Y-104673400D01*
X136372600Y-103895743D01*
X136402400Y-103895743D01*
X136402400Y-103989600D01*
X136554800Y-104142000D01*
X137149500Y-104142000D01*
X137149500Y-103559800D01*
X137424500Y-103559800D01*
X137424500Y-104142000D01*
X138019200Y-104142000D01*
X138171600Y-103989600D01*
X138171600Y-103895743D01*
X138078794Y-103671689D01*
X137907311Y-103500206D01*
X137683257Y-103407400D01*
X137576900Y-103407400D01*
X137424500Y-103559800D01*
X137149500Y-103559800D01*
X136997100Y-103407400D01*
X136890743Y-103407400D01*
X136666689Y-103500206D01*
X136495206Y-103671689D01*
X136402400Y-103895743D01*
X136372600Y-103895743D01*
X136372600Y-87733714D01*
X136503314Y-87603000D01*
X138129434Y-87603000D01*
X138129434Y-88619000D01*
X138154230Y-88750777D01*
X138232110Y-88871807D01*
X138350942Y-88953001D01*
X138492000Y-88981566D01*
X139508000Y-88981566D01*
X139545020Y-88974600D01*
X139957601Y-88974600D01*
X139992000Y-88981566D01*
X141008000Y-88981566D01*
X141045020Y-88974600D01*
X141457601Y-88974600D01*
X141492000Y-88981566D01*
X142508000Y-88981566D01*
X142639777Y-88956770D01*
X142760807Y-88878890D01*
X142842001Y-88760058D01*
X142870566Y-88619000D01*
X142870566Y-87603000D01*
X143129434Y-87603000D01*
X143129434Y-88619000D01*
X143154230Y-88750777D01*
X143232110Y-88871807D01*
X143350942Y-88953001D01*
X143492000Y-88981566D01*
X144508000Y-88981566D01*
X144545020Y-88974600D01*
X144957601Y-88974600D01*
X144992000Y-88981566D01*
X146008000Y-88981566D01*
X146045020Y-88974600D01*
X146457601Y-88974600D01*
X146492000Y-88981566D01*
X147508000Y-88981566D01*
X147639777Y-88956770D01*
X147760807Y-88878890D01*
X147842001Y-88760058D01*
X147870566Y-88619000D01*
X147870566Y-87603000D01*
X147845770Y-87471223D01*
X147767890Y-87350193D01*
X147649058Y-87268999D01*
X147508000Y-87240434D01*
X146492000Y-87240434D01*
X146454980Y-87247400D01*
X146320600Y-87247400D01*
X146320600Y-84979448D01*
X146351372Y-84948730D01*
X146512416Y-84560893D01*
X146512417Y-84559051D01*
X146687218Y-84559051D01*
X146847584Y-84947168D01*
X147144270Y-85244372D01*
X147532107Y-85405416D01*
X147577141Y-85405455D01*
X148141880Y-85970195D01*
X148141880Y-87541540D01*
X148129434Y-87603000D01*
X148129434Y-88619000D01*
X148154230Y-88750777D01*
X148232110Y-88871807D01*
X148350942Y-88953001D01*
X148492000Y-88981566D01*
X149508000Y-88981566D01*
X149545020Y-88974600D01*
X149957601Y-88974600D01*
X149992000Y-88981566D01*
X151008000Y-88981566D01*
X151045020Y-88974600D01*
X151457601Y-88974600D01*
X151492000Y-88981566D01*
X152508000Y-88981566D01*
X152639777Y-88956770D01*
X152760807Y-88878890D01*
X152842001Y-88760058D01*
X152870566Y-88619000D01*
X152870566Y-87603000D01*
X152845770Y-87471223D01*
X152767890Y-87350193D01*
X152649058Y-87268999D01*
X152508000Y-87240434D01*
X151492000Y-87240434D01*
X151454980Y-87247400D01*
X151042399Y-87247400D01*
X151008000Y-87240434D01*
X149992000Y-87240434D01*
X149954980Y-87247400D01*
X149869080Y-87247400D01*
X149869080Y-85612480D01*
X149827894Y-85405425D01*
X150238051Y-85405782D01*
X150260660Y-85396440D01*
X151763534Y-85396440D01*
X151840754Y-85598200D01*
X152354519Y-85684672D01*
X152789246Y-85598200D01*
X152866466Y-85396440D01*
X152315000Y-84844975D01*
X151763534Y-85396440D01*
X150260660Y-85396440D01*
X150626168Y-85245416D01*
X150923372Y-84948730D01*
X151037088Y-84674872D01*
X151066800Y-84824246D01*
X151268560Y-84901466D01*
X151820025Y-84350000D01*
X152809975Y-84350000D01*
X153361440Y-84901466D01*
X153563200Y-84824246D01*
X153649672Y-84310481D01*
X153563200Y-83875754D01*
X153361440Y-83798534D01*
X152809975Y-84350000D01*
X151820025Y-84350000D01*
X151268560Y-83798534D01*
X151066800Y-83875754D01*
X151040289Y-84033267D01*
X150924416Y-83752832D01*
X150627730Y-83455628D01*
X150261510Y-83303560D01*
X151763534Y-83303560D01*
X152315000Y-83855025D01*
X152866466Y-83303560D01*
X152789246Y-83101800D01*
X152275481Y-83015328D01*
X151840754Y-83101800D01*
X151763534Y-83303560D01*
X150261510Y-83303560D01*
X150239893Y-83294584D01*
X149819949Y-83294218D01*
X149431832Y-83454584D01*
X149134628Y-83751270D01*
X148973584Y-84139107D01*
X148973392Y-84359078D01*
X148798744Y-84184430D01*
X148798782Y-84140949D01*
X148638416Y-83752832D01*
X148341730Y-83455628D01*
X147953893Y-83294584D01*
X147533949Y-83294218D01*
X147145832Y-83454584D01*
X146848628Y-83751270D01*
X146687584Y-84139107D01*
X146687218Y-84559051D01*
X146512417Y-84559051D01*
X146512782Y-84140949D01*
X146352416Y-83752832D01*
X146055730Y-83455628D01*
X145667893Y-83294584D01*
X145247949Y-83294218D01*
X144859832Y-83454584D01*
X144562628Y-83751270D01*
X144401584Y-84139107D01*
X144401218Y-84559051D01*
X144561584Y-84947168D01*
X144593400Y-84979040D01*
X144593400Y-87247400D01*
X144542399Y-87247400D01*
X144508000Y-87240434D01*
X143492000Y-87240434D01*
X143360223Y-87265230D01*
X143239193Y-87343110D01*
X143157999Y-87461942D01*
X143129434Y-87603000D01*
X142870566Y-87603000D01*
X142850870Y-87498327D01*
X142850870Y-85891444D01*
X143336570Y-85405744D01*
X143380051Y-85405782D01*
X143768168Y-85245416D01*
X144065372Y-84948730D01*
X144226416Y-84560893D01*
X144226782Y-84140949D01*
X144066416Y-83752832D01*
X143769730Y-83455628D01*
X143381893Y-83294584D01*
X142961949Y-83294218D01*
X142573832Y-83454584D01*
X142276628Y-83751270D01*
X142115584Y-84139107D01*
X142115545Y-84184141D01*
X141376613Y-84923073D01*
X141189408Y-85203245D01*
X141123670Y-85533730D01*
X141123670Y-87247400D01*
X141042399Y-87247400D01*
X141008000Y-87240434D01*
X139992000Y-87240434D01*
X139954980Y-87247400D01*
X139542399Y-87247400D01*
X139508000Y-87240434D01*
X138492000Y-87240434D01*
X138360223Y-87265230D01*
X138239193Y-87343110D01*
X138157999Y-87461942D01*
X138129434Y-87603000D01*
X136503314Y-87603000D01*
X139915890Y-84190425D01*
X140103095Y-83910253D01*
X140134408Y-83752832D01*
X140168833Y-83579767D01*
X140168833Y-82856440D01*
X141476534Y-82856440D01*
X141553754Y-83058200D01*
X142067519Y-83144672D01*
X142502246Y-83058200D01*
X142579466Y-82856440D01*
X143762534Y-82856440D01*
X143839754Y-83058200D01*
X144353519Y-83144672D01*
X144788246Y-83058200D01*
X144865466Y-82856440D01*
X146048534Y-82856440D01*
X146125754Y-83058200D01*
X146639519Y-83144672D01*
X147074246Y-83058200D01*
X147151466Y-82856440D01*
X148334534Y-82856440D01*
X148411754Y-83058200D01*
X148925519Y-83144672D01*
X149360246Y-83058200D01*
X149437466Y-82856440D01*
X150620534Y-82856440D01*
X150697754Y-83058200D01*
X151211519Y-83144672D01*
X151646246Y-83058200D01*
X151723466Y-82856440D01*
X151172000Y-82304975D01*
X150620534Y-82856440D01*
X149437466Y-82856440D01*
X148886000Y-82304975D01*
X148334534Y-82856440D01*
X147151466Y-82856440D01*
X146600000Y-82304975D01*
X146048534Y-82856440D01*
X144865466Y-82856440D01*
X144314000Y-82304975D01*
X143762534Y-82856440D01*
X142579466Y-82856440D01*
X142028000Y-82304975D01*
X141476534Y-82856440D01*
X140168833Y-82856440D01*
X140168833Y-81849519D01*
X140693328Y-81849519D01*
X140779800Y-82284246D01*
X140981560Y-82361466D01*
X141533025Y-81810000D01*
X142522975Y-81810000D01*
X143074440Y-82361466D01*
X143171000Y-82324509D01*
X143267560Y-82361466D01*
X143819025Y-81810000D01*
X144808975Y-81810000D01*
X145360440Y-82361466D01*
X145457000Y-82324509D01*
X145553560Y-82361466D01*
X146105025Y-81810000D01*
X147094975Y-81810000D01*
X147646440Y-82361466D01*
X147743000Y-82324509D01*
X147839560Y-82361466D01*
X148391025Y-81810000D01*
X149380975Y-81810000D01*
X149932440Y-82361466D01*
X150029000Y-82324509D01*
X150125560Y-82361466D01*
X150677025Y-81810000D01*
X151666975Y-81810000D01*
X152218440Y-82361466D01*
X152420200Y-82284246D01*
X152506672Y-81770481D01*
X152420200Y-81335754D01*
X152218440Y-81258534D01*
X151666975Y-81810000D01*
X150677025Y-81810000D01*
X150125560Y-81258534D01*
X150029000Y-81295491D01*
X149932440Y-81258534D01*
X149380975Y-81810000D01*
X148391025Y-81810000D01*
X147839560Y-81258534D01*
X147743000Y-81295491D01*
X147646440Y-81258534D01*
X147094975Y-81810000D01*
X146105025Y-81810000D01*
X145553560Y-81258534D01*
X145457000Y-81295491D01*
X145360440Y-81258534D01*
X144808975Y-81810000D01*
X143819025Y-81810000D01*
X143267560Y-81258534D01*
X143171000Y-81295491D01*
X143074440Y-81258534D01*
X142522975Y-81810000D01*
X141533025Y-81810000D01*
X140981560Y-81258534D01*
X140779800Y-81335754D01*
X140693328Y-81849519D01*
X140168833Y-81849519D01*
X140168833Y-80763560D01*
X141476534Y-80763560D01*
X142028000Y-81315025D01*
X142579466Y-80763560D01*
X143762534Y-80763560D01*
X144314000Y-81315025D01*
X144865466Y-80763560D01*
X146048534Y-80763560D01*
X146600000Y-81315025D01*
X147151466Y-80763560D01*
X148334534Y-80763560D01*
X148886000Y-81315025D01*
X149437466Y-80763560D01*
X150620534Y-80763560D01*
X151172000Y-81315025D01*
X151723466Y-80763560D01*
X151646246Y-80561800D01*
X151132481Y-80475328D01*
X150697754Y-80561800D01*
X150620534Y-80763560D01*
X149437466Y-80763560D01*
X149360246Y-80561800D01*
X148846481Y-80475328D01*
X148411754Y-80561800D01*
X148334534Y-80763560D01*
X147151466Y-80763560D01*
X147074246Y-80561800D01*
X146560481Y-80475328D01*
X146125754Y-80561800D01*
X146048534Y-80763560D01*
X144865466Y-80763560D01*
X144788246Y-80561800D01*
X144274481Y-80475328D01*
X143839754Y-80561800D01*
X143762534Y-80763560D01*
X142579466Y-80763560D01*
X142502246Y-80561800D01*
X141988481Y-80475328D01*
X141553754Y-80561800D01*
X141476534Y-80763560D01*
X140168833Y-80763560D01*
X140168833Y-79479051D01*
X142115218Y-79479051D01*
X142275584Y-79867168D01*
X142572270Y-80164372D01*
X142960107Y-80325416D01*
X143380051Y-80325782D01*
X143768168Y-80165416D01*
X144065372Y-79868730D01*
X144226416Y-79480893D01*
X144226417Y-79479051D01*
X144401218Y-79479051D01*
X144561584Y-79867168D01*
X144858270Y-80164372D01*
X145246107Y-80325416D01*
X145666051Y-80325782D01*
X146054168Y-80165416D01*
X146351372Y-79868730D01*
X146512416Y-79480893D01*
X146512782Y-79060949D01*
X146352416Y-78672832D01*
X146055730Y-78375628D01*
X145667893Y-78214584D01*
X145247949Y-78214218D01*
X144859832Y-78374584D01*
X144562628Y-78671270D01*
X144401584Y-79059107D01*
X144401218Y-79479051D01*
X144226417Y-79479051D01*
X144226782Y-79060949D01*
X144066416Y-78672832D01*
X143769730Y-78375628D01*
X143381893Y-78214584D01*
X142961949Y-78214218D01*
X142573832Y-78374584D01*
X142276628Y-78671270D01*
X142115584Y-79059107D01*
X142115218Y-79479051D01*
X140168833Y-79479051D01*
X140168833Y-79107233D01*
X140103095Y-78776748D01*
X140046585Y-78692175D01*
X139915891Y-78496576D01*
X135484657Y-74065343D01*
X135204485Y-73878138D01*
X134874000Y-73812400D01*
X132047566Y-73812400D01*
X132047566Y-73801000D01*
X163227434Y-73801000D01*
X163227434Y-75551000D01*
X163252230Y-75682777D01*
X163330110Y-75803807D01*
X163448942Y-75885001D01*
X163590000Y-75913566D01*
X165340000Y-75913566D01*
X165471777Y-75888770D01*
X165592807Y-75810890D01*
X165674001Y-75692058D01*
X165702566Y-75551000D01*
X165702566Y-75256060D01*
X165759266Y-75285338D01*
X166368604Y-74676000D01*
X167641396Y-74676000D01*
X168250734Y-75285338D01*
X168460315Y-75177118D01*
X168541305Y-74582048D01*
X168460315Y-74174882D01*
X168250734Y-74066662D01*
X167641396Y-74676000D01*
X166368604Y-74676000D01*
X165759266Y-74066662D01*
X165702566Y-74095940D01*
X165702566Y-73801000D01*
X165677770Y-73669223D01*
X165599890Y-73548193D01*
X165481058Y-73466999D01*
X165340000Y-73438434D01*
X163590000Y-73438434D01*
X163458223Y-73463230D01*
X163337193Y-73541110D01*
X163255999Y-73659942D01*
X163227434Y-73801000D01*
X132047566Y-73801000D01*
X132022770Y-73669223D01*
X131944890Y-73548193D01*
X131826058Y-73466999D01*
X131685000Y-73438434D01*
X129935000Y-73438434D01*
X129803223Y-73463230D01*
X129682193Y-73541110D01*
X129600999Y-73659942D01*
X129572434Y-73801000D01*
X129572434Y-74095940D01*
X129515734Y-74066662D01*
X128906396Y-74676000D01*
X129515734Y-75285338D01*
X129572434Y-75256060D01*
X129572434Y-75551000D01*
X129597230Y-75682777D01*
X129675110Y-75803807D01*
X129793942Y-75885001D01*
X129935000Y-75913566D01*
X131685000Y-75913566D01*
X131816777Y-75888770D01*
X131937807Y-75810890D01*
X132019001Y-75692058D01*
X132047566Y-75551000D01*
X132047566Y-75539600D01*
X134516286Y-75539600D01*
X138441633Y-79464948D01*
X138441633Y-83222052D01*
X134898343Y-86765343D01*
X134711138Y-87045515D01*
X134645400Y-87376000D01*
X134645400Y-109999000D01*
X134694623Y-110246457D01*
X134711138Y-110329485D01*
X134898343Y-110609657D01*
X136179260Y-111890575D01*
X136179217Y-111940041D01*
X136340343Y-112329997D01*
X136638434Y-112628608D01*
X137028108Y-112790415D01*
X137450041Y-112790783D01*
X137839997Y-112629657D01*
X138138608Y-112331566D01*
X138235037Y-112099339D01*
X138330343Y-112329997D01*
X138628434Y-112628608D01*
X139018108Y-112790415D01*
X139440041Y-112790783D01*
X139829997Y-112629657D01*
X140128608Y-112331566D01*
X140290415Y-111941892D01*
X140290783Y-111519959D01*
X140129657Y-111130003D01*
X139831566Y-110831392D01*
X139441892Y-110669585D01*
X139019959Y-110669217D01*
X138630003Y-110830343D01*
X138331392Y-111128434D01*
X138234963Y-111360661D01*
X138139657Y-111130003D01*
X137841566Y-110831392D01*
X137451892Y-110669585D01*
X137400855Y-110669540D01*
X136948796Y-110217482D01*
X137028108Y-110250415D01*
X137450041Y-110250783D01*
X137839997Y-110089657D01*
X138138608Y-109791566D01*
X138235037Y-109559339D01*
X138330343Y-109789997D01*
X138628434Y-110088608D01*
X139018108Y-110250415D01*
X139440041Y-110250783D01*
X139829997Y-110089657D01*
X139852400Y-110067293D01*
X139852400Y-110422000D01*
X139898803Y-110655284D01*
X140030948Y-110853052D01*
X140709573Y-111531678D01*
X140709217Y-111940041D01*
X140870343Y-112329997D01*
X141168434Y-112628608D01*
X141558108Y-112790415D01*
X141980041Y-112790783D01*
X142002667Y-112781434D01*
X143207076Y-112781434D01*
X143285070Y-112983393D01*
X143800875Y-113069733D01*
X144234930Y-112983393D01*
X144312924Y-112781434D01*
X143760000Y-112228510D01*
X143207076Y-112781434D01*
X142002667Y-112781434D01*
X142369997Y-112629657D01*
X142668608Y-112331566D01*
X142691537Y-112276348D01*
X142708566Y-112282924D01*
X143261490Y-111730000D01*
X144258510Y-111730000D01*
X144811434Y-112282924D01*
X145013393Y-112204930D01*
X145099733Y-111689125D01*
X145013393Y-111255070D01*
X144811434Y-111177076D01*
X144258510Y-111730000D01*
X143261490Y-111730000D01*
X142708566Y-111177076D01*
X142691785Y-111183557D01*
X142669657Y-111130003D01*
X142371566Y-110831392D01*
X142003521Y-110678566D01*
X143207076Y-110678566D01*
X143760000Y-111231490D01*
X144312924Y-110678566D01*
X144234930Y-110476607D01*
X143719125Y-110390267D01*
X143285070Y-110476607D01*
X143207076Y-110678566D01*
X142003521Y-110678566D01*
X141981892Y-110669585D01*
X141571331Y-110669227D01*
X141071600Y-110169496D01*
X141071600Y-109991605D01*
X141168434Y-110088608D01*
X141558108Y-110250415D01*
X141980041Y-110250783D01*
X142369997Y-110089657D01*
X142668608Y-109791566D01*
X142765037Y-109559339D01*
X142860343Y-109789997D01*
X143158434Y-110088608D01*
X143548108Y-110250415D01*
X143970041Y-110250783D01*
X144359997Y-110089657D01*
X144658608Y-109791566D01*
X144820415Y-109401892D01*
X144820783Y-108979959D01*
X144659657Y-108590003D01*
X144373600Y-108303447D01*
X144373600Y-106132100D01*
X144515500Y-105990200D01*
X144515500Y-105408000D01*
X144790500Y-105408000D01*
X144790500Y-105990200D01*
X144942900Y-106142600D01*
X145049257Y-106142600D01*
X145273311Y-106049794D01*
X145444794Y-105878311D01*
X145537600Y-105654257D01*
X145537600Y-105560400D01*
X145385200Y-105408000D01*
X144790500Y-105408000D01*
X144515500Y-105408000D01*
X144401566Y-105408000D01*
X144401566Y-105158000D01*
X144515500Y-105158000D01*
X144515500Y-105033000D01*
X144790500Y-105033000D01*
X144790500Y-105158000D01*
X145385200Y-105158000D01*
X145537600Y-105005600D01*
X145537600Y-104911743D01*
X145444794Y-104687689D01*
X145287794Y-104530689D01*
X145290566Y-104517000D01*
X145290566Y-104017000D01*
X145267750Y-103895743D01*
X145927400Y-103895743D01*
X145927400Y-103989600D01*
X146079800Y-104142000D01*
X146674500Y-104142000D01*
X146674500Y-103559800D01*
X146949500Y-103559800D01*
X146949500Y-104142000D01*
X147544200Y-104142000D01*
X147696600Y-103989600D01*
X147696600Y-103895743D01*
X147603794Y-103671689D01*
X147432311Y-103500206D01*
X147208257Y-103407400D01*
X147101900Y-103407400D01*
X146949500Y-103559800D01*
X146674500Y-103559800D01*
X146522100Y-103407400D01*
X146415743Y-103407400D01*
X146191689Y-103500206D01*
X146020206Y-103671689D01*
X145927400Y-103895743D01*
X145267750Y-103895743D01*
X145265770Y-103885223D01*
X145187890Y-103764193D01*
X145069058Y-103682999D01*
X144928000Y-103654434D01*
X144378000Y-103654434D01*
X144362237Y-103657400D01*
X144053647Y-103657400D01*
X144039000Y-103654434D01*
X143489000Y-103654434D01*
X143484600Y-103655262D01*
X143484600Y-103378000D01*
X143438197Y-103144716D01*
X143332200Y-102986081D01*
X143332200Y-94612965D01*
X143297398Y-94438002D01*
X143287630Y-94423383D01*
X143198289Y-94289675D01*
X140067614Y-91159001D01*
X140484031Y-91159001D01*
X140756530Y-91431501D01*
X140893636Y-91523112D01*
X140904856Y-91530609D01*
X141079819Y-91565411D01*
X141896265Y-91565411D01*
X142168764Y-91837911D01*
X142293162Y-91921031D01*
X142317090Y-91937019D01*
X142492053Y-91971821D01*
X143647351Y-91971821D01*
X143919850Y-92244321D01*
X144044248Y-92327441D01*
X144068176Y-92343429D01*
X144243139Y-92378231D01*
X144979011Y-92378231D01*
X145251510Y-92650731D01*
X145399836Y-92749839D01*
X145574799Y-92784641D01*
X146326743Y-92784641D01*
X149142500Y-95600398D01*
X149142500Y-105150384D01*
X149086597Y-105206189D01*
X148994206Y-105428692D01*
X148993996Y-105669615D01*
X149085998Y-105892278D01*
X149256207Y-106062785D01*
X149365409Y-106108130D01*
X149361057Y-106112482D01*
X149282067Y-106112413D01*
X149059404Y-106204415D01*
X148888897Y-106374624D01*
X148796506Y-106597127D01*
X148796296Y-106838050D01*
X148888298Y-107060713D01*
X149058507Y-107231220D01*
X149064088Y-107233538D01*
X149044424Y-107262967D01*
X149009622Y-107437930D01*
X149009622Y-116158864D01*
X148901276Y-116267210D01*
X148802167Y-116415536D01*
X148767365Y-116590499D01*
X148767365Y-116949234D01*
X148711462Y-117005039D01*
X148619071Y-117227542D01*
X148618861Y-117468465D01*
X148710863Y-117691128D01*
X148881072Y-117861635D01*
X149103575Y-117954026D01*
X149277869Y-117954178D01*
X149277791Y-118043713D01*
X149369793Y-118266376D01*
X149540002Y-118436883D01*
X149762505Y-118529274D01*
X150003428Y-118529484D01*
X150226091Y-118437482D01*
X150396598Y-118267273D01*
X150488989Y-118044770D01*
X150489199Y-117803847D01*
X150397197Y-117581184D01*
X150340695Y-117524583D01*
X150340695Y-117352060D01*
X150373432Y-117365654D01*
X150614355Y-117365864D01*
X150837018Y-117273862D01*
X151007525Y-117103653D01*
X151099916Y-116881150D01*
X151100126Y-116640227D01*
X151008124Y-116417564D01*
X150951622Y-116360963D01*
X150951622Y-116043245D01*
X150916820Y-115868282D01*
X150817711Y-115719956D01*
X150758155Y-115660400D01*
X150758155Y-109074256D01*
X152321122Y-107511289D01*
X153689777Y-106142635D01*
X153768766Y-106142704D01*
X153826582Y-106118815D01*
X153397512Y-106547885D01*
X153298403Y-106696211D01*
X153263601Y-106871174D01*
X153263601Y-108995489D01*
X153182201Y-108995418D01*
X153162000Y-108991400D01*
X153141976Y-108995383D01*
X153042067Y-108995296D01*
X152948916Y-109033785D01*
X152928716Y-109037803D01*
X152911741Y-109049145D01*
X152844289Y-109077016D01*
X152777408Y-109049245D01*
X152760284Y-109037803D01*
X152740261Y-109033820D01*
X152647990Y-108995506D01*
X152547201Y-108995418D01*
X152527000Y-108991400D01*
X152506976Y-108995383D01*
X152407067Y-108995296D01*
X152313916Y-109033785D01*
X152293716Y-109037803D01*
X152276741Y-109049145D01*
X152209289Y-109077016D01*
X152142408Y-109049245D01*
X152125284Y-109037803D01*
X152105261Y-109033820D01*
X152012990Y-108995506D01*
X151912201Y-108995418D01*
X151892000Y-108991400D01*
X151871976Y-108995383D01*
X151772067Y-108995296D01*
X151678916Y-109033785D01*
X151658716Y-109037803D01*
X151641741Y-109049145D01*
X151549404Y-109087298D01*
X151478070Y-109158508D01*
X151460948Y-109169948D01*
X151449608Y-109186920D01*
X151378897Y-109257507D01*
X151340245Y-109350592D01*
X151328803Y-109367716D01*
X151324820Y-109387739D01*
X151286506Y-109480010D01*
X151286418Y-109580799D01*
X151282400Y-109601000D01*
X151282400Y-109820601D01*
X151275434Y-109855000D01*
X151275434Y-111379000D01*
X151300230Y-111510777D01*
X151378110Y-111631807D01*
X151496942Y-111713001D01*
X151638000Y-111741566D01*
X153263601Y-111741566D01*
X153263601Y-111962801D01*
X153298403Y-112137764D01*
X153397512Y-112286090D01*
X153397856Y-112286434D01*
X151638000Y-112286434D01*
X151506223Y-112311230D01*
X151385193Y-112389110D01*
X151303999Y-112507942D01*
X151275434Y-112649000D01*
X151275434Y-114173000D01*
X151300230Y-114304777D01*
X151378110Y-114425807D01*
X151496942Y-114507001D01*
X151638000Y-114535566D01*
X152439156Y-114535566D01*
X153576900Y-115673310D01*
X153576900Y-118000000D01*
X153587434Y-118052958D01*
X153587434Y-119250000D01*
X153612230Y-119381777D01*
X153690110Y-119502807D01*
X153711468Y-119517400D01*
X129099750Y-119517400D01*
X129185100Y-119482134D01*
X129640535Y-119027493D01*
X129887319Y-118433172D01*
X129887881Y-117789651D01*
X129642134Y-117194900D01*
X129187493Y-116739465D01*
X128651534Y-116516915D01*
X128980311Y-116381067D01*
X129333825Y-116028169D01*
X129525382Y-115566850D01*
X129525383Y-115564659D01*
X129554182Y-115564659D01*
X129744933Y-116026311D01*
X130097831Y-116379825D01*
X130559150Y-116571382D01*
X131058659Y-116571818D01*
X131520311Y-116381067D01*
X131873825Y-116028169D01*
X132065382Y-115566850D01*
X132065818Y-115067341D01*
X132003695Y-114916992D01*
X132094035Y-114916992D01*
X132413918Y-115691168D01*
X133005716Y-116284000D01*
X133779333Y-116605234D01*
X134084037Y-116605500D01*
X134377909Y-116801859D01*
X135000000Y-116925600D01*
X139147592Y-116925600D01*
X139305716Y-117084000D01*
X140079333Y-117405234D01*
X140916992Y-117405965D01*
X141691168Y-117086082D01*
X141851930Y-116925600D01*
X146000000Y-116925600D01*
X146622091Y-116801859D01*
X146915660Y-116605702D01*
X147216992Y-116605965D01*
X147991168Y-116286082D01*
X148584000Y-115694284D01*
X148905234Y-114920667D01*
X148905965Y-114083008D01*
X148586082Y-113308832D01*
X147994284Y-112716000D01*
X147421600Y-112478201D01*
X147421600Y-105671100D01*
X147449566Y-105533000D01*
X147449566Y-105033000D01*
X147446959Y-105019146D01*
X147603794Y-104862311D01*
X147696600Y-104638257D01*
X147696600Y-104544400D01*
X147544200Y-104392000D01*
X146949500Y-104392000D01*
X146949500Y-104517000D01*
X146674500Y-104517000D01*
X146674500Y-104392000D01*
X146079800Y-104392000D01*
X145927400Y-104544400D01*
X145927400Y-104638257D01*
X146020206Y-104862311D01*
X146177206Y-105019311D01*
X146174434Y-105033000D01*
X146174434Y-105533000D01*
X146199230Y-105664777D01*
X146202400Y-105669703D01*
X146202400Y-112468661D01*
X145608832Y-112713918D01*
X145016000Y-113305716D01*
X144862909Y-113674400D01*
X141852408Y-113674400D01*
X141694284Y-113516000D01*
X140920667Y-113194766D01*
X140083008Y-113194035D01*
X139308832Y-113513918D01*
X139148070Y-113674400D01*
X136137132Y-113674400D01*
X135986082Y-113308832D01*
X135394284Y-112716000D01*
X134620667Y-112394766D01*
X133783008Y-112394035D01*
X133008832Y-112713918D01*
X132416000Y-113305716D01*
X132094766Y-114079333D01*
X132094035Y-114916992D01*
X132003695Y-114916992D01*
X131875067Y-114605689D01*
X131522169Y-114252175D01*
X131060850Y-114060618D01*
X130561341Y-114060182D01*
X130099689Y-114250933D01*
X129746175Y-114603831D01*
X129554618Y-115065150D01*
X129554182Y-115564659D01*
X129525383Y-115564659D01*
X129525818Y-115067341D01*
X129335067Y-114605689D01*
X128982169Y-114252175D01*
X128520850Y-114060618D01*
X128021341Y-114060182D01*
X127559689Y-114250933D01*
X127206175Y-114603831D01*
X127014618Y-115065150D01*
X127014182Y-115564659D01*
X127204933Y-116026311D01*
X127557831Y-116379825D01*
X127888808Y-116517259D01*
X127354900Y-116737866D01*
X126899465Y-117192507D01*
X126652681Y-117786828D01*
X126652119Y-118430349D01*
X126897866Y-119025100D01*
X127352507Y-119480535D01*
X127441288Y-119517400D01*
X125482600Y-119517400D01*
X125482600Y-113024659D01*
X127014182Y-113024659D01*
X127204933Y-113486311D01*
X127557831Y-113839825D01*
X128019150Y-114031382D01*
X128518659Y-114031818D01*
X128980311Y-113841067D01*
X129333825Y-113488169D01*
X129525382Y-113026850D01*
X129525383Y-113024659D01*
X129554182Y-113024659D01*
X129744933Y-113486311D01*
X130097831Y-113839825D01*
X130559150Y-114031382D01*
X131058659Y-114031818D01*
X131520311Y-113841067D01*
X131873825Y-113488169D01*
X132065382Y-113026850D01*
X132065818Y-112527341D01*
X131875067Y-112065689D01*
X131522169Y-111712175D01*
X131060850Y-111520618D01*
X130561341Y-111520182D01*
X130099689Y-111710933D01*
X129746175Y-112063831D01*
X129554618Y-112525150D01*
X129554182Y-113024659D01*
X129525383Y-113024659D01*
X129525818Y-112527341D01*
X129335067Y-112065689D01*
X128982169Y-111712175D01*
X128520850Y-111520618D01*
X128021341Y-111520182D01*
X127559689Y-111710933D01*
X127206175Y-112063831D01*
X127014618Y-112525150D01*
X127014182Y-113024659D01*
X125482600Y-113024659D01*
X125482600Y-110484659D01*
X127014182Y-110484659D01*
X127204933Y-110946311D01*
X127557831Y-111299825D01*
X128019150Y-111491382D01*
X128518659Y-111491818D01*
X128980311Y-111301067D01*
X129333825Y-110948169D01*
X129525382Y-110486850D01*
X129525383Y-110484659D01*
X129554182Y-110484659D01*
X129744933Y-110946311D01*
X130097831Y-111299825D01*
X130559150Y-111491382D01*
X131058659Y-111491818D01*
X131520311Y-111301067D01*
X131873825Y-110948169D01*
X132065382Y-110486850D01*
X132065818Y-109987341D01*
X131875067Y-109525689D01*
X131522169Y-109172175D01*
X131060850Y-108980618D01*
X130561341Y-108980182D01*
X130099689Y-109170933D01*
X129746175Y-109523831D01*
X129554618Y-109985150D01*
X129554182Y-110484659D01*
X129525383Y-110484659D01*
X129525818Y-109987341D01*
X129335067Y-109525689D01*
X128982169Y-109172175D01*
X128520850Y-108980618D01*
X128021341Y-108980182D01*
X127559689Y-109170933D01*
X127206175Y-109523831D01*
X127014618Y-109985150D01*
X127014182Y-110484659D01*
X125482600Y-110484659D01*
X125482600Y-107944659D01*
X127014182Y-107944659D01*
X127204933Y-108406311D01*
X127557831Y-108759825D01*
X128019150Y-108951382D01*
X128518659Y-108951818D01*
X128980311Y-108761067D01*
X129333825Y-108408169D01*
X129525382Y-107946850D01*
X129525383Y-107944659D01*
X129554182Y-107944659D01*
X129744933Y-108406311D01*
X130097831Y-108759825D01*
X130559150Y-108951382D01*
X131058659Y-108951818D01*
X131520311Y-108761067D01*
X131873825Y-108408169D01*
X132065382Y-107946850D01*
X132065818Y-107447341D01*
X131875067Y-106985689D01*
X131522169Y-106632175D01*
X131060850Y-106440618D01*
X130561341Y-106440182D01*
X130099689Y-106630933D01*
X129746175Y-106983831D01*
X129554618Y-107445150D01*
X129554182Y-107944659D01*
X129525383Y-107944659D01*
X129525818Y-107447341D01*
X129335067Y-106985689D01*
X128982169Y-106632175D01*
X128520850Y-106440618D01*
X128021341Y-106440182D01*
X127559689Y-106630933D01*
X127206175Y-106983831D01*
X127014618Y-107445150D01*
X127014182Y-107944659D01*
X125482600Y-107944659D01*
X125482600Y-105404659D01*
X127014182Y-105404659D01*
X127204933Y-105866311D01*
X127557831Y-106219825D01*
X128019150Y-106411382D01*
X128518659Y-106411818D01*
X128980311Y-106221067D01*
X129333825Y-105868169D01*
X129525382Y-105406850D01*
X129525383Y-105404659D01*
X129554182Y-105404659D01*
X129744933Y-105866311D01*
X130097831Y-106219825D01*
X130559150Y-106411382D01*
X131058659Y-106411818D01*
X131520311Y-106221067D01*
X131873825Y-105868169D01*
X132065382Y-105406850D01*
X132065818Y-104907341D01*
X131875067Y-104445689D01*
X131522169Y-104092175D01*
X131060850Y-103900618D01*
X130561341Y-103900182D01*
X130099689Y-104090933D01*
X129746175Y-104443831D01*
X129554618Y-104905150D01*
X129554182Y-105404659D01*
X129525383Y-105404659D01*
X129525818Y-104907341D01*
X129335067Y-104445689D01*
X128982169Y-104092175D01*
X128520850Y-103900618D01*
X128021341Y-103900182D01*
X127559689Y-104090933D01*
X127206175Y-104443831D01*
X127014618Y-104905150D01*
X127014182Y-105404659D01*
X125482600Y-105404659D01*
X125482600Y-102864659D01*
X127014182Y-102864659D01*
X127204933Y-103326311D01*
X127557831Y-103679825D01*
X128019150Y-103871382D01*
X128518659Y-103871818D01*
X128980311Y-103681067D01*
X129333825Y-103328169D01*
X129525382Y-102866850D01*
X129525383Y-102864659D01*
X129554182Y-102864659D01*
X129744933Y-103326311D01*
X130097831Y-103679825D01*
X130559150Y-103871382D01*
X131058659Y-103871818D01*
X131520311Y-103681067D01*
X131873825Y-103328169D01*
X132065382Y-102866850D01*
X132065818Y-102367341D01*
X131875067Y-101905689D01*
X131522169Y-101552175D01*
X131060850Y-101360618D01*
X130561341Y-101360182D01*
X130099689Y-101550933D01*
X129746175Y-101903831D01*
X129554618Y-102365150D01*
X129554182Y-102864659D01*
X129525383Y-102864659D01*
X129525818Y-102367341D01*
X129335067Y-101905689D01*
X128982169Y-101552175D01*
X128520850Y-101360618D01*
X128021341Y-101360182D01*
X127559689Y-101550933D01*
X127206175Y-101903831D01*
X127014618Y-102365150D01*
X127014182Y-102864659D01*
X125482600Y-102864659D01*
X125482600Y-100324659D01*
X127014182Y-100324659D01*
X127204933Y-100786311D01*
X127557831Y-101139825D01*
X128019150Y-101331382D01*
X128518659Y-101331818D01*
X128980311Y-101141067D01*
X129333825Y-100788169D01*
X129525382Y-100326850D01*
X129525383Y-100324659D01*
X129554182Y-100324659D01*
X129744933Y-100786311D01*
X130097831Y-101139825D01*
X130559150Y-101331382D01*
X131058659Y-101331818D01*
X131520311Y-101141067D01*
X131873825Y-100788169D01*
X132065382Y-100326850D01*
X132065818Y-99827341D01*
X131875067Y-99365689D01*
X131522169Y-99012175D01*
X131060850Y-98820618D01*
X130561341Y-98820182D01*
X130099689Y-99010933D01*
X129746175Y-99363831D01*
X129554618Y-99825150D01*
X129554182Y-100324659D01*
X129525383Y-100324659D01*
X129525818Y-99827341D01*
X129335067Y-99365689D01*
X128982169Y-99012175D01*
X128520850Y-98820618D01*
X128021341Y-98820182D01*
X127559689Y-99010933D01*
X127206175Y-99363831D01*
X127014618Y-99825150D01*
X127014182Y-100324659D01*
X125482600Y-100324659D01*
X125482600Y-97784659D01*
X127014182Y-97784659D01*
X127204933Y-98246311D01*
X127557831Y-98599825D01*
X128019150Y-98791382D01*
X128518659Y-98791818D01*
X128980311Y-98601067D01*
X129333825Y-98248169D01*
X129525382Y-97786850D01*
X129525383Y-97784659D01*
X129554182Y-97784659D01*
X129744933Y-98246311D01*
X130097831Y-98599825D01*
X130559150Y-98791382D01*
X131058659Y-98791818D01*
X131520311Y-98601067D01*
X131873825Y-98248169D01*
X132065382Y-97786850D01*
X132065818Y-97287341D01*
X131875067Y-96825689D01*
X131522169Y-96472175D01*
X131060850Y-96280618D01*
X130561341Y-96280182D01*
X130099689Y-96470933D01*
X129746175Y-96823831D01*
X129554618Y-97285150D01*
X129554182Y-97784659D01*
X129525383Y-97784659D01*
X129525818Y-97287341D01*
X129335067Y-96825689D01*
X128982169Y-96472175D01*
X128520850Y-96280618D01*
X128021341Y-96280182D01*
X127559689Y-96470933D01*
X127206175Y-96823831D01*
X127014618Y-97285150D01*
X127014182Y-97784659D01*
X125482600Y-97784659D01*
X125482600Y-95244659D01*
X127014182Y-95244659D01*
X127204933Y-95706311D01*
X127557831Y-96059825D01*
X128019150Y-96251382D01*
X128518659Y-96251818D01*
X128980311Y-96061067D01*
X129333825Y-95708169D01*
X129525382Y-95246850D01*
X129525383Y-95244659D01*
X129554182Y-95244659D01*
X129744933Y-95706311D01*
X130097831Y-96059825D01*
X130559150Y-96251382D01*
X131058659Y-96251818D01*
X131520311Y-96061067D01*
X131873825Y-95708169D01*
X132065382Y-95246850D01*
X132065818Y-94747341D01*
X131875067Y-94285689D01*
X131522169Y-93932175D01*
X131060850Y-93740618D01*
X130561341Y-93740182D01*
X130099689Y-93930933D01*
X129746175Y-94283831D01*
X129554618Y-94745150D01*
X129554182Y-95244659D01*
X129525383Y-95244659D01*
X129525818Y-94747341D01*
X129335067Y-94285689D01*
X128982169Y-93932175D01*
X128520850Y-93740618D01*
X128021341Y-93740182D01*
X127559689Y-93930933D01*
X127206175Y-94283831D01*
X127014618Y-94745150D01*
X127014182Y-95244659D01*
X125482600Y-95244659D01*
X125482600Y-92704659D01*
X127014182Y-92704659D01*
X127204933Y-93166311D01*
X127557831Y-93519825D01*
X128019150Y-93711382D01*
X128518659Y-93711818D01*
X128980311Y-93521067D01*
X129333825Y-93168169D01*
X129525382Y-92706850D01*
X129525383Y-92704659D01*
X129554182Y-92704659D01*
X129744933Y-93166311D01*
X130097831Y-93519825D01*
X130559150Y-93711382D01*
X131058659Y-93711818D01*
X131520311Y-93521067D01*
X131873825Y-93168169D01*
X132065382Y-92706850D01*
X132065818Y-92207341D01*
X131875067Y-91745689D01*
X131522169Y-91392175D01*
X131060850Y-91200618D01*
X130561341Y-91200182D01*
X130099689Y-91390933D01*
X129746175Y-91743831D01*
X129554618Y-92205150D01*
X129554182Y-92704659D01*
X129525383Y-92704659D01*
X129525818Y-92207341D01*
X129335067Y-91745689D01*
X128982169Y-91392175D01*
X128520850Y-91200618D01*
X128021341Y-91200182D01*
X127559689Y-91390933D01*
X127206175Y-91743831D01*
X127014618Y-92205150D01*
X127014182Y-92704659D01*
X125482600Y-92704659D01*
X125482600Y-90164659D01*
X127014182Y-90164659D01*
X127204933Y-90626311D01*
X127557831Y-90979825D01*
X128019150Y-91171382D01*
X128518659Y-91171818D01*
X128980311Y-90981067D01*
X129333825Y-90628169D01*
X129525382Y-90166850D01*
X129525383Y-90164659D01*
X129554182Y-90164659D01*
X129744933Y-90626311D01*
X130097831Y-90979825D01*
X130559150Y-91171382D01*
X131058659Y-91171818D01*
X131520311Y-90981067D01*
X131873825Y-90628169D01*
X132065382Y-90166850D01*
X132065818Y-89667341D01*
X131875067Y-89205689D01*
X131522169Y-88852175D01*
X131060850Y-88660618D01*
X130561341Y-88660182D01*
X130099689Y-88850933D01*
X129746175Y-89203831D01*
X129554618Y-89665150D01*
X129554182Y-90164659D01*
X129525383Y-90164659D01*
X129525818Y-89667341D01*
X129335067Y-89205689D01*
X128982169Y-88852175D01*
X128520850Y-88660618D01*
X128021341Y-88660182D01*
X127559689Y-88850933D01*
X127206175Y-89203831D01*
X127014618Y-89665150D01*
X127014182Y-90164659D01*
X125482600Y-90164659D01*
X125482600Y-87624659D01*
X127014182Y-87624659D01*
X127204933Y-88086311D01*
X127557831Y-88439825D01*
X128019150Y-88631382D01*
X128518659Y-88631818D01*
X128980311Y-88441067D01*
X129333825Y-88088169D01*
X129525382Y-87626850D01*
X129525383Y-87624659D01*
X129554182Y-87624659D01*
X129744933Y-88086311D01*
X130097831Y-88439825D01*
X130559150Y-88631382D01*
X131058659Y-88631818D01*
X131520311Y-88441067D01*
X131873825Y-88088169D01*
X132065382Y-87626850D01*
X132065818Y-87127341D01*
X131875067Y-86665689D01*
X131522169Y-86312175D01*
X131060850Y-86120618D01*
X130561341Y-86120182D01*
X130099689Y-86310933D01*
X129746175Y-86663831D01*
X129554618Y-87125150D01*
X129554182Y-87624659D01*
X129525383Y-87624659D01*
X129525818Y-87127341D01*
X129335067Y-86665689D01*
X128982169Y-86312175D01*
X128520850Y-86120618D01*
X128021341Y-86120182D01*
X127559689Y-86310933D01*
X127206175Y-86663831D01*
X127014618Y-87125150D01*
X127014182Y-87624659D01*
X125482600Y-87624659D01*
X125482600Y-85084659D01*
X127014182Y-85084659D01*
X127204933Y-85546311D01*
X127557831Y-85899825D01*
X128019150Y-86091382D01*
X128518659Y-86091818D01*
X128980311Y-85901067D01*
X129333825Y-85548169D01*
X129525382Y-85086850D01*
X129525383Y-85084659D01*
X129554182Y-85084659D01*
X129744933Y-85546311D01*
X130097831Y-85899825D01*
X130559150Y-86091382D01*
X131058659Y-86091818D01*
X131520311Y-85901067D01*
X131873825Y-85548169D01*
X132065382Y-85086850D01*
X132065818Y-84587341D01*
X131957142Y-84324325D01*
X133243016Y-84324325D01*
X133567116Y-84693799D01*
X134779998Y-85023772D01*
X136026831Y-84864477D01*
X136438884Y-84693799D01*
X136762984Y-84324325D01*
X135003000Y-82564342D01*
X133243016Y-84324325D01*
X131957142Y-84324325D01*
X131875067Y-84125689D01*
X131522169Y-83772175D01*
X131060850Y-83580618D01*
X130561341Y-83580182D01*
X130099689Y-83770933D01*
X129746175Y-84123831D01*
X129554618Y-84585150D01*
X129554182Y-85084659D01*
X129525383Y-85084659D01*
X129525818Y-84587341D01*
X129335067Y-84125689D01*
X128982169Y-83772175D01*
X128799511Y-83696329D01*
X128879338Y-83541734D01*
X128270000Y-82932396D01*
X127660662Y-83541734D01*
X127740446Y-83696246D01*
X127559689Y-83770933D01*
X127206175Y-84123831D01*
X127014618Y-84585150D01*
X127014182Y-85084659D01*
X125482600Y-85084659D01*
X125482600Y-82389952D01*
X126733695Y-82389952D01*
X126814685Y-82797118D01*
X127024266Y-82905338D01*
X127633604Y-82296000D01*
X128906396Y-82296000D01*
X129515734Y-82905338D01*
X129670246Y-82825554D01*
X129744933Y-83006311D01*
X130097831Y-83359825D01*
X130559150Y-83551382D01*
X131058659Y-83551818D01*
X131520311Y-83361067D01*
X131873825Y-83008169D01*
X131947980Y-82829584D01*
X131948523Y-82833831D01*
X132119201Y-83245884D01*
X132488675Y-83569984D01*
X134248658Y-81810000D01*
X135757342Y-81810000D01*
X137517325Y-83569984D01*
X137886799Y-83245884D01*
X138216772Y-82033002D01*
X138057477Y-80786169D01*
X137886799Y-80374116D01*
X137517325Y-80050016D01*
X135757342Y-81810000D01*
X134248658Y-81810000D01*
X132488675Y-80050016D01*
X132119201Y-80374116D01*
X131807892Y-81518396D01*
X131522169Y-81232175D01*
X131060850Y-81040618D01*
X130561341Y-81040182D01*
X130099689Y-81230933D01*
X129746175Y-81583831D01*
X129670329Y-81766489D01*
X129515734Y-81686662D01*
X128906396Y-82296000D01*
X127633604Y-82296000D01*
X127024266Y-81686662D01*
X126814685Y-81794882D01*
X126733695Y-82389952D01*
X125482600Y-82389952D01*
X125482600Y-80004659D01*
X127014182Y-80004659D01*
X127204933Y-80466311D01*
X127557831Y-80819825D01*
X127740489Y-80895671D01*
X127660662Y-81050266D01*
X128270000Y-81659604D01*
X128879338Y-81050266D01*
X128799554Y-80895754D01*
X128980311Y-80821067D01*
X129333825Y-80468169D01*
X129525382Y-80006850D01*
X129525383Y-80004659D01*
X129554182Y-80004659D01*
X129744933Y-80466311D01*
X130097831Y-80819825D01*
X130559150Y-81011382D01*
X131058659Y-81011818D01*
X131520311Y-80821067D01*
X131873825Y-80468169D01*
X132065382Y-80006850D01*
X132065818Y-79507341D01*
X131978360Y-79295675D01*
X133243016Y-79295675D01*
X135003000Y-81055658D01*
X136762984Y-79295675D01*
X136438884Y-78926201D01*
X135226002Y-78596228D01*
X133979169Y-78755523D01*
X133567116Y-78926201D01*
X133243016Y-79295675D01*
X131978360Y-79295675D01*
X131875067Y-79045689D01*
X131522169Y-78692175D01*
X131060850Y-78500618D01*
X130561341Y-78500182D01*
X130099689Y-78690933D01*
X129746175Y-79043831D01*
X129554618Y-79505150D01*
X129554182Y-80004659D01*
X129525383Y-80004659D01*
X129525818Y-79507341D01*
X129335067Y-79045689D01*
X128982169Y-78692175D01*
X128799511Y-78616329D01*
X128879338Y-78461734D01*
X128270000Y-77852396D01*
X127660662Y-78461734D01*
X127740446Y-78616246D01*
X127559689Y-78690933D01*
X127206175Y-79043831D01*
X127014618Y-79505150D01*
X127014182Y-80004659D01*
X125482600Y-80004659D01*
X125482600Y-77309952D01*
X126733695Y-77309952D01*
X126814685Y-77717118D01*
X127024266Y-77825338D01*
X127633604Y-77216000D01*
X128906396Y-77216000D01*
X129515734Y-77825338D01*
X129670246Y-77745554D01*
X129744933Y-77926311D01*
X130097831Y-78279825D01*
X130559150Y-78471382D01*
X131058659Y-78471818D01*
X131520311Y-78281067D01*
X131873825Y-77928169D01*
X132065382Y-77466850D01*
X132065818Y-76967341D01*
X131875067Y-76505689D01*
X131522169Y-76152175D01*
X131060850Y-75960618D01*
X130561341Y-75960182D01*
X130099689Y-76150933D01*
X129746175Y-76503831D01*
X129670329Y-76686489D01*
X129515734Y-76606662D01*
X128906396Y-77216000D01*
X127633604Y-77216000D01*
X127024266Y-76606662D01*
X126814685Y-76714882D01*
X126733695Y-77309952D01*
X125482600Y-77309952D01*
X125482600Y-75921734D01*
X127660662Y-75921734D01*
X127673192Y-75946000D01*
X127660662Y-75970266D01*
X127712478Y-76022082D01*
X127768882Y-76131315D01*
X127830034Y-76139638D01*
X128270000Y-76579604D01*
X128705171Y-76144433D01*
X128771118Y-76131315D01*
X128827522Y-76022082D01*
X128879338Y-75970266D01*
X128866808Y-75946000D01*
X128879338Y-75921734D01*
X128827522Y-75869918D01*
X128771118Y-75760685D01*
X128709966Y-75752362D01*
X128270000Y-75312396D01*
X127834829Y-75747567D01*
X127768882Y-75760685D01*
X127712478Y-75869918D01*
X127660662Y-75921734D01*
X125482600Y-75921734D01*
X125482600Y-74769952D01*
X126733695Y-74769952D01*
X126814685Y-75177118D01*
X127024266Y-75285338D01*
X127633604Y-74676000D01*
X127024266Y-74066662D01*
X126814685Y-74174882D01*
X126733695Y-74769952D01*
X125482600Y-74769952D01*
X125482600Y-70482600D01*
X127254992Y-70482600D01*
X126899465Y-70837507D01*
X126899465Y-70837507D01*
G37*
X126899465Y-70837507D02*
X126652681Y-71431828D01*
X126652119Y-72075349D01*
X126897866Y-72670100D01*
X127352507Y-73125535D01*
X127735825Y-73284703D01*
X127660662Y-73430266D01*
X128270000Y-74039604D01*
X128879338Y-73430266D01*
X128804101Y-73284560D01*
X129185100Y-73127134D01*
X129640535Y-72672493D01*
X129887319Y-72078172D01*
X129887881Y-71434651D01*
X129642134Y-70839900D01*
X129285457Y-70482600D01*
X165989992Y-70482600D01*
X165634465Y-70837507D01*
X165387681Y-71431828D01*
X165387119Y-72075349D01*
X165632866Y-72670100D01*
X166087507Y-73125535D01*
X166470825Y-73284703D01*
X166395662Y-73430266D01*
X167005000Y-74039604D01*
X167614338Y-73430266D01*
X167539101Y-73284560D01*
X167920100Y-73127134D01*
X168375535Y-72672493D01*
X168622319Y-72078172D01*
X168622881Y-71434651D01*
X168377134Y-70839900D01*
X168020457Y-70482600D01*
X169517400Y-70482600D01*
X169517400Y-119517400D01*
X162099066Y-119517400D01*
X162159600Y-119371257D01*
X162159600Y-118685800D01*
X162007200Y-118533400D01*
X161400000Y-118533400D01*
X161400000Y-118553400D01*
X161100000Y-118553400D01*
X161100000Y-118533400D01*
X160950000Y-118533400D01*
X160950000Y-117466600D01*
X161100000Y-117466600D01*
X161100000Y-116292800D01*
X161400000Y-116292800D01*
X161400000Y-117466600D01*
X162007200Y-117466600D01*
X162159600Y-117314200D01*
X162159600Y-116628743D01*
X162066794Y-116404689D01*
X161895311Y-116233206D01*
X161671257Y-116140400D01*
X161552400Y-116140400D01*
X161400000Y-116292800D01*
X161100000Y-116292800D01*
X160947600Y-116140400D01*
X160859600Y-116140400D01*
X160859600Y-115564659D01*
X163209182Y-115564659D01*
X163399933Y-116026311D01*
X163752831Y-116379825D01*
X164214150Y-116571382D01*
X164713659Y-116571818D01*
X165175311Y-116381067D01*
X165528825Y-116028169D01*
X165720382Y-115566850D01*
X165720383Y-115564659D01*
X165749182Y-115564659D01*
X165939933Y-116026311D01*
X166292831Y-116379825D01*
X166754150Y-116571382D01*
X167253659Y-116571818D01*
X167715311Y-116381067D01*
X168068825Y-116028169D01*
X168260382Y-115566850D01*
X168260818Y-115067341D01*
X168070067Y-114605689D01*
X167717169Y-114252175D01*
X167255850Y-114060618D01*
X166756341Y-114060182D01*
X166294689Y-114250933D01*
X165941175Y-114603831D01*
X165749618Y-115065150D01*
X165749182Y-115564659D01*
X165720383Y-115564659D01*
X165720818Y-115067341D01*
X165530067Y-114605689D01*
X165177169Y-114252175D01*
X164715850Y-114060618D01*
X164216341Y-114060182D01*
X163754689Y-114250933D01*
X163401175Y-114603831D01*
X163209618Y-115065150D01*
X163209182Y-115564659D01*
X160859600Y-115564659D01*
X160859600Y-114715923D01*
X161340052Y-114235471D01*
X161376313Y-114181203D01*
X161422103Y-114135493D01*
X161447133Y-114075214D01*
X161472197Y-114037703D01*
X161480922Y-113993842D01*
X161514494Y-113912990D01*
X161514571Y-113824674D01*
X161518600Y-113804419D01*
X161518600Y-113131600D01*
X161635353Y-113131600D01*
X161650000Y-113134566D01*
X162200000Y-113134566D01*
X162215763Y-113131600D01*
X162433000Y-113131600D01*
X162666284Y-113085197D01*
X162864052Y-112953052D01*
X163090112Y-112726993D01*
X163209598Y-112548169D01*
X163209182Y-113024659D01*
X163399933Y-113486311D01*
X163752831Y-113839825D01*
X164214150Y-114031382D01*
X164713659Y-114031818D01*
X165175311Y-113841067D01*
X165528825Y-113488169D01*
X165720382Y-113026850D01*
X165720383Y-113024659D01*
X165749182Y-113024659D01*
X165939933Y-113486311D01*
X166292831Y-113839825D01*
X166754150Y-114031382D01*
X167253659Y-114031818D01*
X167715311Y-113841067D01*
X168068825Y-113488169D01*
X168260382Y-113026850D01*
X168260818Y-112527341D01*
X168070067Y-112065689D01*
X167717169Y-111712175D01*
X167255850Y-111520618D01*
X166756341Y-111520182D01*
X166294689Y-111710933D01*
X165941175Y-112063831D01*
X165749618Y-112525150D01*
X165749182Y-113024659D01*
X165720383Y-113024659D01*
X165720818Y-112527341D01*
X165530067Y-112065689D01*
X165177169Y-111712175D01*
X164715850Y-111520618D01*
X164216341Y-111520182D01*
X163754689Y-111710933D01*
X163401175Y-112063831D01*
X163235433Y-112462982D01*
X163268659Y-112295941D01*
X163268659Y-110628604D01*
X163399933Y-110946311D01*
X163752831Y-111299825D01*
X164214150Y-111491382D01*
X164713659Y-111491818D01*
X165175311Y-111301067D01*
X165528825Y-110948169D01*
X165720382Y-110486850D01*
X165720383Y-110484659D01*
X165749182Y-110484659D01*
X165939933Y-110946311D01*
X166292831Y-111299825D01*
X166754150Y-111491382D01*
X167253659Y-111491818D01*
X167715311Y-111301067D01*
X168068825Y-110948169D01*
X168260382Y-110486850D01*
X168260818Y-109987341D01*
X168070067Y-109525689D01*
X167717169Y-109172175D01*
X167255850Y-108980618D01*
X166756341Y-108980182D01*
X166294689Y-109170933D01*
X165941175Y-109523831D01*
X165749618Y-109985150D01*
X165749182Y-110484659D01*
X165720383Y-110484659D01*
X165720818Y-109987341D01*
X165530067Y-109525689D01*
X165177169Y-109172175D01*
X164715850Y-108980618D01*
X164216341Y-108980182D01*
X163754689Y-109170933D01*
X163401175Y-109523831D01*
X163217119Y-109967086D01*
X163169326Y-109895561D01*
X163090112Y-109777007D01*
X162452666Y-109139562D01*
X162452666Y-108525739D01*
X162606894Y-108371511D01*
X162699700Y-108147457D01*
X162699700Y-107944659D01*
X163209182Y-107944659D01*
X163399933Y-108406311D01*
X163752831Y-108759825D01*
X164214150Y-108951382D01*
X164713659Y-108951818D01*
X165175311Y-108761067D01*
X165528825Y-108408169D01*
X165720382Y-107946850D01*
X165720383Y-107944659D01*
X165749182Y-107944659D01*
X165939933Y-108406311D01*
X166292831Y-108759825D01*
X166754150Y-108951382D01*
X167253659Y-108951818D01*
X167715311Y-108761067D01*
X168068825Y-108408169D01*
X168260382Y-107946850D01*
X168260818Y-107447341D01*
X168070067Y-106985689D01*
X167717169Y-106632175D01*
X167255850Y-106440618D01*
X166756341Y-106440182D01*
X166294689Y-106630933D01*
X165941175Y-106983831D01*
X165749618Y-107445150D01*
X165749182Y-107944659D01*
X165720383Y-107944659D01*
X165720818Y-107447341D01*
X165530067Y-106985689D01*
X165177169Y-106632175D01*
X164715850Y-106440618D01*
X164216341Y-106440182D01*
X163754689Y-106630933D01*
X163401175Y-106983831D01*
X163209618Y-107445150D01*
X163209182Y-107944659D01*
X162699700Y-107944659D01*
X162699700Y-107886500D01*
X162547300Y-107734100D01*
X161690050Y-107734100D01*
X161690050Y-107995400D01*
X160889950Y-107995400D01*
X160889950Y-107734100D01*
X160736600Y-107734100D01*
X160736600Y-107149900D01*
X160889950Y-107149900D01*
X160889950Y-106400600D01*
X161690050Y-106400600D01*
X161690050Y-107149900D01*
X162547300Y-107149900D01*
X162699700Y-106997500D01*
X162699700Y-106736543D01*
X162606894Y-106512489D01*
X162435411Y-106341006D01*
X162211357Y-106248200D01*
X161842450Y-106248200D01*
X161690050Y-106400600D01*
X160889950Y-106400600D01*
X160737550Y-106248200D01*
X160368643Y-106248200D01*
X160144589Y-106341006D01*
X160131782Y-106353813D01*
X160131782Y-105404659D01*
X163209182Y-105404659D01*
X163399933Y-105866311D01*
X163752831Y-106219825D01*
X164214150Y-106411382D01*
X164713659Y-106411818D01*
X165175311Y-106221067D01*
X165528825Y-105868169D01*
X165720382Y-105406850D01*
X165720383Y-105404659D01*
X165749182Y-105404659D01*
X165939933Y-105866311D01*
X166292831Y-106219825D01*
X166754150Y-106411382D01*
X167253659Y-106411818D01*
X167715311Y-106221067D01*
X168068825Y-105868169D01*
X168260382Y-105406850D01*
X168260818Y-104907341D01*
X168070067Y-104445689D01*
X167717169Y-104092175D01*
X167255850Y-103900618D01*
X166756341Y-103900182D01*
X166294689Y-104090933D01*
X165941175Y-104443831D01*
X165749618Y-104905150D01*
X165749182Y-105404659D01*
X165720383Y-105404659D01*
X165720818Y-104907341D01*
X165530067Y-104445689D01*
X165177169Y-104092175D01*
X164715850Y-103900618D01*
X164216341Y-103900182D01*
X163754689Y-104090933D01*
X163401175Y-104443831D01*
X163209618Y-104905150D01*
X163209182Y-105404659D01*
X160131782Y-105404659D01*
X160131782Y-102864659D01*
X163209182Y-102864659D01*
X163399933Y-103326311D01*
X163752831Y-103679825D01*
X164214150Y-103871382D01*
X164713659Y-103871818D01*
X165175311Y-103681067D01*
X165528825Y-103328169D01*
X165720382Y-102866850D01*
X165720383Y-102864659D01*
X165749182Y-102864659D01*
X165939933Y-103326311D01*
X166292831Y-103679825D01*
X166754150Y-103871382D01*
X167253659Y-103871818D01*
X167715311Y-103681067D01*
X168068825Y-103328169D01*
X168260382Y-102866850D01*
X168260818Y-102367341D01*
X168070067Y-101905689D01*
X167717169Y-101552175D01*
X167255850Y-101360618D01*
X166756341Y-101360182D01*
X166294689Y-101550933D01*
X165941175Y-101903831D01*
X165749618Y-102365150D01*
X165749182Y-102864659D01*
X165720383Y-102864659D01*
X165720818Y-102367341D01*
X165530067Y-101905689D01*
X165177169Y-101552175D01*
X164715850Y-101360618D01*
X164216341Y-101360182D01*
X163754689Y-101550933D01*
X163401175Y-101903831D01*
X163209618Y-102365150D01*
X163209182Y-102864659D01*
X160131782Y-102864659D01*
X160131782Y-100324659D01*
X163209182Y-100324659D01*
X163399933Y-100786311D01*
X163752831Y-101139825D01*
X164214150Y-101331382D01*
X164713659Y-101331818D01*
X165175311Y-101141067D01*
X165528825Y-100788169D01*
X165720382Y-100326850D01*
X165720383Y-100324659D01*
X165749182Y-100324659D01*
X165939933Y-100786311D01*
X166292831Y-101139825D01*
X166754150Y-101331382D01*
X167253659Y-101331818D01*
X167715311Y-101141067D01*
X168068825Y-100788169D01*
X168260382Y-100326850D01*
X168260818Y-99827341D01*
X168070067Y-99365689D01*
X167717169Y-99012175D01*
X167255850Y-98820618D01*
X166756341Y-98820182D01*
X166294689Y-99010933D01*
X165941175Y-99363831D01*
X165749618Y-99825150D01*
X165749182Y-100324659D01*
X165720383Y-100324659D01*
X165720818Y-99827341D01*
X165530067Y-99365689D01*
X165177169Y-99012175D01*
X164715850Y-98820618D01*
X164216341Y-98820182D01*
X163754689Y-99010933D01*
X163401175Y-99363831D01*
X163209618Y-99825150D01*
X163209182Y-100324659D01*
X160131782Y-100324659D01*
X160131782Y-97784659D01*
X163209182Y-97784659D01*
X163399933Y-98246311D01*
X163752831Y-98599825D01*
X164214150Y-98791382D01*
X164713659Y-98791818D01*
X165175311Y-98601067D01*
X165528825Y-98248169D01*
X165720382Y-97786850D01*
X165720383Y-97784659D01*
X165749182Y-97784659D01*
X165939933Y-98246311D01*
X166292831Y-98599825D01*
X166754150Y-98791382D01*
X167253659Y-98791818D01*
X167715311Y-98601067D01*
X168068825Y-98248169D01*
X168260382Y-97786850D01*
X168260818Y-97287341D01*
X168070067Y-96825689D01*
X167717169Y-96472175D01*
X167255850Y-96280618D01*
X166756341Y-96280182D01*
X166294689Y-96470933D01*
X165941175Y-96823831D01*
X165749618Y-97285150D01*
X165749182Y-97784659D01*
X165720383Y-97784659D01*
X165720818Y-97287341D01*
X165530067Y-96825689D01*
X165177169Y-96472175D01*
X164715850Y-96280618D01*
X164216341Y-96280182D01*
X163754689Y-96470933D01*
X163401175Y-96823831D01*
X163209618Y-97285150D01*
X163209182Y-97784659D01*
X160131782Y-97784659D01*
X160131782Y-95244659D01*
X163209182Y-95244659D01*
X163399933Y-95706311D01*
X163752831Y-96059825D01*
X164214150Y-96251382D01*
X164713659Y-96251818D01*
X165175311Y-96061067D01*
X165528825Y-95708169D01*
X165720382Y-95246850D01*
X165720383Y-95244659D01*
X165749182Y-95244659D01*
X165939933Y-95706311D01*
X166292831Y-96059825D01*
X166754150Y-96251382D01*
X167253659Y-96251818D01*
X167715311Y-96061067D01*
X168068825Y-95708169D01*
X168260382Y-95246850D01*
X168260818Y-94747341D01*
X168070067Y-94285689D01*
X167717169Y-93932175D01*
X167255850Y-93740618D01*
X166756341Y-93740182D01*
X166294689Y-93930933D01*
X165941175Y-94283831D01*
X165749618Y-94745150D01*
X165749182Y-95244659D01*
X165720383Y-95244659D01*
X165720818Y-94747341D01*
X165530067Y-94285689D01*
X165177169Y-93932175D01*
X164715850Y-93740618D01*
X164216341Y-93740182D01*
X163754689Y-93930933D01*
X163401175Y-94283831D01*
X163209618Y-94745150D01*
X163209182Y-95244659D01*
X160131782Y-95244659D01*
X160131782Y-92704659D01*
X163209182Y-92704659D01*
X163399933Y-93166311D01*
X163752831Y-93519825D01*
X164214150Y-93711382D01*
X164713659Y-93711818D01*
X165175311Y-93521067D01*
X165528825Y-93168169D01*
X165720382Y-92706850D01*
X165720383Y-92704659D01*
X165749182Y-92704659D01*
X165939933Y-93166311D01*
X166292831Y-93519825D01*
X166754150Y-93711382D01*
X167253659Y-93711818D01*
X167715311Y-93521067D01*
X168068825Y-93168169D01*
X168260382Y-92706850D01*
X168260818Y-92207341D01*
X168070067Y-91745689D01*
X167717169Y-91392175D01*
X167255850Y-91200618D01*
X166756341Y-91200182D01*
X166294689Y-91390933D01*
X165941175Y-91743831D01*
X165749618Y-92205150D01*
X165749182Y-92704659D01*
X165720383Y-92704659D01*
X165720818Y-92207341D01*
X165530067Y-91745689D01*
X165177169Y-91392175D01*
X164715850Y-91200618D01*
X164216341Y-91200182D01*
X163754689Y-91390933D01*
X163401175Y-91743831D01*
X163209618Y-92205150D01*
X163209182Y-92704659D01*
X160131782Y-92704659D01*
X160131782Y-90164659D01*
X163209182Y-90164659D01*
X163399933Y-90626311D01*
X163752831Y-90979825D01*
X164214150Y-91171382D01*
X164713659Y-91171818D01*
X165175311Y-90981067D01*
X165528825Y-90628169D01*
X165720382Y-90166850D01*
X165720383Y-90164659D01*
X165749182Y-90164659D01*
X165939933Y-90626311D01*
X166292831Y-90979825D01*
X166754150Y-91171382D01*
X167253659Y-91171818D01*
X167715311Y-90981067D01*
X168068825Y-90628169D01*
X168260382Y-90166850D01*
X168260818Y-89667341D01*
X168070067Y-89205689D01*
X167717169Y-88852175D01*
X167255850Y-88660618D01*
X166756341Y-88660182D01*
X166294689Y-88850933D01*
X165941175Y-89203831D01*
X165749618Y-89665150D01*
X165749182Y-90164659D01*
X165720383Y-90164659D01*
X165720818Y-89667341D01*
X165530067Y-89205689D01*
X165177169Y-88852175D01*
X164715850Y-88660618D01*
X164216341Y-88660182D01*
X163754689Y-88850933D01*
X163401175Y-89203831D01*
X163209618Y-89665150D01*
X163209182Y-90164659D01*
X160131782Y-90164659D01*
X160131782Y-87918718D01*
X160187685Y-87862913D01*
X160280076Y-87640410D01*
X160280089Y-87624659D01*
X163209182Y-87624659D01*
X163399933Y-88086311D01*
X163752831Y-88439825D01*
X164214150Y-88631382D01*
X164713659Y-88631818D01*
X165175311Y-88441067D01*
X165528825Y-88088169D01*
X165720382Y-87626850D01*
X165720383Y-87624659D01*
X165749182Y-87624659D01*
X165939933Y-88086311D01*
X166292831Y-88439825D01*
X166754150Y-88631382D01*
X167253659Y-88631818D01*
X167715311Y-88441067D01*
X168068825Y-88088169D01*
X168260382Y-87626850D01*
X168260818Y-87127341D01*
X168070067Y-86665689D01*
X167717169Y-86312175D01*
X167255850Y-86120618D01*
X166756341Y-86120182D01*
X166294689Y-86310933D01*
X165941175Y-86663831D01*
X165749618Y-87125150D01*
X165749182Y-87624659D01*
X165720383Y-87624659D01*
X165720818Y-87127341D01*
X165530067Y-86665689D01*
X165177169Y-86312175D01*
X164715850Y-86120618D01*
X164216341Y-86120182D01*
X163754689Y-86310933D01*
X163401175Y-86663831D01*
X163209618Y-87125150D01*
X163209182Y-87624659D01*
X160280089Y-87624659D01*
X160280286Y-87399487D01*
X160188284Y-87176824D01*
X160018075Y-87006317D01*
X159795572Y-86913926D01*
X159554649Y-86913716D01*
X159331986Y-87005718D01*
X159161479Y-87175927D01*
X159069088Y-87398430D01*
X159068878Y-87639353D01*
X159093749Y-87699545D01*
X157073600Y-85679397D01*
X157073600Y-85084659D01*
X163209182Y-85084659D01*
X163399933Y-85546311D01*
X163752831Y-85899825D01*
X164214150Y-86091382D01*
X164713659Y-86091818D01*
X165175311Y-85901067D01*
X165528825Y-85548169D01*
X165720382Y-85086850D01*
X165720383Y-85084659D01*
X165749182Y-85084659D01*
X165939933Y-85546311D01*
X166292831Y-85899825D01*
X166754150Y-86091382D01*
X167253659Y-86091818D01*
X167715311Y-85901067D01*
X168068825Y-85548169D01*
X168260382Y-85086850D01*
X168260818Y-84587341D01*
X168070067Y-84125689D01*
X167717169Y-83772175D01*
X167534511Y-83696329D01*
X167614338Y-83541734D01*
X167005000Y-82932396D01*
X166395662Y-83541734D01*
X166475446Y-83696246D01*
X166294689Y-83770933D01*
X165941175Y-84123831D01*
X165749618Y-84585150D01*
X165749182Y-85084659D01*
X165720383Y-85084659D01*
X165720818Y-84587341D01*
X165530067Y-84125689D01*
X165177169Y-83772175D01*
X164715850Y-83580618D01*
X164216341Y-83580182D01*
X163754689Y-83770933D01*
X163401175Y-84123831D01*
X163209618Y-84585150D01*
X163209182Y-85084659D01*
X157073600Y-85084659D01*
X157073600Y-84324325D01*
X158237016Y-84324325D01*
X158561116Y-84693799D01*
X159773998Y-85023772D01*
X161020831Y-84864477D01*
X161432884Y-84693799D01*
X161756984Y-84324325D01*
X159997000Y-82564342D01*
X158237016Y-84324325D01*
X157073600Y-84324325D01*
X157073600Y-83150279D01*
X157113201Y-83245884D01*
X157482675Y-83569984D01*
X159242658Y-81810000D01*
X160751342Y-81810000D01*
X162511325Y-83569984D01*
X162880799Y-83245884D01*
X163071572Y-82544659D01*
X163209182Y-82544659D01*
X163399933Y-83006311D01*
X163752831Y-83359825D01*
X164214150Y-83551382D01*
X164713659Y-83551818D01*
X165175311Y-83361067D01*
X165528825Y-83008169D01*
X165604671Y-82825511D01*
X165759266Y-82905338D01*
X166368604Y-82296000D01*
X167641396Y-82296000D01*
X168250734Y-82905338D01*
X168460315Y-82797118D01*
X168541305Y-82202048D01*
X168460315Y-81794882D01*
X168250734Y-81686662D01*
X167641396Y-82296000D01*
X166368604Y-82296000D01*
X165759266Y-81686662D01*
X165604754Y-81766446D01*
X165530067Y-81585689D01*
X165177169Y-81232175D01*
X164715850Y-81040618D01*
X164216341Y-81040182D01*
X163754689Y-81230933D01*
X163401175Y-81583831D01*
X163209618Y-82045150D01*
X163209182Y-82544659D01*
X163071572Y-82544659D01*
X163210772Y-82033002D01*
X163051477Y-80786169D01*
X162880799Y-80374116D01*
X162511325Y-80050016D01*
X160751342Y-81810000D01*
X159242658Y-81810000D01*
X157482675Y-80050016D01*
X157113201Y-80374116D01*
X157073600Y-80519677D01*
X157073600Y-79295675D01*
X158237016Y-79295675D01*
X159997000Y-81055658D01*
X161047999Y-80004659D01*
X163209182Y-80004659D01*
X163399933Y-80466311D01*
X163752831Y-80819825D01*
X164214150Y-81011382D01*
X164713659Y-81011818D01*
X165175311Y-80821067D01*
X165528825Y-80468169D01*
X165720382Y-80006850D01*
X165720383Y-80004659D01*
X165749182Y-80004659D01*
X165939933Y-80466311D01*
X166292831Y-80819825D01*
X166475489Y-80895671D01*
X166395662Y-81050266D01*
X167005000Y-81659604D01*
X167614338Y-81050266D01*
X167534554Y-80895754D01*
X167715311Y-80821067D01*
X168068825Y-80468169D01*
X168260382Y-80006850D01*
X168260818Y-79507341D01*
X168070067Y-79045689D01*
X167717169Y-78692175D01*
X167534511Y-78616329D01*
X167614338Y-78461734D01*
X167005000Y-77852396D01*
X166395662Y-78461734D01*
X166475446Y-78616246D01*
X166294689Y-78690933D01*
X165941175Y-79043831D01*
X165749618Y-79505150D01*
X165749182Y-80004659D01*
X165720383Y-80004659D01*
X165720818Y-79507341D01*
X165530067Y-79045689D01*
X165177169Y-78692175D01*
X164715850Y-78500618D01*
X164216341Y-78500182D01*
X163754689Y-78690933D01*
X163401175Y-79043831D01*
X163209618Y-79505150D01*
X163209182Y-80004659D01*
X161047999Y-80004659D01*
X161756984Y-79295675D01*
X161432884Y-78926201D01*
X160220002Y-78596228D01*
X158973169Y-78755523D01*
X158561116Y-78926201D01*
X158237016Y-79295675D01*
X157073600Y-79295675D01*
X157073600Y-77464659D01*
X163209182Y-77464659D01*
X163399933Y-77926311D01*
X163752831Y-78279825D01*
X164214150Y-78471382D01*
X164713659Y-78471818D01*
X165175311Y-78281067D01*
X165528825Y-77928169D01*
X165604671Y-77745511D01*
X165759266Y-77825338D01*
X166368604Y-77216000D01*
X167641396Y-77216000D01*
X168250734Y-77825338D01*
X168460315Y-77717118D01*
X168541305Y-77122048D01*
X168460315Y-76714882D01*
X168250734Y-76606662D01*
X167641396Y-77216000D01*
X166368604Y-77216000D01*
X165759266Y-76606662D01*
X165604754Y-76686446D01*
X165530067Y-76505689D01*
X165177169Y-76152175D01*
X164715850Y-75960618D01*
X164216341Y-75960182D01*
X163754689Y-76150933D01*
X163401175Y-76503831D01*
X163209618Y-76965150D01*
X163209182Y-77464659D01*
X157073600Y-77464659D01*
X157073600Y-75921734D01*
X166395662Y-75921734D01*
X166408192Y-75946000D01*
X166395662Y-75970266D01*
X166447478Y-76022082D01*
X166503882Y-76131315D01*
X166565034Y-76139638D01*
X167005000Y-76579604D01*
X167440171Y-76144433D01*
X167506118Y-76131315D01*
X167562522Y-76022082D01*
X167614338Y-75970266D01*
X167601808Y-75946000D01*
X167614338Y-75921734D01*
X167562522Y-75869918D01*
X167506118Y-75760685D01*
X167444966Y-75752362D01*
X167005000Y-75312396D01*
X166569829Y-75747567D01*
X166503882Y-75760685D01*
X166447478Y-75869918D01*
X166395662Y-75921734D01*
X157073600Y-75921734D01*
X157073600Y-75184000D01*
X157065635Y-75143958D01*
X157065748Y-75014557D01*
X157015897Y-74893908D01*
X157007862Y-74853515D01*
X156985181Y-74819570D01*
X156935765Y-74699975D01*
X156843538Y-74607587D01*
X156820657Y-74573343D01*
X156786712Y-74550662D01*
X156695291Y-74459081D01*
X156574729Y-74409019D01*
X156540485Y-74386138D01*
X156500444Y-74378173D01*
X156380936Y-74328549D01*
X156250395Y-74328435D01*
X156210000Y-74320400D01*
X156169958Y-74328365D01*
X156040557Y-74328252D01*
X155919908Y-74378103D01*
X155879515Y-74386138D01*
X155845570Y-74408819D01*
X155725975Y-74458235D01*
X155633587Y-74550462D01*
X155599343Y-74573343D01*
X155576662Y-74607288D01*
X155485081Y-74698709D01*
X155435019Y-74819271D01*
X155412138Y-74853515D01*
X155404173Y-74893556D01*
X155354549Y-75013064D01*
X155354435Y-75143605D01*
X155346400Y-75184000D01*
X155346400Y-86037111D01*
X155400867Y-86310933D01*
X155412138Y-86367596D01*
X155599343Y-86647768D01*
X157985142Y-89033568D01*
X157985142Y-105334543D01*
X157631343Y-105688343D01*
X157444138Y-105968515D01*
X157440706Y-105985769D01*
X157433579Y-105996435D01*
X157391685Y-106207052D01*
X157348223Y-106215230D01*
X157227193Y-106293110D01*
X157145999Y-106411942D01*
X157117434Y-106553000D01*
X157117434Y-107262500D01*
X156699566Y-107680368D01*
X156699566Y-106553000D01*
X156674770Y-106421223D01*
X156596890Y-106300193D01*
X156478058Y-106218999D01*
X156337000Y-106190434D01*
X156184600Y-106190434D01*
X156184600Y-106006670D01*
X156178485Y-105975928D01*
X156178561Y-105888880D01*
X156145026Y-105807720D01*
X156138197Y-105773386D01*
X156118919Y-105744535D01*
X156086559Y-105666217D01*
X156026161Y-105605714D01*
X156006052Y-105575618D01*
X155976220Y-105555685D01*
X155916350Y-105495710D01*
X155837398Y-105462926D01*
X155808284Y-105443473D01*
X155797271Y-105441282D01*
X157260815Y-103977738D01*
X157359924Y-103829412D01*
X157394726Y-103654449D01*
X157394726Y-89809284D01*
X157450629Y-89753479D01*
X157543020Y-89530976D01*
X157543230Y-89290053D01*
X157451228Y-89067390D01*
X157281019Y-88896883D01*
X157058516Y-88804492D01*
X156817593Y-88804282D01*
X156594930Y-88896284D01*
X156424423Y-89066493D01*
X156332032Y-89288996D01*
X156331822Y-89529919D01*
X156423824Y-89752582D01*
X156480326Y-89809183D01*
X156480326Y-103465071D01*
X154230837Y-105714560D01*
X154254327Y-105657990D01*
X154254537Y-105417067D01*
X154162535Y-105194404D01*
X153992326Y-105023897D01*
X153769823Y-104931506D01*
X153528900Y-104931296D01*
X153306237Y-105023298D01*
X153135730Y-105193507D01*
X153043339Y-105416010D01*
X153043269Y-105495985D01*
X152527883Y-106011372D01*
X152495347Y-105932629D01*
X152438845Y-105876028D01*
X152438845Y-104241728D01*
X152491784Y-104263710D01*
X152732707Y-104263920D01*
X152955370Y-104171918D01*
X153125877Y-104001709D01*
X153218268Y-103779206D01*
X153218478Y-103538283D01*
X153126476Y-103315620D01*
X153069974Y-103259019D01*
X153069974Y-102985640D01*
X153219369Y-103047674D01*
X153460292Y-103047884D01*
X153682955Y-102955882D01*
X153853462Y-102785673D01*
X153945853Y-102563170D01*
X153946063Y-102322247D01*
X153854061Y-102099584D01*
X153683852Y-101929077D01*
X153476385Y-101842929D01*
X153476385Y-101275828D01*
X153478261Y-101276607D01*
X153719184Y-101276817D01*
X153941847Y-101184815D01*
X154112354Y-101014606D01*
X154204745Y-100792103D01*
X154204955Y-100551180D01*
X154112953Y-100328517D01*
X154056451Y-100271916D01*
X154056451Y-99732625D01*
X154021649Y-99557662D01*
X153922540Y-99409336D01*
X153914352Y-99401148D01*
X153914352Y-96868674D01*
X153925270Y-96873208D01*
X154166193Y-96873418D01*
X154225279Y-96849004D01*
X154225279Y-98357559D01*
X154169376Y-98413364D01*
X154076985Y-98635867D01*
X154076775Y-98876790D01*
X154168777Y-99099453D01*
X154338986Y-99269960D01*
X154561489Y-99362351D01*
X154802412Y-99362561D01*
X155025075Y-99270559D01*
X155195582Y-99100350D01*
X155287973Y-98877847D01*
X155288183Y-98636924D01*
X155196181Y-98414261D01*
X155139679Y-98357660D01*
X155139679Y-78599132D01*
X155104877Y-78424169D01*
X155005768Y-78275843D01*
X154162665Y-77432740D01*
X154014339Y-77333631D01*
X153839376Y-77298829D01*
X149319971Y-77298829D01*
X149145008Y-77333631D01*
X149035858Y-77406563D01*
X148844000Y-77368400D01*
X148513515Y-77434138D01*
X148233343Y-77621342D01*
X147640375Y-78214311D01*
X147533949Y-78214218D01*
X147145832Y-78374584D01*
X146848628Y-78671270D01*
X146687584Y-79059107D01*
X146687218Y-79479051D01*
X146847584Y-79867168D01*
X147144270Y-80164372D01*
X147532107Y-80325416D01*
X147952051Y-80325782D01*
X148340168Y-80165416D01*
X148637372Y-79868730D01*
X148785631Y-79511684D01*
X148973353Y-79323961D01*
X148973218Y-79479051D01*
X149133584Y-79867168D01*
X149430270Y-80164372D01*
X149818107Y-80325416D01*
X150238051Y-80325782D01*
X150626168Y-80165416D01*
X150923372Y-79868730D01*
X151084416Y-79480893D01*
X151084455Y-79435859D01*
X151259408Y-79260906D01*
X151259218Y-79479051D01*
X151419584Y-79867168D01*
X151716270Y-80164372D01*
X152104107Y-80325416D01*
X152524051Y-80325782D01*
X152912168Y-80165416D01*
X153209372Y-79868730D01*
X153370416Y-79480893D01*
X153370782Y-79060949D01*
X153220284Y-78696714D01*
X153361136Y-78696714D01*
X153794987Y-79130566D01*
X153794987Y-94223131D01*
X153780441Y-94201362D01*
X152457200Y-92878121D01*
X152457200Y-90759566D01*
X152508000Y-90759566D01*
X152639777Y-90734770D01*
X152760807Y-90656890D01*
X152842001Y-90538058D01*
X152870566Y-90397000D01*
X152870566Y-89381000D01*
X152845770Y-89249223D01*
X152767890Y-89128193D01*
X152649058Y-89046999D01*
X152508000Y-89018434D01*
X151492000Y-89018434D01*
X151360223Y-89043230D01*
X151248633Y-89115035D01*
X151149058Y-89046999D01*
X151008000Y-89018434D01*
X149992000Y-89018434D01*
X149860223Y-89043230D01*
X149748633Y-89115035D01*
X149649058Y-89046999D01*
X149508000Y-89018434D01*
X148492000Y-89018434D01*
X148360223Y-89043230D01*
X148239193Y-89121110D01*
X148157999Y-89239942D01*
X148129434Y-89381000D01*
X148129434Y-90371856D01*
X147870566Y-90112988D01*
X147870566Y-89381000D01*
X147845770Y-89249223D01*
X147767890Y-89128193D01*
X147649058Y-89046999D01*
X147508000Y-89018434D01*
X146492000Y-89018434D01*
X146360223Y-89043230D01*
X146248633Y-89115035D01*
X146149058Y-89046999D01*
X146008000Y-89018434D01*
X144992000Y-89018434D01*
X144860223Y-89043230D01*
X144748633Y-89115035D01*
X144649058Y-89046999D01*
X144508000Y-89018434D01*
X143492000Y-89018434D01*
X143360223Y-89043230D01*
X143239193Y-89121110D01*
X143157999Y-89239942D01*
X143129434Y-89381000D01*
X143129434Y-90244601D01*
X143018111Y-90244601D01*
X142870566Y-90097056D01*
X142870566Y-89381000D01*
X142845770Y-89249223D01*
X142767890Y-89128193D01*
X142649058Y-89046999D01*
X142508000Y-89018434D01*
X141492000Y-89018434D01*
X141360223Y-89043230D01*
X141248633Y-89115035D01*
X141149058Y-89046999D01*
X141008000Y-89018434D01*
X139992000Y-89018434D01*
X139860223Y-89043230D01*
X139748633Y-89115035D01*
X139649058Y-89046999D01*
X139508000Y-89018434D01*
X138492000Y-89018434D01*
X138360223Y-89043230D01*
X138239193Y-89121110D01*
X138157999Y-89239942D01*
X138129434Y-89381000D01*
X138129434Y-90397000D01*
X138154230Y-90528777D01*
X138232110Y-90649807D01*
X138350942Y-90731001D01*
X138492000Y-90759566D01*
X138983353Y-90759566D01*
X138906659Y-90836126D01*
X138814268Y-91058629D01*
X138814058Y-91299552D01*
X138906060Y-91522215D01*
X139076269Y-91692722D01*
X139298772Y-91785113D01*
X139400659Y-91785202D01*
X142417800Y-94802344D01*
X142417800Y-102986081D01*
X142311803Y-103144716D01*
X142265400Y-103378000D01*
X142265400Y-103878900D01*
X142237434Y-104017000D01*
X142237434Y-104517000D01*
X142262230Y-104648777D01*
X142278074Y-104673400D01*
X142241869Y-104673400D01*
X142239536Y-104672936D01*
X142081476Y-104672936D01*
X142079143Y-104673400D01*
X141949518Y-104673400D01*
X141960001Y-104658058D01*
X141988566Y-104517000D01*
X141988566Y-104017000D01*
X141963770Y-103885223D01*
X141885890Y-103764193D01*
X141767058Y-103682999D01*
X141626000Y-103654434D01*
X141076000Y-103654434D01*
X141060237Y-103657400D01*
X140751647Y-103657400D01*
X140737000Y-103654434D01*
X140187000Y-103654434D01*
X140182600Y-103655262D01*
X140182600Y-103378000D01*
X140136197Y-103144716D01*
X140030200Y-102986081D01*
X140030200Y-96273511D01*
X140032065Y-96264135D01*
X140032065Y-94123437D01*
X140086103Y-94069493D01*
X140178494Y-93846990D01*
X140178704Y-93606067D01*
X140086702Y-93383404D01*
X139916493Y-93212897D01*
X139693990Y-93120506D01*
X139453067Y-93120296D01*
X139230404Y-93212298D01*
X139059897Y-93382507D01*
X138967506Y-93605010D01*
X138967296Y-93845933D01*
X139059298Y-94068596D01*
X139117665Y-94127065D01*
X139117665Y-96256624D01*
X139115800Y-96266000D01*
X139115800Y-102986081D01*
X139009803Y-103144716D01*
X138963400Y-103378000D01*
X138963400Y-103878900D01*
X138935434Y-104017000D01*
X138935434Y-104517000D01*
X138938041Y-104530854D01*
X138781206Y-104687689D01*
X138688400Y-104911743D01*
X138688400Y-105005600D01*
X138840800Y-105158000D01*
X139435500Y-105158000D01*
X139435500Y-105033000D01*
X139710500Y-105033000D01*
X139710500Y-105158000D01*
X139824434Y-105158000D01*
X139824434Y-105408000D01*
X139710500Y-105408000D01*
X139710500Y-105990200D01*
X139852400Y-106132100D01*
X139852400Y-108312262D01*
X139831566Y-108291392D01*
X139441892Y-108129585D01*
X139019959Y-108129217D01*
X138630003Y-108290343D01*
X138331392Y-108588434D01*
X138234963Y-108820661D01*
X138139657Y-108590003D01*
X137841566Y-108291392D01*
X137451892Y-108129585D01*
X137029959Y-108129217D01*
X136640003Y-108290343D01*
X136372600Y-108557280D01*
X136372600Y-106410012D01*
X136785939Y-106400600D01*
X137287000Y-106400600D01*
X137307024Y-106396617D01*
X137406933Y-106396704D01*
X137500084Y-106358215D01*
X137520284Y-106354197D01*
X137537259Y-106342855D01*
X137629596Y-106304702D01*
X137700930Y-106233492D01*
X137718052Y-106222052D01*
X137729392Y-106205080D01*
X137800103Y-106134493D01*
X137838755Y-106041408D01*
X137850197Y-106024284D01*
X137854180Y-106004261D01*
X137892494Y-105911990D01*
X137892582Y-105811201D01*
X137896600Y-105791000D01*
X137896600Y-105671100D01*
X137919017Y-105560400D01*
X138688400Y-105560400D01*
X138688400Y-105654257D01*
X138781206Y-105878311D01*
X138952689Y-106049794D01*
X139176743Y-106142600D01*
X139283100Y-106142600D01*
X139435500Y-105990200D01*
X139435500Y-105408000D01*
X138840800Y-105408000D01*
X138688400Y-105560400D01*
X137919017Y-105560400D01*
X137924566Y-105533000D01*
X137924566Y-105033000D01*
X137921959Y-105019146D01*
X138078794Y-104862311D01*
X138171600Y-104638257D01*
X138171600Y-104544400D01*
X138019200Y-104392000D01*
X137424500Y-104392000D01*
X137424500Y-104517000D01*
X137149500Y-104517000D01*
X137149500Y-104392000D01*
X136554800Y-104392000D01*
X136402400Y-104544400D01*
X136402400Y-104638257D01*
X136416957Y-104673400D01*
X136372600Y-104673400D01*
X136372600Y-103895743D01*
X136402400Y-103895743D01*
X136402400Y-103989600D01*
X136554800Y-104142000D01*
X137149500Y-104142000D01*
X137149500Y-103559800D01*
X137424500Y-103559800D01*
X137424500Y-104142000D01*
X138019200Y-104142000D01*
X138171600Y-103989600D01*
X138171600Y-103895743D01*
X138078794Y-103671689D01*
X137907311Y-103500206D01*
X137683257Y-103407400D01*
X137576900Y-103407400D01*
X137424500Y-103559800D01*
X137149500Y-103559800D01*
X136997100Y-103407400D01*
X136890743Y-103407400D01*
X136666689Y-103500206D01*
X136495206Y-103671689D01*
X136402400Y-103895743D01*
X136372600Y-103895743D01*
X136372600Y-87733714D01*
X136503314Y-87603000D01*
X138129434Y-87603000D01*
X138129434Y-88619000D01*
X138154230Y-88750777D01*
X138232110Y-88871807D01*
X138350942Y-88953001D01*
X138492000Y-88981566D01*
X139508000Y-88981566D01*
X139545020Y-88974600D01*
X139957601Y-88974600D01*
X139992000Y-88981566D01*
X141008000Y-88981566D01*
X141045020Y-88974600D01*
X141457601Y-88974600D01*
X141492000Y-88981566D01*
X142508000Y-88981566D01*
X142639777Y-88956770D01*
X142760807Y-88878890D01*
X142842001Y-88760058D01*
X142870566Y-88619000D01*
X142870566Y-87603000D01*
X143129434Y-87603000D01*
X143129434Y-88619000D01*
X143154230Y-88750777D01*
X143232110Y-88871807D01*
X143350942Y-88953001D01*
X143492000Y-88981566D01*
X144508000Y-88981566D01*
X144545020Y-88974600D01*
X144957601Y-88974600D01*
X144992000Y-88981566D01*
X146008000Y-88981566D01*
X146045020Y-88974600D01*
X146457601Y-88974600D01*
X146492000Y-88981566D01*
X147508000Y-88981566D01*
X147639777Y-88956770D01*
X147760807Y-88878890D01*
X147842001Y-88760058D01*
X147870566Y-88619000D01*
X147870566Y-87603000D01*
X147845770Y-87471223D01*
X147767890Y-87350193D01*
X147649058Y-87268999D01*
X147508000Y-87240434D01*
X146492000Y-87240434D01*
X146454980Y-87247400D01*
X146320600Y-87247400D01*
X146320600Y-84979448D01*
X146351372Y-84948730D01*
X146512416Y-84560893D01*
X146512417Y-84559051D01*
X146687218Y-84559051D01*
X146847584Y-84947168D01*
X147144270Y-85244372D01*
X147532107Y-85405416D01*
X147577141Y-85405455D01*
X148141880Y-85970195D01*
X148141880Y-87541540D01*
X148129434Y-87603000D01*
X148129434Y-88619000D01*
X148154230Y-88750777D01*
X148232110Y-88871807D01*
X148350942Y-88953001D01*
X148492000Y-88981566D01*
X149508000Y-88981566D01*
X149545020Y-88974600D01*
X149957601Y-88974600D01*
X149992000Y-88981566D01*
X151008000Y-88981566D01*
X151045020Y-88974600D01*
X151457601Y-88974600D01*
X151492000Y-88981566D01*
X152508000Y-88981566D01*
X152639777Y-88956770D01*
X152760807Y-88878890D01*
X152842001Y-88760058D01*
X152870566Y-88619000D01*
X152870566Y-87603000D01*
X152845770Y-87471223D01*
X152767890Y-87350193D01*
X152649058Y-87268999D01*
X152508000Y-87240434D01*
X151492000Y-87240434D01*
X151454980Y-87247400D01*
X151042399Y-87247400D01*
X151008000Y-87240434D01*
X149992000Y-87240434D01*
X149954980Y-87247400D01*
X149869080Y-87247400D01*
X149869080Y-85612480D01*
X149827894Y-85405425D01*
X150238051Y-85405782D01*
X150260660Y-85396440D01*
X151763534Y-85396440D01*
X151840754Y-85598200D01*
X152354519Y-85684672D01*
X152789246Y-85598200D01*
X152866466Y-85396440D01*
X152315000Y-84844975D01*
X151763534Y-85396440D01*
X150260660Y-85396440D01*
X150626168Y-85245416D01*
X150923372Y-84948730D01*
X151037088Y-84674872D01*
X151066800Y-84824246D01*
X151268560Y-84901466D01*
X151820025Y-84350000D01*
X152809975Y-84350000D01*
X153361440Y-84901466D01*
X153563200Y-84824246D01*
X153649672Y-84310481D01*
X153563200Y-83875754D01*
X153361440Y-83798534D01*
X152809975Y-84350000D01*
X151820025Y-84350000D01*
X151268560Y-83798534D01*
X151066800Y-83875754D01*
X151040289Y-84033267D01*
X150924416Y-83752832D01*
X150627730Y-83455628D01*
X150261510Y-83303560D01*
X151763534Y-83303560D01*
X152315000Y-83855025D01*
X152866466Y-83303560D01*
X152789246Y-83101800D01*
X152275481Y-83015328D01*
X151840754Y-83101800D01*
X151763534Y-83303560D01*
X150261510Y-83303560D01*
X150239893Y-83294584D01*
X149819949Y-83294218D01*
X149431832Y-83454584D01*
X149134628Y-83751270D01*
X148973584Y-84139107D01*
X148973392Y-84359078D01*
X148798744Y-84184430D01*
X148798782Y-84140949D01*
X148638416Y-83752832D01*
X148341730Y-83455628D01*
X147953893Y-83294584D01*
X147533949Y-83294218D01*
X147145832Y-83454584D01*
X146848628Y-83751270D01*
X146687584Y-84139107D01*
X146687218Y-84559051D01*
X146512417Y-84559051D01*
X146512782Y-84140949D01*
X146352416Y-83752832D01*
X146055730Y-83455628D01*
X145667893Y-83294584D01*
X145247949Y-83294218D01*
X144859832Y-83454584D01*
X144562628Y-83751270D01*
X144401584Y-84139107D01*
X144401218Y-84559051D01*
X144561584Y-84947168D01*
X144593400Y-84979040D01*
X144593400Y-87247400D01*
X144542399Y-87247400D01*
X144508000Y-87240434D01*
X143492000Y-87240434D01*
X143360223Y-87265230D01*
X143239193Y-87343110D01*
X143157999Y-87461942D01*
X143129434Y-87603000D01*
X142870566Y-87603000D01*
X142850870Y-87498327D01*
X142850870Y-85891444D01*
X143336570Y-85405744D01*
X143380051Y-85405782D01*
X143768168Y-85245416D01*
X144065372Y-84948730D01*
X144226416Y-84560893D01*
X144226782Y-84140949D01*
X144066416Y-83752832D01*
X143769730Y-83455628D01*
X143381893Y-83294584D01*
X142961949Y-83294218D01*
X142573832Y-83454584D01*
X142276628Y-83751270D01*
X142115584Y-84139107D01*
X142115545Y-84184141D01*
X141376613Y-84923073D01*
X141189408Y-85203245D01*
X141123670Y-85533730D01*
X141123670Y-87247400D01*
X141042399Y-87247400D01*
X141008000Y-87240434D01*
X139992000Y-87240434D01*
X139954980Y-87247400D01*
X139542399Y-87247400D01*
X139508000Y-87240434D01*
X138492000Y-87240434D01*
X138360223Y-87265230D01*
X138239193Y-87343110D01*
X138157999Y-87461942D01*
X138129434Y-87603000D01*
X136503314Y-87603000D01*
X139915890Y-84190425D01*
X140103095Y-83910253D01*
X140134408Y-83752832D01*
X140168833Y-83579767D01*
X140168833Y-82856440D01*
X141476534Y-82856440D01*
X141553754Y-83058200D01*
X142067519Y-83144672D01*
X142502246Y-83058200D01*
X142579466Y-82856440D01*
X143762534Y-82856440D01*
X143839754Y-83058200D01*
X144353519Y-83144672D01*
X144788246Y-83058200D01*
X144865466Y-82856440D01*
X146048534Y-82856440D01*
X146125754Y-83058200D01*
X146639519Y-83144672D01*
X147074246Y-83058200D01*
X147151466Y-82856440D01*
X148334534Y-82856440D01*
X148411754Y-83058200D01*
X148925519Y-83144672D01*
X149360246Y-83058200D01*
X149437466Y-82856440D01*
X150620534Y-82856440D01*
X150697754Y-83058200D01*
X151211519Y-83144672D01*
X151646246Y-83058200D01*
X151723466Y-82856440D01*
X151172000Y-82304975D01*
X150620534Y-82856440D01*
X149437466Y-82856440D01*
X148886000Y-82304975D01*
X148334534Y-82856440D01*
X147151466Y-82856440D01*
X146600000Y-82304975D01*
X146048534Y-82856440D01*
X144865466Y-82856440D01*
X144314000Y-82304975D01*
X143762534Y-82856440D01*
X142579466Y-82856440D01*
X142028000Y-82304975D01*
X141476534Y-82856440D01*
X140168833Y-82856440D01*
X140168833Y-81849519D01*
X140693328Y-81849519D01*
X140779800Y-82284246D01*
X140981560Y-82361466D01*
X141533025Y-81810000D01*
X142522975Y-81810000D01*
X143074440Y-82361466D01*
X143171000Y-82324509D01*
X143267560Y-82361466D01*
X143819025Y-81810000D01*
X144808975Y-81810000D01*
X145360440Y-82361466D01*
X145457000Y-82324509D01*
X145553560Y-82361466D01*
X146105025Y-81810000D01*
X147094975Y-81810000D01*
X147646440Y-82361466D01*
X147743000Y-82324509D01*
X147839560Y-82361466D01*
X148391025Y-81810000D01*
X149380975Y-81810000D01*
X149932440Y-82361466D01*
X150029000Y-82324509D01*
X150125560Y-82361466D01*
X150677025Y-81810000D01*
X151666975Y-81810000D01*
X152218440Y-82361466D01*
X152420200Y-82284246D01*
X152506672Y-81770481D01*
X152420200Y-81335754D01*
X152218440Y-81258534D01*
X151666975Y-81810000D01*
X150677025Y-81810000D01*
X150125560Y-81258534D01*
X150029000Y-81295491D01*
X149932440Y-81258534D01*
X149380975Y-81810000D01*
X148391025Y-81810000D01*
X147839560Y-81258534D01*
X147743000Y-81295491D01*
X147646440Y-81258534D01*
X147094975Y-81810000D01*
X146105025Y-81810000D01*
X145553560Y-81258534D01*
X145457000Y-81295491D01*
X145360440Y-81258534D01*
X144808975Y-81810000D01*
X143819025Y-81810000D01*
X143267560Y-81258534D01*
X143171000Y-81295491D01*
X143074440Y-81258534D01*
X142522975Y-81810000D01*
X141533025Y-81810000D01*
X140981560Y-81258534D01*
X140779800Y-81335754D01*
X140693328Y-81849519D01*
X140168833Y-81849519D01*
X140168833Y-80763560D01*
X141476534Y-80763560D01*
X142028000Y-81315025D01*
X142579466Y-80763560D01*
X143762534Y-80763560D01*
X144314000Y-81315025D01*
X144865466Y-80763560D01*
X146048534Y-80763560D01*
X146600000Y-81315025D01*
X147151466Y-80763560D01*
X148334534Y-80763560D01*
X148886000Y-81315025D01*
X149437466Y-80763560D01*
X150620534Y-80763560D01*
X151172000Y-81315025D01*
X151723466Y-80763560D01*
X151646246Y-80561800D01*
X151132481Y-80475328D01*
X150697754Y-80561800D01*
X150620534Y-80763560D01*
X149437466Y-80763560D01*
X149360246Y-80561800D01*
X148846481Y-80475328D01*
X148411754Y-80561800D01*
X148334534Y-80763560D01*
X147151466Y-80763560D01*
X147074246Y-80561800D01*
X146560481Y-80475328D01*
X146125754Y-80561800D01*
X146048534Y-80763560D01*
X144865466Y-80763560D01*
X144788246Y-80561800D01*
X144274481Y-80475328D01*
X143839754Y-80561800D01*
X143762534Y-80763560D01*
X142579466Y-80763560D01*
X142502246Y-80561800D01*
X141988481Y-80475328D01*
X141553754Y-80561800D01*
X141476534Y-80763560D01*
X140168833Y-80763560D01*
X140168833Y-79479051D01*
X142115218Y-79479051D01*
X142275584Y-79867168D01*
X142572270Y-80164372D01*
X142960107Y-80325416D01*
X143380051Y-80325782D01*
X143768168Y-80165416D01*
X144065372Y-79868730D01*
X144226416Y-79480893D01*
X144226417Y-79479051D01*
X144401218Y-79479051D01*
X144561584Y-79867168D01*
X144858270Y-80164372D01*
X145246107Y-80325416D01*
X145666051Y-80325782D01*
X146054168Y-80165416D01*
X146351372Y-79868730D01*
X146512416Y-79480893D01*
X146512782Y-79060949D01*
X146352416Y-78672832D01*
X146055730Y-78375628D01*
X145667893Y-78214584D01*
X145247949Y-78214218D01*
X144859832Y-78374584D01*
X144562628Y-78671270D01*
X144401584Y-79059107D01*
X144401218Y-79479051D01*
X144226417Y-79479051D01*
X144226782Y-79060949D01*
X144066416Y-78672832D01*
X143769730Y-78375628D01*
X143381893Y-78214584D01*
X142961949Y-78214218D01*
X142573832Y-78374584D01*
X142276628Y-78671270D01*
X142115584Y-79059107D01*
X142115218Y-79479051D01*
X140168833Y-79479051D01*
X140168833Y-79107233D01*
X140103095Y-78776748D01*
X140046585Y-78692175D01*
X139915891Y-78496576D01*
X135484657Y-74065343D01*
X135204485Y-73878138D01*
X134874000Y-73812400D01*
X132047566Y-73812400D01*
X132047566Y-73801000D01*
X163227434Y-73801000D01*
X163227434Y-75551000D01*
X163252230Y-75682777D01*
X163330110Y-75803807D01*
X163448942Y-75885001D01*
X163590000Y-75913566D01*
X165340000Y-75913566D01*
X165471777Y-75888770D01*
X165592807Y-75810890D01*
X165674001Y-75692058D01*
X165702566Y-75551000D01*
X165702566Y-75256060D01*
X165759266Y-75285338D01*
X166368604Y-74676000D01*
X167641396Y-74676000D01*
X168250734Y-75285338D01*
X168460315Y-75177118D01*
X168541305Y-74582048D01*
X168460315Y-74174882D01*
X168250734Y-74066662D01*
X167641396Y-74676000D01*
X166368604Y-74676000D01*
X165759266Y-74066662D01*
X165702566Y-74095940D01*
X165702566Y-73801000D01*
X165677770Y-73669223D01*
X165599890Y-73548193D01*
X165481058Y-73466999D01*
X165340000Y-73438434D01*
X163590000Y-73438434D01*
X163458223Y-73463230D01*
X163337193Y-73541110D01*
X163255999Y-73659942D01*
X163227434Y-73801000D01*
X132047566Y-73801000D01*
X132022770Y-73669223D01*
X131944890Y-73548193D01*
X131826058Y-73466999D01*
X131685000Y-73438434D01*
X129935000Y-73438434D01*
X129803223Y-73463230D01*
X129682193Y-73541110D01*
X129600999Y-73659942D01*
X129572434Y-73801000D01*
X129572434Y-74095940D01*
X129515734Y-74066662D01*
X128906396Y-74676000D01*
X129515734Y-75285338D01*
X129572434Y-75256060D01*
X129572434Y-75551000D01*
X129597230Y-75682777D01*
X129675110Y-75803807D01*
X129793942Y-75885001D01*
X129935000Y-75913566D01*
X131685000Y-75913566D01*
X131816777Y-75888770D01*
X131937807Y-75810890D01*
X132019001Y-75692058D01*
X132047566Y-75551000D01*
X132047566Y-75539600D01*
X134516286Y-75539600D01*
X138441633Y-79464948D01*
X138441633Y-83222052D01*
X134898343Y-86765343D01*
X134711138Y-87045515D01*
X134645400Y-87376000D01*
X134645400Y-109999000D01*
X134694623Y-110246457D01*
X134711138Y-110329485D01*
X134898343Y-110609657D01*
X136179260Y-111890575D01*
X136179217Y-111940041D01*
X136340343Y-112329997D01*
X136638434Y-112628608D01*
X137028108Y-112790415D01*
X137450041Y-112790783D01*
X137839997Y-112629657D01*
X138138608Y-112331566D01*
X138235037Y-112099339D01*
X138330343Y-112329997D01*
X138628434Y-112628608D01*
X139018108Y-112790415D01*
X139440041Y-112790783D01*
X139829997Y-112629657D01*
X140128608Y-112331566D01*
X140290415Y-111941892D01*
X140290783Y-111519959D01*
X140129657Y-111130003D01*
X139831566Y-110831392D01*
X139441892Y-110669585D01*
X139019959Y-110669217D01*
X138630003Y-110830343D01*
X138331392Y-111128434D01*
X138234963Y-111360661D01*
X138139657Y-111130003D01*
X137841566Y-110831392D01*
X137451892Y-110669585D01*
X137400855Y-110669540D01*
X136948796Y-110217482D01*
X137028108Y-110250415D01*
X137450041Y-110250783D01*
X137839997Y-110089657D01*
X138138608Y-109791566D01*
X138235037Y-109559339D01*
X138330343Y-109789997D01*
X138628434Y-110088608D01*
X139018108Y-110250415D01*
X139440041Y-110250783D01*
X139829997Y-110089657D01*
X139852400Y-110067293D01*
X139852400Y-110422000D01*
X139898803Y-110655284D01*
X140030948Y-110853052D01*
X140709573Y-111531678D01*
X140709217Y-111940041D01*
X140870343Y-112329997D01*
X141168434Y-112628608D01*
X141558108Y-112790415D01*
X141980041Y-112790783D01*
X142002667Y-112781434D01*
X143207076Y-112781434D01*
X143285070Y-112983393D01*
X143800875Y-113069733D01*
X144234930Y-112983393D01*
X144312924Y-112781434D01*
X143760000Y-112228510D01*
X143207076Y-112781434D01*
X142002667Y-112781434D01*
X142369997Y-112629657D01*
X142668608Y-112331566D01*
X142691537Y-112276348D01*
X142708566Y-112282924D01*
X143261490Y-111730000D01*
X144258510Y-111730000D01*
X144811434Y-112282924D01*
X145013393Y-112204930D01*
X145099733Y-111689125D01*
X145013393Y-111255070D01*
X144811434Y-111177076D01*
X144258510Y-111730000D01*
X143261490Y-111730000D01*
X142708566Y-111177076D01*
X142691785Y-111183557D01*
X142669657Y-111130003D01*
X142371566Y-110831392D01*
X142003521Y-110678566D01*
X143207076Y-110678566D01*
X143760000Y-111231490D01*
X144312924Y-110678566D01*
X144234930Y-110476607D01*
X143719125Y-110390267D01*
X143285070Y-110476607D01*
X143207076Y-110678566D01*
X142003521Y-110678566D01*
X141981892Y-110669585D01*
X141571331Y-110669227D01*
X141071600Y-110169496D01*
X141071600Y-109991605D01*
X141168434Y-110088608D01*
X141558108Y-110250415D01*
X141980041Y-110250783D01*
X142369997Y-110089657D01*
X142668608Y-109791566D01*
X142765037Y-109559339D01*
X142860343Y-109789997D01*
X143158434Y-110088608D01*
X143548108Y-110250415D01*
X143970041Y-110250783D01*
X144359997Y-110089657D01*
X144658608Y-109791566D01*
X144820415Y-109401892D01*
X144820783Y-108979959D01*
X144659657Y-108590003D01*
X144373600Y-108303447D01*
X144373600Y-106132100D01*
X144515500Y-105990200D01*
X144515500Y-105408000D01*
X144790500Y-105408000D01*
X144790500Y-105990200D01*
X144942900Y-106142600D01*
X145049257Y-106142600D01*
X145273311Y-106049794D01*
X145444794Y-105878311D01*
X145537600Y-105654257D01*
X145537600Y-105560400D01*
X145385200Y-105408000D01*
X144790500Y-105408000D01*
X144515500Y-105408000D01*
X144401566Y-105408000D01*
X144401566Y-105158000D01*
X144515500Y-105158000D01*
X144515500Y-105033000D01*
X144790500Y-105033000D01*
X144790500Y-105158000D01*
X145385200Y-105158000D01*
X145537600Y-105005600D01*
X145537600Y-104911743D01*
X145444794Y-104687689D01*
X145287794Y-104530689D01*
X145290566Y-104517000D01*
X145290566Y-104017000D01*
X145267750Y-103895743D01*
X145927400Y-103895743D01*
X145927400Y-103989600D01*
X146079800Y-104142000D01*
X146674500Y-104142000D01*
X146674500Y-103559800D01*
X146949500Y-103559800D01*
X146949500Y-104142000D01*
X147544200Y-104142000D01*
X147696600Y-103989600D01*
X147696600Y-103895743D01*
X147603794Y-103671689D01*
X147432311Y-103500206D01*
X147208257Y-103407400D01*
X147101900Y-103407400D01*
X146949500Y-103559800D01*
X146674500Y-103559800D01*
X146522100Y-103407400D01*
X146415743Y-103407400D01*
X146191689Y-103500206D01*
X146020206Y-103671689D01*
X145927400Y-103895743D01*
X145267750Y-103895743D01*
X145265770Y-103885223D01*
X145187890Y-103764193D01*
X145069058Y-103682999D01*
X144928000Y-103654434D01*
X144378000Y-103654434D01*
X144362237Y-103657400D01*
X144053647Y-103657400D01*
X144039000Y-103654434D01*
X143489000Y-103654434D01*
X143484600Y-103655262D01*
X143484600Y-103378000D01*
X143438197Y-103144716D01*
X143332200Y-102986081D01*
X143332200Y-94612965D01*
X143297398Y-94438002D01*
X143287630Y-94423383D01*
X143198289Y-94289675D01*
X140067614Y-91159001D01*
X140484031Y-91159001D01*
X140756530Y-91431501D01*
X140893636Y-91523112D01*
X140904856Y-91530609D01*
X141079819Y-91565411D01*
X141896265Y-91565411D01*
X142168764Y-91837911D01*
X142293162Y-91921031D01*
X142317090Y-91937019D01*
X142492053Y-91971821D01*
X143647351Y-91971821D01*
X143919850Y-92244321D01*
X144044248Y-92327441D01*
X144068176Y-92343429D01*
X144243139Y-92378231D01*
X144979011Y-92378231D01*
X145251510Y-92650731D01*
X145399836Y-92749839D01*
X145574799Y-92784641D01*
X146326743Y-92784641D01*
X149142500Y-95600398D01*
X149142500Y-105150384D01*
X149086597Y-105206189D01*
X148994206Y-105428692D01*
X148993996Y-105669615D01*
X149085998Y-105892278D01*
X149256207Y-106062785D01*
X149365409Y-106108130D01*
X149361057Y-106112482D01*
X149282067Y-106112413D01*
X149059404Y-106204415D01*
X148888897Y-106374624D01*
X148796506Y-106597127D01*
X148796296Y-106838050D01*
X148888298Y-107060713D01*
X149058507Y-107231220D01*
X149064088Y-107233538D01*
X149044424Y-107262967D01*
X149009622Y-107437930D01*
X149009622Y-116158864D01*
X148901276Y-116267210D01*
X148802167Y-116415536D01*
X148767365Y-116590499D01*
X148767365Y-116949234D01*
X148711462Y-117005039D01*
X148619071Y-117227542D01*
X148618861Y-117468465D01*
X148710863Y-117691128D01*
X148881072Y-117861635D01*
X149103575Y-117954026D01*
X149277869Y-117954178D01*
X149277791Y-118043713D01*
X149369793Y-118266376D01*
X149540002Y-118436883D01*
X149762505Y-118529274D01*
X150003428Y-118529484D01*
X150226091Y-118437482D01*
X150396598Y-118267273D01*
X150488989Y-118044770D01*
X150489199Y-117803847D01*
X150397197Y-117581184D01*
X150340695Y-117524583D01*
X150340695Y-117352060D01*
X150373432Y-117365654D01*
X150614355Y-117365864D01*
X150837018Y-117273862D01*
X151007525Y-117103653D01*
X151099916Y-116881150D01*
X151100126Y-116640227D01*
X151008124Y-116417564D01*
X150951622Y-116360963D01*
X150951622Y-116043245D01*
X150916820Y-115868282D01*
X150817711Y-115719956D01*
X150758155Y-115660400D01*
X150758155Y-109074256D01*
X152321122Y-107511289D01*
X153689777Y-106142635D01*
X153768766Y-106142704D01*
X153826582Y-106118815D01*
X153397512Y-106547885D01*
X153298403Y-106696211D01*
X153263601Y-106871174D01*
X153263601Y-108995489D01*
X153182201Y-108995418D01*
X153162000Y-108991400D01*
X153141976Y-108995383D01*
X153042067Y-108995296D01*
X152948916Y-109033785D01*
X152928716Y-109037803D01*
X152911741Y-109049145D01*
X152844289Y-109077016D01*
X152777408Y-109049245D01*
X152760284Y-109037803D01*
X152740261Y-109033820D01*
X152647990Y-108995506D01*
X152547201Y-108995418D01*
X152527000Y-108991400D01*
X152506976Y-108995383D01*
X152407067Y-108995296D01*
X152313916Y-109033785D01*
X152293716Y-109037803D01*
X152276741Y-109049145D01*
X152209289Y-109077016D01*
X152142408Y-109049245D01*
X152125284Y-109037803D01*
X152105261Y-109033820D01*
X152012990Y-108995506D01*
X151912201Y-108995418D01*
X151892000Y-108991400D01*
X151871976Y-108995383D01*
X151772067Y-108995296D01*
X151678916Y-109033785D01*
X151658716Y-109037803D01*
X151641741Y-109049145D01*
X151549404Y-109087298D01*
X151478070Y-109158508D01*
X151460948Y-109169948D01*
X151449608Y-109186920D01*
X151378897Y-109257507D01*
X151340245Y-109350592D01*
X151328803Y-109367716D01*
X151324820Y-109387739D01*
X151286506Y-109480010D01*
X151286418Y-109580799D01*
X151282400Y-109601000D01*
X151282400Y-109820601D01*
X151275434Y-109855000D01*
X151275434Y-111379000D01*
X151300230Y-111510777D01*
X151378110Y-111631807D01*
X151496942Y-111713001D01*
X151638000Y-111741566D01*
X153263601Y-111741566D01*
X153263601Y-111962801D01*
X153298403Y-112137764D01*
X153397512Y-112286090D01*
X153397856Y-112286434D01*
X151638000Y-112286434D01*
X151506223Y-112311230D01*
X151385193Y-112389110D01*
X151303999Y-112507942D01*
X151275434Y-112649000D01*
X151275434Y-114173000D01*
X151300230Y-114304777D01*
X151378110Y-114425807D01*
X151496942Y-114507001D01*
X151638000Y-114535566D01*
X152439156Y-114535566D01*
X153576900Y-115673310D01*
X153576900Y-118000000D01*
X153587434Y-118052958D01*
X153587434Y-119250000D01*
X153612230Y-119381777D01*
X153690110Y-119502807D01*
X153711468Y-119517400D01*
X129099750Y-119517400D01*
X129185100Y-119482134D01*
X129640535Y-119027493D01*
X129887319Y-118433172D01*
X129887881Y-117789651D01*
X129642134Y-117194900D01*
X129187493Y-116739465D01*
X128651534Y-116516915D01*
X128980311Y-116381067D01*
X129333825Y-116028169D01*
X129525382Y-115566850D01*
X129525383Y-115564659D01*
X129554182Y-115564659D01*
X129744933Y-116026311D01*
X130097831Y-116379825D01*
X130559150Y-116571382D01*
X131058659Y-116571818D01*
X131520311Y-116381067D01*
X131873825Y-116028169D01*
X132065382Y-115566850D01*
X132065818Y-115067341D01*
X132003695Y-114916992D01*
X132094035Y-114916992D01*
X132413918Y-115691168D01*
X133005716Y-116284000D01*
X133779333Y-116605234D01*
X134084037Y-116605500D01*
X134377909Y-116801859D01*
X135000000Y-116925600D01*
X139147592Y-116925600D01*
X139305716Y-117084000D01*
X140079333Y-117405234D01*
X140916992Y-117405965D01*
X141691168Y-117086082D01*
X141851930Y-116925600D01*
X146000000Y-116925600D01*
X146622091Y-116801859D01*
X146915660Y-116605702D01*
X147216992Y-116605965D01*
X147991168Y-116286082D01*
X148584000Y-115694284D01*
X148905234Y-114920667D01*
X148905965Y-114083008D01*
X148586082Y-113308832D01*
X147994284Y-112716000D01*
X147421600Y-112478201D01*
X147421600Y-105671100D01*
X147449566Y-105533000D01*
X147449566Y-105033000D01*
X147446959Y-105019146D01*
X147603794Y-104862311D01*
X147696600Y-104638257D01*
X147696600Y-104544400D01*
X147544200Y-104392000D01*
X146949500Y-104392000D01*
X146949500Y-104517000D01*
X146674500Y-104517000D01*
X146674500Y-104392000D01*
X146079800Y-104392000D01*
X145927400Y-104544400D01*
X145927400Y-104638257D01*
X146020206Y-104862311D01*
X146177206Y-105019311D01*
X146174434Y-105033000D01*
X146174434Y-105533000D01*
X146199230Y-105664777D01*
X146202400Y-105669703D01*
X146202400Y-112468661D01*
X145608832Y-112713918D01*
X145016000Y-113305716D01*
X144862909Y-113674400D01*
X141852408Y-113674400D01*
X141694284Y-113516000D01*
X140920667Y-113194766D01*
X140083008Y-113194035D01*
X139308832Y-113513918D01*
X139148070Y-113674400D01*
X136137132Y-113674400D01*
X135986082Y-113308832D01*
X135394284Y-112716000D01*
X134620667Y-112394766D01*
X133783008Y-112394035D01*
X133008832Y-112713918D01*
X132416000Y-113305716D01*
X132094766Y-114079333D01*
X132094035Y-114916992D01*
X132003695Y-114916992D01*
X131875067Y-114605689D01*
X131522169Y-114252175D01*
X131060850Y-114060618D01*
X130561341Y-114060182D01*
X130099689Y-114250933D01*
X129746175Y-114603831D01*
X129554618Y-115065150D01*
X129554182Y-115564659D01*
X129525383Y-115564659D01*
X129525818Y-115067341D01*
X129335067Y-114605689D01*
X128982169Y-114252175D01*
X128520850Y-114060618D01*
X128021341Y-114060182D01*
X127559689Y-114250933D01*
X127206175Y-114603831D01*
X127014618Y-115065150D01*
X127014182Y-115564659D01*
X127204933Y-116026311D01*
X127557831Y-116379825D01*
X127888808Y-116517259D01*
X127354900Y-116737866D01*
X126899465Y-117192507D01*
X126652681Y-117786828D01*
X126652119Y-118430349D01*
X126897866Y-119025100D01*
X127352507Y-119480535D01*
X127441288Y-119517400D01*
X125482600Y-119517400D01*
X125482600Y-113024659D01*
X127014182Y-113024659D01*
X127204933Y-113486311D01*
X127557831Y-113839825D01*
X128019150Y-114031382D01*
X128518659Y-114031818D01*
X128980311Y-113841067D01*
X129333825Y-113488169D01*
X129525382Y-113026850D01*
X129525383Y-113024659D01*
X129554182Y-113024659D01*
X129744933Y-113486311D01*
X130097831Y-113839825D01*
X130559150Y-114031382D01*
X131058659Y-114031818D01*
X131520311Y-113841067D01*
X131873825Y-113488169D01*
X132065382Y-113026850D01*
X132065818Y-112527341D01*
X131875067Y-112065689D01*
X131522169Y-111712175D01*
X131060850Y-111520618D01*
X130561341Y-111520182D01*
X130099689Y-111710933D01*
X129746175Y-112063831D01*
X129554618Y-112525150D01*
X129554182Y-113024659D01*
X129525383Y-113024659D01*
X129525818Y-112527341D01*
X129335067Y-112065689D01*
X128982169Y-111712175D01*
X128520850Y-111520618D01*
X128021341Y-111520182D01*
X127559689Y-111710933D01*
X127206175Y-112063831D01*
X127014618Y-112525150D01*
X127014182Y-113024659D01*
X125482600Y-113024659D01*
X125482600Y-110484659D01*
X127014182Y-110484659D01*
X127204933Y-110946311D01*
X127557831Y-111299825D01*
X128019150Y-111491382D01*
X128518659Y-111491818D01*
X128980311Y-111301067D01*
X129333825Y-110948169D01*
X129525382Y-110486850D01*
X129525383Y-110484659D01*
X129554182Y-110484659D01*
X129744933Y-110946311D01*
X130097831Y-111299825D01*
X130559150Y-111491382D01*
X131058659Y-111491818D01*
X131520311Y-111301067D01*
X131873825Y-110948169D01*
X132065382Y-110486850D01*
X132065818Y-109987341D01*
X131875067Y-109525689D01*
X131522169Y-109172175D01*
X131060850Y-108980618D01*
X130561341Y-108980182D01*
X130099689Y-109170933D01*
X129746175Y-109523831D01*
X129554618Y-109985150D01*
X129554182Y-110484659D01*
X129525383Y-110484659D01*
X129525818Y-109987341D01*
X129335067Y-109525689D01*
X128982169Y-109172175D01*
X128520850Y-108980618D01*
X128021341Y-108980182D01*
X127559689Y-109170933D01*
X127206175Y-109523831D01*
X127014618Y-109985150D01*
X127014182Y-110484659D01*
X125482600Y-110484659D01*
X125482600Y-107944659D01*
X127014182Y-107944659D01*
X127204933Y-108406311D01*
X127557831Y-108759825D01*
X128019150Y-108951382D01*
X128518659Y-108951818D01*
X128980311Y-108761067D01*
X129333825Y-108408169D01*
X129525382Y-107946850D01*
X129525383Y-107944659D01*
X129554182Y-107944659D01*
X129744933Y-108406311D01*
X130097831Y-108759825D01*
X130559150Y-108951382D01*
X131058659Y-108951818D01*
X131520311Y-108761067D01*
X131873825Y-108408169D01*
X132065382Y-107946850D01*
X132065818Y-107447341D01*
X131875067Y-106985689D01*
X131522169Y-106632175D01*
X131060850Y-106440618D01*
X130561341Y-106440182D01*
X130099689Y-106630933D01*
X129746175Y-106983831D01*
X129554618Y-107445150D01*
X129554182Y-107944659D01*
X129525383Y-107944659D01*
X129525818Y-107447341D01*
X129335067Y-106985689D01*
X128982169Y-106632175D01*
X128520850Y-106440618D01*
X128021341Y-106440182D01*
X127559689Y-106630933D01*
X127206175Y-106983831D01*
X127014618Y-107445150D01*
X127014182Y-107944659D01*
X125482600Y-107944659D01*
X125482600Y-105404659D01*
X127014182Y-105404659D01*
X127204933Y-105866311D01*
X127557831Y-106219825D01*
X128019150Y-106411382D01*
X128518659Y-106411818D01*
X128980311Y-106221067D01*
X129333825Y-105868169D01*
X129525382Y-105406850D01*
X129525383Y-105404659D01*
X129554182Y-105404659D01*
X129744933Y-105866311D01*
X130097831Y-106219825D01*
X130559150Y-106411382D01*
X131058659Y-106411818D01*
X131520311Y-106221067D01*
X131873825Y-105868169D01*
X132065382Y-105406850D01*
X132065818Y-104907341D01*
X131875067Y-104445689D01*
X131522169Y-104092175D01*
X131060850Y-103900618D01*
X130561341Y-103900182D01*
X130099689Y-104090933D01*
X129746175Y-104443831D01*
X129554618Y-104905150D01*
X129554182Y-105404659D01*
X129525383Y-105404659D01*
X129525818Y-104907341D01*
X129335067Y-104445689D01*
X128982169Y-104092175D01*
X128520850Y-103900618D01*
X128021341Y-103900182D01*
X127559689Y-104090933D01*
X127206175Y-104443831D01*
X127014618Y-104905150D01*
X127014182Y-105404659D01*
X125482600Y-105404659D01*
X125482600Y-102864659D01*
X127014182Y-102864659D01*
X127204933Y-103326311D01*
X127557831Y-103679825D01*
X128019150Y-103871382D01*
X128518659Y-103871818D01*
X128980311Y-103681067D01*
X129333825Y-103328169D01*
X129525382Y-102866850D01*
X129525383Y-102864659D01*
X129554182Y-102864659D01*
X129744933Y-103326311D01*
X130097831Y-103679825D01*
X130559150Y-103871382D01*
X131058659Y-103871818D01*
X131520311Y-103681067D01*
X131873825Y-103328169D01*
X132065382Y-102866850D01*
X132065818Y-102367341D01*
X131875067Y-101905689D01*
X131522169Y-101552175D01*
X131060850Y-101360618D01*
X130561341Y-101360182D01*
X130099689Y-101550933D01*
X129746175Y-101903831D01*
X129554618Y-102365150D01*
X129554182Y-102864659D01*
X129525383Y-102864659D01*
X129525818Y-102367341D01*
X129335067Y-101905689D01*
X128982169Y-101552175D01*
X128520850Y-101360618D01*
X128021341Y-101360182D01*
X127559689Y-101550933D01*
X127206175Y-101903831D01*
X127014618Y-102365150D01*
X127014182Y-102864659D01*
X125482600Y-102864659D01*
X125482600Y-100324659D01*
X127014182Y-100324659D01*
X127204933Y-100786311D01*
X127557831Y-101139825D01*
X128019150Y-101331382D01*
X128518659Y-101331818D01*
X128980311Y-101141067D01*
X129333825Y-100788169D01*
X129525382Y-100326850D01*
X129525383Y-100324659D01*
X129554182Y-100324659D01*
X129744933Y-100786311D01*
X130097831Y-101139825D01*
X130559150Y-101331382D01*
X131058659Y-101331818D01*
X131520311Y-101141067D01*
X131873825Y-100788169D01*
X132065382Y-100326850D01*
X132065818Y-99827341D01*
X131875067Y-99365689D01*
X131522169Y-99012175D01*
X131060850Y-98820618D01*
X130561341Y-98820182D01*
X130099689Y-99010933D01*
X129746175Y-99363831D01*
X129554618Y-99825150D01*
X129554182Y-100324659D01*
X129525383Y-100324659D01*
X129525818Y-99827341D01*
X129335067Y-99365689D01*
X128982169Y-99012175D01*
X128520850Y-98820618D01*
X128021341Y-98820182D01*
X127559689Y-99010933D01*
X127206175Y-99363831D01*
X127014618Y-99825150D01*
X127014182Y-100324659D01*
X125482600Y-100324659D01*
X125482600Y-97784659D01*
X127014182Y-97784659D01*
X127204933Y-98246311D01*
X127557831Y-98599825D01*
X128019150Y-98791382D01*
X128518659Y-98791818D01*
X128980311Y-98601067D01*
X129333825Y-98248169D01*
X129525382Y-97786850D01*
X129525383Y-97784659D01*
X129554182Y-97784659D01*
X129744933Y-98246311D01*
X130097831Y-98599825D01*
X130559150Y-98791382D01*
X131058659Y-98791818D01*
X131520311Y-98601067D01*
X131873825Y-98248169D01*
X132065382Y-97786850D01*
X132065818Y-97287341D01*
X131875067Y-96825689D01*
X131522169Y-96472175D01*
X131060850Y-96280618D01*
X130561341Y-96280182D01*
X130099689Y-96470933D01*
X129746175Y-96823831D01*
X129554618Y-97285150D01*
X129554182Y-97784659D01*
X129525383Y-97784659D01*
X129525818Y-97287341D01*
X129335067Y-96825689D01*
X128982169Y-96472175D01*
X128520850Y-96280618D01*
X128021341Y-96280182D01*
X127559689Y-96470933D01*
X127206175Y-96823831D01*
X127014618Y-97285150D01*
X127014182Y-97784659D01*
X125482600Y-97784659D01*
X125482600Y-95244659D01*
X127014182Y-95244659D01*
X127204933Y-95706311D01*
X127557831Y-96059825D01*
X128019150Y-96251382D01*
X128518659Y-96251818D01*
X128980311Y-96061067D01*
X129333825Y-95708169D01*
X129525382Y-95246850D01*
X129525383Y-95244659D01*
X129554182Y-95244659D01*
X129744933Y-95706311D01*
X130097831Y-96059825D01*
X130559150Y-96251382D01*
X131058659Y-96251818D01*
X131520311Y-96061067D01*
X131873825Y-95708169D01*
X132065382Y-95246850D01*
X132065818Y-94747341D01*
X131875067Y-94285689D01*
X131522169Y-93932175D01*
X131060850Y-93740618D01*
X130561341Y-93740182D01*
X130099689Y-93930933D01*
X129746175Y-94283831D01*
X129554618Y-94745150D01*
X129554182Y-95244659D01*
X129525383Y-95244659D01*
X129525818Y-94747341D01*
X129335067Y-94285689D01*
X128982169Y-93932175D01*
X128520850Y-93740618D01*
X128021341Y-93740182D01*
X127559689Y-93930933D01*
X127206175Y-94283831D01*
X127014618Y-94745150D01*
X127014182Y-95244659D01*
X125482600Y-95244659D01*
X125482600Y-92704659D01*
X127014182Y-92704659D01*
X127204933Y-93166311D01*
X127557831Y-93519825D01*
X128019150Y-93711382D01*
X128518659Y-93711818D01*
X128980311Y-93521067D01*
X129333825Y-93168169D01*
X129525382Y-92706850D01*
X129525383Y-92704659D01*
X129554182Y-92704659D01*
X129744933Y-93166311D01*
X130097831Y-93519825D01*
X130559150Y-93711382D01*
X131058659Y-93711818D01*
X131520311Y-93521067D01*
X131873825Y-93168169D01*
X132065382Y-92706850D01*
X132065818Y-92207341D01*
X131875067Y-91745689D01*
X131522169Y-91392175D01*
X131060850Y-91200618D01*
X130561341Y-91200182D01*
X130099689Y-91390933D01*
X129746175Y-91743831D01*
X129554618Y-92205150D01*
X129554182Y-92704659D01*
X129525383Y-92704659D01*
X129525818Y-92207341D01*
X129335067Y-91745689D01*
X128982169Y-91392175D01*
X128520850Y-91200618D01*
X128021341Y-91200182D01*
X127559689Y-91390933D01*
X127206175Y-91743831D01*
X127014618Y-92205150D01*
X127014182Y-92704659D01*
X125482600Y-92704659D01*
X125482600Y-90164659D01*
X127014182Y-90164659D01*
X127204933Y-90626311D01*
X127557831Y-90979825D01*
X128019150Y-91171382D01*
X128518659Y-91171818D01*
X128980311Y-90981067D01*
X129333825Y-90628169D01*
X129525382Y-90166850D01*
X129525383Y-90164659D01*
X129554182Y-90164659D01*
X129744933Y-90626311D01*
X130097831Y-90979825D01*
X130559150Y-91171382D01*
X131058659Y-91171818D01*
X131520311Y-90981067D01*
X131873825Y-90628169D01*
X132065382Y-90166850D01*
X132065818Y-89667341D01*
X131875067Y-89205689D01*
X131522169Y-88852175D01*
X131060850Y-88660618D01*
X130561341Y-88660182D01*
X130099689Y-88850933D01*
X129746175Y-89203831D01*
X129554618Y-89665150D01*
X129554182Y-90164659D01*
X129525383Y-90164659D01*
X129525818Y-89667341D01*
X129335067Y-89205689D01*
X128982169Y-88852175D01*
X128520850Y-88660618D01*
X128021341Y-88660182D01*
X127559689Y-88850933D01*
X127206175Y-89203831D01*
X127014618Y-89665150D01*
X127014182Y-90164659D01*
X125482600Y-90164659D01*
X125482600Y-87624659D01*
X127014182Y-87624659D01*
X127204933Y-88086311D01*
X127557831Y-88439825D01*
X128019150Y-88631382D01*
X128518659Y-88631818D01*
X128980311Y-88441067D01*
X129333825Y-88088169D01*
X129525382Y-87626850D01*
X129525383Y-87624659D01*
X129554182Y-87624659D01*
X129744933Y-88086311D01*
X130097831Y-88439825D01*
X130559150Y-88631382D01*
X131058659Y-88631818D01*
X131520311Y-88441067D01*
X131873825Y-88088169D01*
X132065382Y-87626850D01*
X132065818Y-87127341D01*
X131875067Y-86665689D01*
X131522169Y-86312175D01*
X131060850Y-86120618D01*
X130561341Y-86120182D01*
X130099689Y-86310933D01*
X129746175Y-86663831D01*
X129554618Y-87125150D01*
X129554182Y-87624659D01*
X129525383Y-87624659D01*
X129525818Y-87127341D01*
X129335067Y-86665689D01*
X128982169Y-86312175D01*
X128520850Y-86120618D01*
X128021341Y-86120182D01*
X127559689Y-86310933D01*
X127206175Y-86663831D01*
X127014618Y-87125150D01*
X127014182Y-87624659D01*
X125482600Y-87624659D01*
X125482600Y-85084659D01*
X127014182Y-85084659D01*
X127204933Y-85546311D01*
X127557831Y-85899825D01*
X128019150Y-86091382D01*
X128518659Y-86091818D01*
X128980311Y-85901067D01*
X129333825Y-85548169D01*
X129525382Y-85086850D01*
X129525383Y-85084659D01*
X129554182Y-85084659D01*
X129744933Y-85546311D01*
X130097831Y-85899825D01*
X130559150Y-86091382D01*
X131058659Y-86091818D01*
X131520311Y-85901067D01*
X131873825Y-85548169D01*
X132065382Y-85086850D01*
X132065818Y-84587341D01*
X131957142Y-84324325D01*
X133243016Y-84324325D01*
X133567116Y-84693799D01*
X134779998Y-85023772D01*
X136026831Y-84864477D01*
X136438884Y-84693799D01*
X136762984Y-84324325D01*
X135003000Y-82564342D01*
X133243016Y-84324325D01*
X131957142Y-84324325D01*
X131875067Y-84125689D01*
X131522169Y-83772175D01*
X131060850Y-83580618D01*
X130561341Y-83580182D01*
X130099689Y-83770933D01*
X129746175Y-84123831D01*
X129554618Y-84585150D01*
X129554182Y-85084659D01*
X129525383Y-85084659D01*
X129525818Y-84587341D01*
X129335067Y-84125689D01*
X128982169Y-83772175D01*
X128799511Y-83696329D01*
X128879338Y-83541734D01*
X128270000Y-82932396D01*
X127660662Y-83541734D01*
X127740446Y-83696246D01*
X127559689Y-83770933D01*
X127206175Y-84123831D01*
X127014618Y-84585150D01*
X127014182Y-85084659D01*
X125482600Y-85084659D01*
X125482600Y-82389952D01*
X126733695Y-82389952D01*
X126814685Y-82797118D01*
X127024266Y-82905338D01*
X127633604Y-82296000D01*
X128906396Y-82296000D01*
X129515734Y-82905338D01*
X129670246Y-82825554D01*
X129744933Y-83006311D01*
X130097831Y-83359825D01*
X130559150Y-83551382D01*
X131058659Y-83551818D01*
X131520311Y-83361067D01*
X131873825Y-83008169D01*
X131947980Y-82829584D01*
X131948523Y-82833831D01*
X132119201Y-83245884D01*
X132488675Y-83569984D01*
X134248658Y-81810000D01*
X135757342Y-81810000D01*
X137517325Y-83569984D01*
X137886799Y-83245884D01*
X138216772Y-82033002D01*
X138057477Y-80786169D01*
X137886799Y-80374116D01*
X137517325Y-80050016D01*
X135757342Y-81810000D01*
X134248658Y-81810000D01*
X132488675Y-80050016D01*
X132119201Y-80374116D01*
X131807892Y-81518396D01*
X131522169Y-81232175D01*
X131060850Y-81040618D01*
X130561341Y-81040182D01*
X130099689Y-81230933D01*
X129746175Y-81583831D01*
X129670329Y-81766489D01*
X129515734Y-81686662D01*
X128906396Y-82296000D01*
X127633604Y-82296000D01*
X127024266Y-81686662D01*
X126814685Y-81794882D01*
X126733695Y-82389952D01*
X125482600Y-82389952D01*
X125482600Y-80004659D01*
X127014182Y-80004659D01*
X127204933Y-80466311D01*
X127557831Y-80819825D01*
X127740489Y-80895671D01*
X127660662Y-81050266D01*
X128270000Y-81659604D01*
X128879338Y-81050266D01*
X128799554Y-80895754D01*
X128980311Y-80821067D01*
X129333825Y-80468169D01*
X129525382Y-80006850D01*
X129525383Y-80004659D01*
X129554182Y-80004659D01*
X129744933Y-80466311D01*
X130097831Y-80819825D01*
X130559150Y-81011382D01*
X131058659Y-81011818D01*
X131520311Y-80821067D01*
X131873825Y-80468169D01*
X132065382Y-80006850D01*
X132065818Y-79507341D01*
X131978360Y-79295675D01*
X133243016Y-79295675D01*
X135003000Y-81055658D01*
X136762984Y-79295675D01*
X136438884Y-78926201D01*
X135226002Y-78596228D01*
X133979169Y-78755523D01*
X133567116Y-78926201D01*
X133243016Y-79295675D01*
X131978360Y-79295675D01*
X131875067Y-79045689D01*
X131522169Y-78692175D01*
X131060850Y-78500618D01*
X130561341Y-78500182D01*
X130099689Y-78690933D01*
X129746175Y-79043831D01*
X129554618Y-79505150D01*
X129554182Y-80004659D01*
X129525383Y-80004659D01*
X129525818Y-79507341D01*
X129335067Y-79045689D01*
X128982169Y-78692175D01*
X128799511Y-78616329D01*
X128879338Y-78461734D01*
X128270000Y-77852396D01*
X127660662Y-78461734D01*
X127740446Y-78616246D01*
X127559689Y-78690933D01*
X127206175Y-79043831D01*
X127014618Y-79505150D01*
X127014182Y-80004659D01*
X125482600Y-80004659D01*
X125482600Y-77309952D01*
X126733695Y-77309952D01*
X126814685Y-77717118D01*
X127024266Y-77825338D01*
X127633604Y-77216000D01*
X128906396Y-77216000D01*
X129515734Y-77825338D01*
X129670246Y-77745554D01*
X129744933Y-77926311D01*
X130097831Y-78279825D01*
X130559150Y-78471382D01*
X131058659Y-78471818D01*
X131520311Y-78281067D01*
X131873825Y-77928169D01*
X132065382Y-77466850D01*
X132065818Y-76967341D01*
X131875067Y-76505689D01*
X131522169Y-76152175D01*
X131060850Y-75960618D01*
X130561341Y-75960182D01*
X130099689Y-76150933D01*
X129746175Y-76503831D01*
X129670329Y-76686489D01*
X129515734Y-76606662D01*
X128906396Y-77216000D01*
X127633604Y-77216000D01*
X127024266Y-76606662D01*
X126814685Y-76714882D01*
X126733695Y-77309952D01*
X125482600Y-77309952D01*
X125482600Y-75921734D01*
X127660662Y-75921734D01*
X127673192Y-75946000D01*
X127660662Y-75970266D01*
X127712478Y-76022082D01*
X127768882Y-76131315D01*
X127830034Y-76139638D01*
X128270000Y-76579604D01*
X128705171Y-76144433D01*
X128771118Y-76131315D01*
X128827522Y-76022082D01*
X128879338Y-75970266D01*
X128866808Y-75946000D01*
X128879338Y-75921734D01*
X128827522Y-75869918D01*
X128771118Y-75760685D01*
X128709966Y-75752362D01*
X128270000Y-75312396D01*
X127834829Y-75747567D01*
X127768882Y-75760685D01*
X127712478Y-75869918D01*
X127660662Y-75921734D01*
X125482600Y-75921734D01*
X125482600Y-74769952D01*
X126733695Y-74769952D01*
X126814685Y-75177118D01*
X127024266Y-75285338D01*
X127633604Y-74676000D01*
X127024266Y-74066662D01*
X126814685Y-74174882D01*
X126733695Y-74769952D01*
X125482600Y-74769952D01*
X125482600Y-70482600D01*
X127254992Y-70482600D01*
X126899465Y-70837507D01*
G36*
X154450434Y-107823000D02*
X154475230Y-107954777D01*
X154553110Y-108075807D01*
X154671942Y-108157001D01*
X154813000Y-108185566D01*
X156277464Y-108185566D01*
X156270131Y-108222434D01*
X154813000Y-108222434D01*
X154681223Y-108247230D01*
X154560193Y-108325110D01*
X154478999Y-108443942D01*
X154450434Y-108585000D01*
X154450434Y-109855000D01*
X154475230Y-109986777D01*
X154482800Y-109998541D01*
X154482800Y-110758500D01*
X154442500Y-110798800D01*
X154442500Y-111381000D01*
X154482800Y-111381000D01*
X154482800Y-111631000D01*
X154442500Y-111631000D01*
X154442500Y-111756000D01*
X154178001Y-111756000D01*
X154178001Y-107060552D01*
X154450434Y-106788119D01*
X154450434Y-107823000D01*
X154450434Y-107823000D01*
G37*
X154450434Y-107823000D02*
X154475230Y-107954777D01*
X154553110Y-108075807D01*
X154671942Y-108157001D01*
X154813000Y-108185566D01*
X156277464Y-108185566D01*
X156270131Y-108222434D01*
X154813000Y-108222434D01*
X154681223Y-108247230D01*
X154560193Y-108325110D01*
X154478999Y-108443942D01*
X154450434Y-108585000D01*
X154450434Y-109855000D01*
X154475230Y-109986777D01*
X154482800Y-109998541D01*
X154482800Y-110758500D01*
X154442500Y-110798800D01*
X154442500Y-111381000D01*
X154482800Y-111381000D01*
X154482800Y-111631000D01*
X154442500Y-111631000D01*
X154442500Y-111756000D01*
X154178001Y-111756000D01*
X154178001Y-107060552D01*
X154450434Y-106788119D01*
X154450434Y-107823000D01*
G36*
X159967221Y-110194799D02*
X160115547Y-110293908D01*
X160290510Y-110328710D01*
X160302674Y-110328710D01*
X160292546Y-110353100D01*
X160292336Y-110594023D01*
X160313978Y-110646400D01*
X160309900Y-110646400D01*
X160157500Y-110798800D01*
X160157500Y-111381000D01*
X160271434Y-111381000D01*
X160271434Y-111631000D01*
X160157500Y-111631000D01*
X160157500Y-111756000D01*
X159882500Y-111756000D01*
X159882500Y-111631000D01*
X159867600Y-111631000D01*
X159867600Y-111381000D01*
X159882500Y-111381000D01*
X159882500Y-110798800D01*
X159867600Y-110783900D01*
X159867600Y-110495743D01*
X159774794Y-110271689D01*
X159603311Y-110100206D01*
X159379257Y-110007400D01*
X159330251Y-110007400D01*
X159338001Y-109996058D01*
X159366566Y-109855000D01*
X159366566Y-109594144D01*
X159967221Y-110194799D01*
X159967221Y-110194799D01*
G37*
X159967221Y-110194799D02*
X160115547Y-110293908D01*
X160290510Y-110328710D01*
X160302674Y-110328710D01*
X160292546Y-110353100D01*
X160292336Y-110594023D01*
X160313978Y-110646400D01*
X160309900Y-110646400D01*
X160157500Y-110798800D01*
X160157500Y-111381000D01*
X160271434Y-111381000D01*
X160271434Y-111631000D01*
X160157500Y-111631000D01*
X160157500Y-111756000D01*
X159882500Y-111756000D01*
X159882500Y-111631000D01*
X159867600Y-111631000D01*
X159867600Y-111381000D01*
X159882500Y-111381000D01*
X159882500Y-110798800D01*
X159867600Y-110783900D01*
X159867600Y-110495743D01*
X159774794Y-110271689D01*
X159603311Y-110100206D01*
X159379257Y-110007400D01*
X159330251Y-110007400D01*
X159338001Y-109996058D01*
X159366566Y-109855000D01*
X159366566Y-109594144D01*
X159967221Y-110194799D01*
G36*
X159004000Y-110871000D02*
X159258000Y-110871000D01*
X159258000Y-110880895D01*
X159228206Y-110910689D01*
X159202563Y-110972598D01*
X159135400Y-110972598D01*
X159135400Y-111379000D01*
X159004000Y-111379000D01*
X159004000Y-111633000D01*
X158496000Y-111633000D01*
X158496000Y-111379000D01*
X158394399Y-111379000D01*
X158394399Y-110871000D01*
X158496000Y-110871000D01*
X158496000Y-110617000D01*
X159004000Y-110617000D01*
X159004000Y-110871000D01*
X159004000Y-110871000D01*
G37*
X159004000Y-110871000D02*
X159258000Y-110871000D01*
X159258000Y-110880895D01*
X159228206Y-110910689D01*
X159202563Y-110972598D01*
X159135400Y-110972598D01*
X159135400Y-111379000D01*
X159004000Y-111379000D01*
X159004000Y-111633000D01*
X158496000Y-111633000D01*
X158496000Y-111379000D01*
X158394399Y-111379000D01*
X158394399Y-110871000D01*
X158496000Y-110871000D01*
X158496000Y-110617000D01*
X159004000Y-110617000D01*
X159004000Y-110871000D01*
M02*
