M48
;DRILL file {KiCad 4.0.1-3.201512221401+6198~38~ubuntu15.10.1-stable} date Thu 31 Mar 2016 02:38:13 PM EEST
;FORMAT={-:-/ absolute / metric / decimal}
FMAT,2
METRIC,TZ
T1C0.300
T2C0.400
T3C0.600
T4C0.900
T5C1.000
T6C2.500
T7C3.300
%
G90
G05
M71
T1
X136.282Y-105.802
X136.652Y-104.267
X136.779Y-105.791
X137.287Y-88.646
X137.287Y-90.625
X137.287Y-91.821
X137.287Y-93.091
X137.287Y-94.361
X137.287Y-95.631
X137.287Y-96.901
X137.287Y-98.171
X137.287Y-99.441
X137.287Y-101.854
X137.287Y-105.791
X138.049Y-86.855
X138.049Y-104.267
X138.811Y-105.029
X139.42Y-91.18
X139.573Y-93.726
X141.351Y-105.791
X142.113Y-105.791
X142.875Y-105.791
X144.653Y-105.791
X145.268Y-105.283
X145.288Y-105.791
X146.284Y-104.267
X147.447Y-104.267
X149.225Y-117.349
X149.402Y-106.718
X149.6Y-105.55
X149.883Y-117.924
X150.494Y-116.76
X150.923Y-107.478
X151.892Y-109.601
X151.982Y-106.275
X152.527Y-109.601
X152.613Y-103.658
X153.162Y-109.601
X153.34Y-102.442
X153.599Y-100.671
X153.649Y-105.537
X154.046Y-96.268
X154.305Y-110.49
X154.305Y-110.998
X154.682Y-98.757
X155.573Y-106.009
X156.845Y-109.474
X156.845Y-109.982
X156.938Y-89.41
X157.861Y-113.792
X158.496Y-110.363
X159.004Y-110.363
X159.512Y-110.363
X159.512Y-110.871
X159.512Y-111.379
X159.675Y-87.519
X160.02Y-110.363
X160.02Y-110.871
X160.782Y-86.855
X160.782Y-88.646
X160.782Y-90.625
X160.782Y-91.734
X160.782Y-93.091
X160.782Y-94.361
X160.782Y-95.551
X160.782Y-96.901
X160.782Y-98.091
X160.782Y-99.441
X160.782Y-101.854
X160.782Y-106.553
X160.898Y-110.474
X160.903Y-110.984
X160.909Y-113.792
X161.29Y-106.553
X161.798Y-106.553
T2
X161.798Y-116.141
T3
X125.984Y-70.993
X125.984Y-72.898
X125.984Y-74.676
X125.984Y-77.216
X125.984Y-79.883
X125.984Y-82.296
X125.984Y-84.836
X125.984Y-87.376
X125.984Y-89.916
X125.984Y-92.456
X125.984Y-94.996
X125.984Y-97.409
X125.984Y-100.076
X125.984Y-102.616
X125.984Y-105.156
X125.984Y-107.696
X125.984Y-110.236
X125.984Y-112.776
X125.984Y-115.316
X125.984Y-117.221
X125.984Y-119.126
X130.683Y-119.126
X130.81Y-71.12
X133.295Y-119.126
X133.35Y-71.12
X135.89Y-71.12
X135.89Y-119.126
X138.43Y-71.12
X138.43Y-119.126
X140.97Y-71.12
X140.97Y-119.126
X143.51Y-119.126
X144.145Y-71.12
X146.05Y-119.126
X146.685Y-71.12
X148.59Y-119.126
X149.225Y-71.12
X151.003Y-119.126
X151.765Y-71.12
X152.781Y-119.126
X154.305Y-71.12
X156.21Y-75.184
X156.845Y-71.12
X160.02Y-71.12
X162.052Y-119.126
X162.56Y-71.12
X163.957Y-119.126
X164.973Y-71.12
X165.735Y-119.126
X167.64Y-119.126
X169.105Y-70.993
X169.164Y-72.898
X169.164Y-74.673
X169.164Y-77.216
X169.164Y-79.756
X169.164Y-82.296
X169.164Y-84.836
X169.164Y-87.376
X169.164Y-89.916
X169.164Y-92.456
X169.164Y-94.996
X169.164Y-97.536
X169.164Y-100.076
X169.164Y-102.616
X169.164Y-105.156
X169.164Y-107.696
X169.164Y-110.236
X169.164Y-112.776
X169.164Y-115.316
X169.164Y-117.856
T4
X137.24Y-109.19
X137.24Y-111.73
X139.23Y-109.19
X139.23Y-111.73
X141.77Y-109.19
X141.77Y-111.73
X142.028Y-81.81
X143.171Y-79.27
X143.171Y-84.35
X143.76Y-109.19
X143.76Y-111.73
X144.314Y-81.81
X145.457Y-79.27
X145.457Y-84.35
X146.6Y-81.81
X147.743Y-79.27
X147.743Y-84.35
X148.886Y-81.81
X150.029Y-79.27
X150.029Y-84.35
X151.172Y-81.81
X152.315Y-79.27
X152.315Y-84.35
T5
X128.27Y-74.676
X128.27Y-77.216
X128.27Y-79.756
X128.27Y-82.296
X128.27Y-84.836
X128.27Y-87.376
X128.27Y-89.916
X128.27Y-92.456
X128.27Y-94.996
X128.27Y-97.536
X128.27Y-100.076
X128.27Y-102.616
X128.27Y-105.156
X128.27Y-107.696
X128.27Y-110.236
X128.27Y-112.776
X128.27Y-115.316
X130.81Y-74.676
X130.81Y-77.216
X130.81Y-79.756
X130.81Y-82.296
X130.81Y-84.836
X130.81Y-87.376
X130.81Y-89.916
X130.81Y-92.456
X130.81Y-94.996
X130.81Y-97.536
X130.81Y-100.076
X130.81Y-102.616
X130.81Y-105.156
X130.81Y-107.696
X130.81Y-110.236
X130.81Y-112.776
X130.81Y-115.316
X164.465Y-74.676
X164.465Y-77.216
X164.465Y-79.756
X164.465Y-82.296
X164.465Y-84.836
X164.465Y-87.376
X164.465Y-89.916
X164.465Y-92.456
X164.465Y-94.996
X164.465Y-97.536
X164.465Y-100.076
X164.465Y-102.616
X164.465Y-105.156
X164.465Y-107.696
X164.465Y-110.236
X164.465Y-112.776
X164.465Y-115.316
X167.005Y-74.676
X167.005Y-77.216
X167.005Y-79.756
X167.005Y-82.296
X167.005Y-84.836
X167.005Y-87.376
X167.005Y-89.916
X167.005Y-92.456
X167.005Y-94.996
X167.005Y-97.536
X167.005Y-100.076
X167.005Y-102.616
X167.005Y-105.156
X167.005Y-107.696
X167.005Y-110.236
X167.005Y-112.776
X167.005Y-115.316
T6
X134.2Y-114.5
X140.5Y-115.3
X146.8Y-114.5
T7
X135.003Y-81.81
X159.997Y-81.81
T0
M30
