G04 #@! TF.FileFunction,Legend,Top*
%FSLAX46Y46*%
G04 Gerber Fmt 4.6, Leading zero omitted, Abs format (unit mm)*
G04 Created by KiCad (PCBNEW 4.0.1-3.201512221401+6198~38~ubuntu15.10.1-stable) date Thu 31 Mar 2016 02:37:57 PM EEST*
%MOMM*%
G01*
G04 APERTURE LIST*
%ADD10C,0.100000*%
%ADD11C,0.254000*%
%ADD12C,0.508000*%
%ADD13C,0.300000*%
%ADD14C,0.200000*%
%ADD15C,0.400000*%
%ADD16C,0.066040*%
%ADD17C,0.012700*%
%ADD18C,0.062500*%
%ADD19C,0.010000*%
%ADD20C,0.150000*%
%ADD21C,0.500000*%
%ADD22C,0.175000*%
%ADD23C,0.158750*%
%ADD24C,0.190500*%
G04 APERTURE END LIST*
D10*
D11*
X147447000Y-107315000D02*
X147193000Y-107061000D01*
X162560000Y-70485000D02*
X162179000Y-70104000D01*
X162560000Y-70485000D02*
X162941000Y-70866000D01*
X162814000Y-70104000D02*
X162814000Y-70485000D01*
X162687000Y-70104000D02*
X162687000Y-70485000D01*
X162560000Y-70485000D02*
X162941000Y-70485000D01*
X162560000Y-70104000D02*
X162560000Y-70485000D01*
X137244667Y-99773619D02*
X136906001Y-99289810D01*
X136664096Y-99773619D02*
X136664096Y-98757619D01*
X137051143Y-98757619D01*
X137147905Y-98806000D01*
X137196286Y-98854381D01*
X137244667Y-98951143D01*
X137244667Y-99096286D01*
X137196286Y-99193048D01*
X137147905Y-99241429D01*
X137051143Y-99289810D01*
X136664096Y-99289810D01*
X138067143Y-99725238D02*
X137970381Y-99773619D01*
X137776858Y-99773619D01*
X137680096Y-99725238D01*
X137631715Y-99628476D01*
X137631715Y-99241429D01*
X137680096Y-99144667D01*
X137776858Y-99096286D01*
X137970381Y-99096286D01*
X138067143Y-99144667D01*
X138115524Y-99241429D01*
X138115524Y-99338190D01*
X137631715Y-99434952D01*
X138454191Y-99096286D02*
X138696096Y-99773619D01*
X138938000Y-99096286D01*
X139325048Y-99676857D02*
X139373429Y-99725238D01*
X139325048Y-99773619D01*
X139276667Y-99725238D01*
X139325048Y-99676857D01*
X139325048Y-99773619D01*
X139760477Y-99483333D02*
X140244286Y-99483333D01*
X139663715Y-99773619D02*
X140002382Y-98757619D01*
X140341048Y-99773619D01*
D12*
X136724571Y-97505762D02*
X136724571Y-95304429D01*
X136724571Y-94203762D02*
X136567333Y-94361000D01*
X136724571Y-94518238D01*
X136881810Y-94361000D01*
X136724571Y-94203762D01*
X136724571Y-94518238D01*
X140183810Y-97191286D02*
X140026572Y-97348524D01*
X139554857Y-97505762D01*
X139240381Y-97505762D01*
X138768667Y-97348524D01*
X138454191Y-97034048D01*
X138296952Y-96719571D01*
X138139714Y-96090619D01*
X138139714Y-95618905D01*
X138296952Y-94989952D01*
X138454191Y-94675476D01*
X138768667Y-94361000D01*
X139240381Y-94203762D01*
X139554857Y-94203762D01*
X140026572Y-94361000D01*
X140183810Y-94518238D01*
X141598952Y-95776143D02*
X142699619Y-95776143D01*
X143171333Y-97505762D02*
X141598952Y-97505762D01*
X141598952Y-94203762D01*
X143171333Y-94203762D01*
X146001619Y-95304429D02*
X146001619Y-97505762D01*
X145215429Y-94046524D02*
X144429238Y-96405095D01*
X146473334Y-96405095D01*
X148360191Y-94203762D02*
X148674667Y-94203762D01*
X148989143Y-94361000D01*
X149146381Y-94518238D01*
X149303619Y-94832714D01*
X149460858Y-95461667D01*
X149460858Y-96247857D01*
X149303619Y-96876810D01*
X149146381Y-97191286D01*
X148989143Y-97348524D01*
X148674667Y-97505762D01*
X148360191Y-97505762D01*
X148045715Y-97348524D01*
X147888477Y-97191286D01*
X147731238Y-96876810D01*
X147574000Y-96247857D01*
X147574000Y-95461667D01*
X147731238Y-94832714D01*
X147888477Y-94518238D01*
X148045715Y-94361000D01*
X148360191Y-94203762D01*
X150876000Y-96247857D02*
X153391810Y-96247857D01*
X154964190Y-97505762D02*
X154964190Y-94203762D01*
X157165524Y-94203762D02*
X157794476Y-94203762D01*
X158108952Y-94361000D01*
X158423429Y-94675476D01*
X158580667Y-95304429D01*
X158580667Y-96405095D01*
X158423429Y-97034048D01*
X158108952Y-97348524D01*
X157794476Y-97505762D01*
X157165524Y-97505762D01*
X156851048Y-97348524D01*
X156536571Y-97034048D01*
X156379333Y-96405095D01*
X156379333Y-95304429D01*
X156536571Y-94675476D01*
X156851048Y-94361000D01*
X157165524Y-94203762D01*
D13*
X139673143Y-123400429D02*
X139744572Y-123329000D01*
X139887429Y-123257571D01*
X140244572Y-123257571D01*
X140387429Y-123329000D01*
X140458858Y-123400429D01*
X140530286Y-123543286D01*
X140530286Y-123686143D01*
X140458858Y-123900429D01*
X139601715Y-124757571D01*
X140530286Y-124757571D01*
X143030286Y-124757571D02*
X142316000Y-124757571D01*
X142316000Y-123257571D01*
X144173143Y-124757571D02*
X144173143Y-123971857D01*
X144101714Y-123829000D01*
X143958857Y-123757571D01*
X143673143Y-123757571D01*
X143530286Y-123829000D01*
X144173143Y-124686143D02*
X144030286Y-124757571D01*
X143673143Y-124757571D01*
X143530286Y-124686143D01*
X143458857Y-124543286D01*
X143458857Y-124400429D01*
X143530286Y-124257571D01*
X143673143Y-124186143D01*
X144030286Y-124186143D01*
X144173143Y-124114714D01*
X144744572Y-123757571D02*
X145101715Y-124757571D01*
X145458857Y-123757571D02*
X145101715Y-124757571D01*
X144958857Y-125114714D01*
X144887429Y-125186143D01*
X144744572Y-125257571D01*
X146601714Y-124686143D02*
X146458857Y-124757571D01*
X146173143Y-124757571D01*
X146030286Y-124686143D01*
X145958857Y-124543286D01*
X145958857Y-123971857D01*
X146030286Y-123829000D01*
X146173143Y-123757571D01*
X146458857Y-123757571D01*
X146601714Y-123829000D01*
X146673143Y-123971857D01*
X146673143Y-124114714D01*
X145958857Y-124257571D01*
X147316000Y-124757571D02*
X147316000Y-123757571D01*
X147316000Y-124043286D02*
X147387428Y-123900429D01*
X147458857Y-123829000D01*
X147601714Y-123757571D01*
X147744571Y-123757571D01*
X148173142Y-124686143D02*
X148315999Y-124757571D01*
X148601714Y-124757571D01*
X148744571Y-124686143D01*
X148815999Y-124543286D01*
X148815999Y-124471857D01*
X148744571Y-124329000D01*
X148601714Y-124257571D01*
X148387428Y-124257571D01*
X148244571Y-124186143D01*
X148173142Y-124043286D01*
X148173142Y-123971857D01*
X148244571Y-123829000D01*
X148387428Y-123757571D01*
X148601714Y-123757571D01*
X148744571Y-123829000D01*
X150601714Y-124757571D02*
X150601714Y-123257571D01*
X151173142Y-123257571D01*
X151316000Y-123329000D01*
X151387428Y-123400429D01*
X151458857Y-123543286D01*
X151458857Y-123757571D01*
X151387428Y-123900429D01*
X151316000Y-123971857D01*
X151173142Y-124043286D01*
X150601714Y-124043286D01*
X152958857Y-124614714D02*
X152887428Y-124686143D01*
X152673142Y-124757571D01*
X152530285Y-124757571D01*
X152316000Y-124686143D01*
X152173142Y-124543286D01*
X152101714Y-124400429D01*
X152030285Y-124114714D01*
X152030285Y-123900429D01*
X152101714Y-123614714D01*
X152173142Y-123471857D01*
X152316000Y-123329000D01*
X152530285Y-123257571D01*
X152673142Y-123257571D01*
X152887428Y-123329000D01*
X152958857Y-123400429D01*
X154101714Y-123971857D02*
X154316000Y-124043286D01*
X154387428Y-124114714D01*
X154458857Y-124257571D01*
X154458857Y-124471857D01*
X154387428Y-124614714D01*
X154316000Y-124686143D01*
X154173142Y-124757571D01*
X153601714Y-124757571D01*
X153601714Y-123257571D01*
X154101714Y-123257571D01*
X154244571Y-123329000D01*
X154316000Y-123400429D01*
X154387428Y-123543286D01*
X154387428Y-123686143D01*
X154316000Y-123829000D01*
X154244571Y-123900429D01*
X154101714Y-123971857D01*
X153601714Y-123971857D01*
X142855715Y-126551571D02*
X142855715Y-127551571D01*
X142498572Y-125980143D02*
X142141429Y-127051571D01*
X143070001Y-127051571D01*
X144355715Y-126051571D02*
X143641429Y-126051571D01*
X143570000Y-126765857D01*
X143641429Y-126694429D01*
X143784286Y-126623000D01*
X144141429Y-126623000D01*
X144284286Y-126694429D01*
X144355715Y-126765857D01*
X144427143Y-126908714D01*
X144427143Y-127265857D01*
X144355715Y-127408714D01*
X144284286Y-127480143D01*
X144141429Y-127551571D01*
X143784286Y-127551571D01*
X143641429Y-127480143D01*
X143570000Y-127408714D01*
X144927143Y-127551571D02*
X145712857Y-126551571D01*
X144927143Y-126551571D02*
X145712857Y-127551571D01*
X146998572Y-126051571D02*
X146284286Y-126051571D01*
X146212857Y-126765857D01*
X146284286Y-126694429D01*
X146427143Y-126623000D01*
X146784286Y-126623000D01*
X146927143Y-126694429D01*
X146998572Y-126765857D01*
X147070000Y-126908714D01*
X147070000Y-127265857D01*
X146998572Y-127408714D01*
X146927143Y-127480143D01*
X146784286Y-127551571D01*
X146427143Y-127551571D01*
X146284286Y-127480143D01*
X146212857Y-127408714D01*
X147998571Y-126051571D02*
X148141428Y-126051571D01*
X148284285Y-126123000D01*
X148355714Y-126194429D01*
X148427143Y-126337286D01*
X148498571Y-126623000D01*
X148498571Y-126980143D01*
X148427143Y-127265857D01*
X148355714Y-127408714D01*
X148284285Y-127480143D01*
X148141428Y-127551571D01*
X147998571Y-127551571D01*
X147855714Y-127480143D01*
X147784285Y-127408714D01*
X147712857Y-127265857D01*
X147641428Y-126980143D01*
X147641428Y-126623000D01*
X147712857Y-126337286D01*
X147784285Y-126194429D01*
X147855714Y-126123000D01*
X147998571Y-126051571D01*
X149141428Y-127551571D02*
X149141428Y-126551571D01*
X149141428Y-126694429D02*
X149212856Y-126623000D01*
X149355714Y-126551571D01*
X149569999Y-126551571D01*
X149712856Y-126623000D01*
X149784285Y-126765857D01*
X149784285Y-127551571D01*
X149784285Y-126765857D02*
X149855714Y-126623000D01*
X149998571Y-126551571D01*
X150212856Y-126551571D01*
X150355714Y-126623000D01*
X150427142Y-126765857D01*
X150427142Y-127551571D01*
X151141428Y-127551571D02*
X151141428Y-126551571D01*
X151141428Y-126694429D02*
X151212856Y-126623000D01*
X151355714Y-126551571D01*
X151569999Y-126551571D01*
X151712856Y-126623000D01*
X151784285Y-126765857D01*
X151784285Y-127551571D01*
X151784285Y-126765857D02*
X151855714Y-126623000D01*
X151998571Y-126551571D01*
X152212856Y-126551571D01*
X152355714Y-126623000D01*
X152427142Y-126765857D01*
X152427142Y-127551571D01*
D11*
X152218572Y-100160667D02*
X152170192Y-100112286D01*
X152073430Y-99967143D01*
X152025049Y-99870381D01*
X151976668Y-99725238D01*
X151928287Y-99483333D01*
X151928287Y-99289810D01*
X151976668Y-99047905D01*
X152025049Y-98902762D01*
X152073430Y-98806000D01*
X152170192Y-98660857D01*
X152218572Y-98612476D01*
X153186191Y-99676857D02*
X153137810Y-99725238D01*
X152992667Y-99773619D01*
X152895905Y-99773619D01*
X152750763Y-99725238D01*
X152654001Y-99628476D01*
X152605620Y-99531714D01*
X152557239Y-99338190D01*
X152557239Y-99193048D01*
X152605620Y-98999524D01*
X152654001Y-98902762D01*
X152750763Y-98806000D01*
X152895905Y-98757619D01*
X152992667Y-98757619D01*
X153137810Y-98806000D01*
X153186191Y-98854381D01*
X153524858Y-100160667D02*
X153573239Y-100112286D01*
X153670001Y-99967143D01*
X153718382Y-99870381D01*
X153766763Y-99725238D01*
X153815144Y-99483333D01*
X153815144Y-99289810D01*
X153766763Y-99047905D01*
X153718382Y-98902762D01*
X153670001Y-98806000D01*
X153573239Y-98660857D01*
X153524858Y-98612476D01*
X155024667Y-98854381D02*
X155073048Y-98806000D01*
X155169810Y-98757619D01*
X155411714Y-98757619D01*
X155508476Y-98806000D01*
X155556857Y-98854381D01*
X155605238Y-98951143D01*
X155605238Y-99047905D01*
X155556857Y-99193048D01*
X154976286Y-99773619D01*
X155605238Y-99773619D01*
X156234191Y-98757619D02*
X156330952Y-98757619D01*
X156427714Y-98806000D01*
X156476095Y-98854381D01*
X156524476Y-98951143D01*
X156572857Y-99144667D01*
X156572857Y-99386571D01*
X156524476Y-99580095D01*
X156476095Y-99676857D01*
X156427714Y-99725238D01*
X156330952Y-99773619D01*
X156234191Y-99773619D01*
X156137429Y-99725238D01*
X156089048Y-99676857D01*
X156040667Y-99580095D01*
X155992286Y-99386571D01*
X155992286Y-99144667D01*
X156040667Y-98951143D01*
X156089048Y-98854381D01*
X156137429Y-98806000D01*
X156234191Y-98757619D01*
X157540476Y-99773619D02*
X156959905Y-99773619D01*
X157250191Y-99773619D02*
X157250191Y-98757619D01*
X157153429Y-98902762D01*
X157056667Y-98999524D01*
X156959905Y-99047905D01*
X158411333Y-98757619D02*
X158217810Y-98757619D01*
X158121048Y-98806000D01*
X158072667Y-98854381D01*
X157975905Y-98999524D01*
X157927524Y-99193048D01*
X157927524Y-99580095D01*
X157975905Y-99676857D01*
X158024286Y-99725238D01*
X158121048Y-99773619D01*
X158314571Y-99773619D01*
X158411333Y-99725238D01*
X158459714Y-99676857D01*
X158508095Y-99580095D01*
X158508095Y-99338190D01*
X158459714Y-99241429D01*
X158411333Y-99193048D01*
X158314571Y-99144667D01*
X158121048Y-99144667D01*
X158024286Y-99193048D01*
X157975905Y-99241429D01*
X157927524Y-99338190D01*
X125000000Y-120000000D02*
X125000000Y-70000000D01*
X170000000Y-120000000D02*
X125000000Y-120000000D01*
X170000000Y-70000000D02*
X170000000Y-120000000D01*
X125000000Y-70000000D02*
X170000000Y-70000000D01*
D14*
X152427600Y-78190500D02*
X152199000Y-78190500D01*
X151284600Y-79803400D02*
X151056000Y-79803400D01*
X150141600Y-78190500D02*
X149913000Y-78190500D01*
X148998600Y-79803400D02*
X148770000Y-79803400D01*
X147855600Y-78190500D02*
X147627000Y-78190500D01*
X146725300Y-79803400D02*
X146496700Y-79803400D01*
X145582300Y-78190500D02*
X145353700Y-78190500D01*
X144426600Y-79790700D02*
X144198000Y-79790700D01*
X143283600Y-78177800D02*
X143055000Y-78177800D01*
X142140600Y-79803400D02*
X141912000Y-79803400D01*
X143283600Y-80286000D02*
X143055000Y-80286000D01*
X143296300Y-83232400D02*
X143067700Y-83232400D01*
X145569600Y-80286000D02*
X145341000Y-80286000D01*
X145569600Y-83232400D02*
X145341000Y-83232400D01*
X147855600Y-80286000D02*
X147627000Y-80286000D01*
X147855600Y-83232400D02*
X147627000Y-83232400D01*
X150141600Y-80298700D02*
X149913000Y-80298700D01*
X150141600Y-83232400D02*
X149913000Y-83232400D01*
X152427600Y-80286000D02*
X152199000Y-80286000D01*
X152427600Y-83232400D02*
X152199000Y-83232400D01*
D15*
X142039000Y-79701800D02*
X142039000Y-73923300D01*
X144325000Y-79701800D02*
X144325000Y-73923300D01*
X146611000Y-79701800D02*
X146611000Y-73923300D01*
X148897000Y-79701800D02*
X148897000Y-73923300D01*
X151183000Y-79701800D02*
X151183000Y-73923300D01*
X143182000Y-78076200D02*
X143182000Y-73961400D01*
X145468000Y-78076200D02*
X145468000Y-73961400D01*
X147741300Y-78088900D02*
X147741300Y-73974100D01*
X150027300Y-78063500D02*
X150027300Y-73948700D01*
X152313300Y-78063500D02*
X152313300Y-73948700D01*
X143182000Y-83130800D02*
X143182000Y-80400300D01*
X145455300Y-83130800D02*
X145455300Y-80400300D01*
X147741300Y-83130800D02*
X147741300Y-80400300D01*
X150027300Y-83130800D02*
X150027300Y-80400300D01*
X152313300Y-83118100D02*
X152313300Y-80387600D01*
D16*
X146801500Y-73778520D02*
X146400180Y-73778520D01*
X146400180Y-73778520D02*
X146400180Y-79877060D01*
X146801500Y-79877060D02*
X146400180Y-79877060D01*
X146801500Y-73778520D02*
X146801500Y-79877060D01*
X149084960Y-73778520D02*
X148683640Y-73778520D01*
X148683640Y-73778520D02*
X148683640Y-79877060D01*
X149084960Y-79877060D02*
X148683640Y-79877060D01*
X149084960Y-73778520D02*
X149084960Y-79877060D01*
X151370960Y-73778520D02*
X150969640Y-73778520D01*
X150969640Y-73778520D02*
X150969640Y-79877060D01*
X151370960Y-79877060D02*
X150969640Y-79877060D01*
X151370960Y-73778520D02*
X151370960Y-79877060D01*
X144515500Y-73778520D02*
X144114180Y-73778520D01*
X144114180Y-73778520D02*
X144114180Y-79877060D01*
X144515500Y-79877060D02*
X144114180Y-79877060D01*
X144515500Y-73778520D02*
X144515500Y-79877060D01*
X142229500Y-73778520D02*
X141828180Y-73778520D01*
X141828180Y-73778520D02*
X141828180Y-79877060D01*
X142229500Y-79877060D02*
X141828180Y-79877060D01*
X142229500Y-73778520D02*
X142229500Y-79877060D01*
X147941960Y-73758200D02*
X147540640Y-73758200D01*
X147540640Y-73758200D02*
X147540640Y-78266700D01*
X147941960Y-78266700D02*
X147540640Y-78266700D01*
X147941960Y-73758200D02*
X147941960Y-78266700D01*
X150227960Y-73758200D02*
X149826640Y-73758200D01*
X149826640Y-73758200D02*
X149826640Y-78266700D01*
X150227960Y-78266700D02*
X149826640Y-78266700D01*
X150227960Y-73758200D02*
X150227960Y-78266700D01*
X152513960Y-73758200D02*
X152112640Y-73758200D01*
X152112640Y-73758200D02*
X152112640Y-78266700D01*
X152513960Y-78266700D02*
X152112640Y-78266700D01*
X152513960Y-73758200D02*
X152513960Y-78266700D01*
X145658500Y-73758200D02*
X145257180Y-73758200D01*
X145257180Y-73758200D02*
X145257180Y-78266700D01*
X145658500Y-78266700D02*
X145257180Y-78266700D01*
X145658500Y-73758200D02*
X145658500Y-78266700D01*
X143372500Y-73758200D02*
X142971180Y-73758200D01*
X142971180Y-73758200D02*
X142971180Y-78266700D01*
X143372500Y-78266700D02*
X142971180Y-78266700D01*
X143372500Y-73758200D02*
X143372500Y-78266700D01*
X152513960Y-80209800D02*
X152112640Y-80209800D01*
X152112640Y-80209800D02*
X152112640Y-83308600D01*
X152513960Y-83308600D02*
X152112640Y-83308600D01*
X152513960Y-80209800D02*
X152513960Y-83308600D01*
X150227960Y-80209800D02*
X149826640Y-80209800D01*
X149826640Y-80209800D02*
X149826640Y-83308600D01*
X150227960Y-83308600D02*
X149826640Y-83308600D01*
X150227960Y-80209800D02*
X150227960Y-83308600D01*
X147941960Y-80209800D02*
X147540640Y-80209800D01*
X147540640Y-80209800D02*
X147540640Y-83308600D01*
X147941960Y-83308600D02*
X147540640Y-83308600D01*
X147941960Y-80209800D02*
X147941960Y-83308600D01*
X145658500Y-80209800D02*
X145257180Y-80209800D01*
X145257180Y-80209800D02*
X145257180Y-83308600D01*
X145658500Y-83308600D02*
X145257180Y-83308600D01*
X145658500Y-80209800D02*
X145658500Y-83308600D01*
X143372500Y-80209800D02*
X142971180Y-80209800D01*
X142971180Y-80209800D02*
X142971180Y-83308600D01*
X143372500Y-83308600D02*
X142971180Y-83308600D01*
X143372500Y-80209800D02*
X143372500Y-83308600D01*
D11*
X162994000Y-70103140D02*
X162994000Y-73758200D01*
X137886100Y-71012460D02*
X137886100Y-70103140D01*
X137886100Y-71012460D02*
X138013100Y-71012460D01*
X138013100Y-71012460D02*
X156986900Y-71012460D01*
X138013100Y-73123200D02*
X138013100Y-71012460D01*
X157113900Y-71012460D02*
X157113900Y-70103140D01*
X156986900Y-73123200D02*
X156986900Y-71012460D01*
X156986900Y-71012460D02*
X157113900Y-71012460D01*
X132641000Y-86255000D02*
X132006000Y-85620000D01*
X132006000Y-85620000D02*
X132006000Y-70103140D01*
X137467000Y-86255000D02*
X132641000Y-86255000D01*
X137467000Y-86255000D02*
X137975000Y-85747000D01*
X137975000Y-85747000D02*
X137975000Y-73758200D01*
X157025000Y-85747000D02*
X157025000Y-73758200D01*
X157025000Y-85747000D02*
X157533000Y-86255000D01*
X157533000Y-86255000D02*
X162486000Y-86255000D01*
X162486000Y-86255000D02*
X162994000Y-85747000D01*
X162994000Y-85747000D02*
X162994000Y-73758200D01*
X139372000Y-69460520D02*
X139372000Y-64967260D01*
X155628000Y-69460520D02*
X155628000Y-64967260D01*
X139880000Y-64459260D02*
X155120000Y-64459260D01*
X132026320Y-70085360D02*
X162879700Y-70085360D01*
X132026320Y-73758200D02*
X162994000Y-73758200D01*
X139880000Y-64459260D02*
G75*
G03X139372000Y-64967260I0J-508000D01*
G01*
X155628000Y-64967260D02*
G75*
G03X155120000Y-64459260I-508000J0D01*
G01*
X138013100Y-73123200D02*
G75*
G03X138648100Y-73758200I635000J0D01*
G01*
X156351900Y-73758200D02*
G75*
G03X156986900Y-73123200I0J635000D01*
G01*
X138739540Y-70092980D02*
G75*
G03X139372000Y-69460520I0J632460D01*
G01*
X155625460Y-69460520D02*
G75*
G03X156260460Y-70095520I635000J0D01*
G01*
X156146500Y-112014000D02*
X156146500Y-112268000D01*
X156146500Y-112014000D02*
X156146500Y-111760000D01*
X157035500Y-112014000D02*
X157035500Y-111760000D01*
X157035500Y-112014000D02*
X157035500Y-112268000D01*
X157988000Y-111506000D02*
X157988000Y-112522000D01*
X159512000Y-111506000D02*
X159512000Y-112522000D01*
X162369500Y-112014000D02*
X162369500Y-111760000D01*
X162369500Y-112014000D02*
X162369500Y-112268000D01*
X161480500Y-112014000D02*
X161480500Y-112268000D01*
X161480500Y-112014000D02*
X161480500Y-111760000D01*
X160464500Y-112014000D02*
X160464500Y-112268000D01*
X160464500Y-112014000D02*
X160464500Y-111760000D01*
X161353500Y-112014000D02*
X161353500Y-111760000D01*
X161353500Y-112014000D02*
X161353500Y-112268000D01*
X153860500Y-112014000D02*
X153860500Y-112268000D01*
X153860500Y-112014000D02*
X153860500Y-111760000D01*
X154749500Y-112014000D02*
X154749500Y-111760000D01*
X154749500Y-112014000D02*
X154749500Y-112268000D01*
X155130500Y-112014000D02*
X155130500Y-112268000D01*
X155130500Y-112014000D02*
X155130500Y-111760000D01*
X156019500Y-112014000D02*
X156019500Y-111760000D01*
X156019500Y-112014000D02*
X156019500Y-112268000D01*
X160464500Y-112014000D02*
X160464500Y-111760000D01*
X160464500Y-112014000D02*
X160464500Y-112268000D01*
X159575500Y-112014000D02*
X159575500Y-112268000D01*
X159575500Y-112014000D02*
X159575500Y-111760000D01*
X137731500Y-104775000D02*
X137731500Y-104521000D01*
X137731500Y-104775000D02*
X137731500Y-105029000D01*
X136842500Y-104775000D02*
X136842500Y-105029000D01*
X136842500Y-104775000D02*
X136842500Y-104521000D01*
X142430500Y-104775000D02*
X142430500Y-105029000D01*
X142430500Y-104775000D02*
X142430500Y-104521000D01*
X143319500Y-104775000D02*
X143319500Y-104521000D01*
X143319500Y-104775000D02*
X143319500Y-105029000D01*
X147256500Y-104775000D02*
X147256500Y-104521000D01*
X147256500Y-104775000D02*
X147256500Y-105029000D01*
X146367500Y-104775000D02*
X146367500Y-105029000D01*
X146367500Y-104775000D02*
X146367500Y-104521000D01*
X152750000Y-116500000D02*
X153500000Y-116500000D01*
X162000000Y-116500000D02*
X162750000Y-116500000D01*
X162750000Y-116500000D02*
X162750000Y-120000000D01*
X162750000Y-120000000D02*
X159000000Y-120000000D01*
X159000000Y-120000000D02*
X156500000Y-120000000D01*
X156500000Y-120000000D02*
X153000000Y-120000000D01*
X153000000Y-120000000D02*
X152750000Y-120000000D01*
X152750000Y-120000000D02*
X152750000Y-116500000D01*
X153000000Y-120000000D02*
G75*
G03X156500000Y-120000000I1750000J0D01*
G01*
X159000000Y-120000000D02*
G75*
G03X162500000Y-120000000I1750000J0D01*
G01*
X162306000Y-106807000D02*
X162306000Y-109601000D01*
X162052000Y-106553000D02*
X160528000Y-106553000D01*
X162052000Y-109855000D02*
X160528000Y-109855000D01*
X160274000Y-109601000D02*
X160274000Y-106807000D01*
X160528000Y-106553000D02*
G75*
G03X160274000Y-106807000I0J-254000D01*
G01*
X160274000Y-109601000D02*
G75*
G03X160528000Y-109855000I254000J0D01*
G01*
X162052000Y-109855000D02*
G75*
G03X162306000Y-109601000I0J254000D01*
G01*
X162306000Y-106807000D02*
G75*
G03X162052000Y-106553000I-254000J0D01*
G01*
X139762000Y-89508000D02*
X139762000Y-88492000D01*
X138238000Y-89508000D02*
X138238000Y-88492000D01*
X142762000Y-89508000D02*
X142762000Y-88492000D01*
X141238000Y-89508000D02*
X141238000Y-88492000D01*
X146262000Y-89508000D02*
X146262000Y-88492000D01*
X144738000Y-89508000D02*
X144738000Y-88492000D01*
X147762000Y-89508000D02*
X147762000Y-88492000D01*
X146238000Y-89508000D02*
X146238000Y-88492000D01*
X151262000Y-89508000D02*
X151262000Y-88492000D01*
X149738000Y-89508000D02*
X149738000Y-88492000D01*
X145097500Y-104775000D02*
X145097500Y-104521000D01*
X145097500Y-104775000D02*
X145097500Y-105029000D01*
X144208500Y-104775000D02*
X144208500Y-105029000D01*
X144208500Y-104775000D02*
X144208500Y-104521000D01*
X140017500Y-104775000D02*
X140017500Y-104521000D01*
X140017500Y-104775000D02*
X140017500Y-105029000D01*
X139128500Y-104775000D02*
X139128500Y-105029000D01*
X139128500Y-104775000D02*
X139128500Y-104521000D01*
X154559000Y-107696000D02*
X154559000Y-108712000D01*
X156591000Y-107696000D02*
X156591000Y-108712000D01*
X153670000Y-111252000D02*
X153670000Y-112776000D01*
X151384000Y-111252000D02*
X151384000Y-112776000D01*
X159258000Y-108712000D02*
X159258000Y-107696000D01*
X157226000Y-108712000D02*
X157226000Y-107696000D01*
X141262000Y-89508000D02*
X141262000Y-88492000D01*
X139738000Y-89508000D02*
X139738000Y-88492000D01*
X140906500Y-104775000D02*
X140906500Y-105029000D01*
X140906500Y-104775000D02*
X140906500Y-104521000D01*
X141795500Y-104775000D02*
X141795500Y-104521000D01*
X141795500Y-104775000D02*
X141795500Y-105029000D01*
X144762000Y-89508000D02*
X144762000Y-88492000D01*
X143238000Y-89508000D02*
X143238000Y-88492000D01*
X140906500Y-104775000D02*
X140906500Y-104521000D01*
X140906500Y-104775000D02*
X140906500Y-105029000D01*
X140017500Y-104775000D02*
X140017500Y-105029000D01*
X140017500Y-104775000D02*
X140017500Y-104521000D01*
X149762000Y-89508000D02*
X149762000Y-88492000D01*
X148238000Y-89508000D02*
X148238000Y-88492000D01*
X144208500Y-104775000D02*
X144208500Y-104521000D01*
X144208500Y-104775000D02*
X144208500Y-105029000D01*
X143319500Y-104775000D02*
X143319500Y-105029000D01*
X143319500Y-104775000D02*
X143319500Y-104521000D01*
X152762000Y-89508000D02*
X152762000Y-88492000D01*
X151238000Y-89508000D02*
X151238000Y-88492000D01*
D17*
X147586700Y-98539300D02*
X147586700Y-98554540D01*
X147571460Y-98541840D02*
X147591780Y-98541840D01*
X147594320Y-98536760D02*
X147594320Y-98567240D01*
X147558760Y-98531680D02*
X147596860Y-98531680D01*
X147518120Y-98521520D02*
X147604480Y-98521520D01*
X147604480Y-98521520D02*
X147604480Y-98618040D01*
X146057620Y-98546920D02*
X146072860Y-98546920D01*
X146055080Y-98526600D02*
X146055080Y-98567240D01*
X146098260Y-98534220D02*
X146052540Y-98534220D01*
X146044920Y-98618040D02*
X146044920Y-98521520D01*
X146044920Y-98521520D02*
X146372580Y-98521520D01*
X145473420Y-99616260D02*
X145658840Y-99616260D01*
X145473420Y-99628960D02*
X145656300Y-99628960D01*
X145473420Y-99641660D02*
X145656300Y-99641660D01*
X145475960Y-99654360D02*
X145658840Y-99654360D01*
X145470880Y-99667060D02*
X145470880Y-98844100D01*
X145661380Y-99570540D02*
X145661380Y-99667060D01*
X145661380Y-99667060D02*
X145470880Y-99667060D01*
X144973040Y-98541840D02*
X144973040Y-98620580D01*
X144787620Y-98541840D02*
X144787620Y-98615500D01*
D18*
X144904460Y-98572320D02*
X144952720Y-98572320D01*
X144807940Y-98569780D02*
X144856200Y-98569780D01*
D19*
X144881600Y-98539300D02*
X144983200Y-98539300D01*
X144983200Y-98539300D02*
X144983200Y-99796600D01*
X145034000Y-100088700D02*
X145021300Y-100076000D01*
X145021300Y-100088700D02*
X145338800Y-100088700D01*
X144792700Y-99872800D02*
X144780000Y-99847400D01*
X144780000Y-99834700D02*
X144780000Y-99847400D01*
X144780000Y-99847400D02*
X144780000Y-99860100D01*
X144780000Y-99860100D02*
X145021300Y-100088700D01*
X144881600Y-98539300D02*
X144780000Y-98539300D01*
X144780000Y-98539300D02*
X144780000Y-99834700D01*
D14*
X144386300Y-99999800D02*
X143891000Y-99999800D01*
X143891000Y-99999800D02*
X143738600Y-99860100D01*
X143738600Y-98958400D02*
X143738600Y-98793300D01*
X143738600Y-98793300D02*
X143891000Y-98640900D01*
X143891000Y-98640900D02*
X144373600Y-98640900D01*
D20*
X148788139Y-99314000D02*
G75*
G03X148788139Y-99314000I-172739J0D01*
G01*
D14*
X148412200Y-99314000D02*
X147980400Y-99314000D01*
D20*
X149829539Y-98704400D02*
G75*
G03X149829539Y-98704400I-172739J0D01*
G01*
D14*
X149250400Y-99136200D02*
X149504400Y-98882200D01*
X149047200Y-99136200D02*
X149250400Y-99136200D01*
X148551900Y-98640900D02*
X149047200Y-99136200D01*
X148158200Y-98640900D02*
X148551900Y-98640900D01*
X147980400Y-99326700D02*
X147980400Y-98818700D01*
X147980400Y-98818700D02*
X148158200Y-98640900D01*
X147980400Y-99885500D02*
X147980400Y-99314000D01*
X148145500Y-100063300D02*
X147980400Y-99885500D01*
X148539200Y-100063300D02*
X148145500Y-100063300D01*
X149047200Y-99555300D02*
X148539200Y-100063300D01*
X149237700Y-99555300D02*
X149047200Y-99555300D01*
X149529800Y-99847400D02*
X149237700Y-99555300D01*
D20*
X149816839Y-100012500D02*
G75*
G03X149816839Y-100012500I-172739J0D01*
G01*
X147683239Y-99999800D02*
G75*
G03X147683239Y-99999800I-172739J0D01*
G01*
D14*
X147510500Y-98615500D02*
X147510500Y-99745800D01*
X147294600Y-98615500D02*
X147510500Y-98615500D01*
D20*
X146984739Y-99491800D02*
G75*
G03X146984739Y-99491800I-172739J0D01*
G01*
D14*
X146812000Y-99085400D02*
X147294600Y-98615500D01*
X146812000Y-99060000D02*
X146812000Y-99263200D01*
X146367500Y-98615500D02*
X146812000Y-99060000D01*
X146138900Y-98615500D02*
X146367500Y-98615500D01*
X146138900Y-99783900D02*
X146138900Y-98615500D01*
D20*
X146311639Y-99999800D02*
G75*
G03X146311639Y-99999800I-172739J0D01*
G01*
X145740139Y-98628200D02*
G75*
G03X145740139Y-98628200I-172739J0D01*
G01*
D14*
X145567400Y-98856800D02*
X145567400Y-99568000D01*
D20*
X145740139Y-99999800D02*
G75*
G03X145740139Y-99999800I-172739J0D01*
G01*
D14*
X145059400Y-99987100D02*
X145338800Y-99987100D01*
X144881600Y-99822000D02*
X145059400Y-99987100D01*
X144881600Y-98640900D02*
X144881600Y-99822000D01*
X143738600Y-99390200D02*
X143738600Y-99834700D01*
X144386300Y-99999800D02*
X144526000Y-99860100D01*
X144526000Y-98831400D02*
X144526000Y-99834700D01*
X144373600Y-98642700D02*
X144526000Y-98793300D01*
D20*
X143911339Y-99161600D02*
G75*
G03X143911339Y-99161600I-172739J0D01*
G01*
D21*
X129438400Y-105143300D02*
X129641600Y-105143300D01*
X129438400Y-107670600D02*
X129641600Y-107670600D01*
X129438400Y-110236000D02*
X129641600Y-110236000D01*
X129438400Y-112776000D02*
X129641600Y-112776000D01*
X129438400Y-115316000D02*
X129641600Y-115316000D01*
X126453900Y-74663300D02*
X126949200Y-74663300D01*
X126453900Y-92430600D02*
X126949200Y-92430600D01*
X126453900Y-94996000D02*
X126949200Y-94996000D01*
X126453900Y-97536000D02*
X126949200Y-97536000D01*
X126479300Y-115316000D02*
X126974600Y-115316000D01*
D11*
X124373640Y-117993160D02*
X124368560Y-115194080D01*
X124368560Y-115194080D02*
X120362980Y-115189000D01*
X120362980Y-115189000D02*
X120365520Y-117993160D01*
X120365520Y-117993160D02*
X124371100Y-117993160D01*
D20*
X121094500Y-74914760D02*
X120830340Y-75237340D01*
X120777000Y-74201020D02*
X120972580Y-74307700D01*
X122039380Y-74597260D02*
X122336560Y-74658220D01*
X120683020Y-75633580D02*
X122229880Y-74658220D01*
X122229880Y-74658220D02*
X120683020Y-73842880D01*
X120683020Y-73842880D02*
X120675400Y-75504040D01*
X120675400Y-75504040D02*
X122016520Y-74673460D01*
X122016520Y-74673460D02*
X120759220Y-74002900D01*
X120759220Y-74002900D02*
X120774460Y-75374500D01*
X120774460Y-75374500D02*
X121803160Y-74673460D01*
X121803160Y-74673460D02*
X120827800Y-74132440D01*
X120827800Y-74132440D02*
X120881140Y-75161140D01*
X120881140Y-75161140D02*
X121627900Y-74635360D01*
X121627900Y-74635360D02*
X120888760Y-74345800D01*
X120888760Y-74345800D02*
X120972580Y-74932540D01*
X120972580Y-74932540D02*
X121414540Y-74642980D01*
X121414540Y-74642980D02*
X120964960Y-74498200D01*
X120964960Y-74498200D02*
X121010680Y-74780140D01*
X121010680Y-74780140D02*
X121117360Y-74604880D01*
X121117360Y-74604880D02*
X121185940Y-74711560D01*
X121185940Y-74711560D02*
X121193560Y-74703940D01*
X120604280Y-75613260D02*
X120599200Y-75806300D01*
X120599200Y-75648820D02*
X120599200Y-73652380D01*
X120599200Y-73652380D02*
X122488960Y-74658220D01*
X122488960Y-74658220D02*
X120675400Y-75785980D01*
X120675400Y-75785980D02*
X120599200Y-75831700D01*
D11*
X124540000Y-92996000D02*
X118540000Y-92996000D01*
X124540000Y-96996000D02*
X118540000Y-96996000D01*
X124540000Y-92996000D02*
X124540000Y-96996000D01*
X126314200Y-70996000D02*
X118540000Y-70996000D01*
X126314200Y-118996000D02*
X118540000Y-118996000D01*
X118540000Y-118996000D02*
X118540000Y-70996000D01*
X126314200Y-118996000D02*
X126314200Y-70996000D01*
D21*
X126453900Y-100076000D02*
X126949200Y-100076000D01*
X126453900Y-102616000D02*
X126949200Y-102616000D01*
X126453900Y-105156000D02*
X126949200Y-105156000D01*
X126453900Y-107696000D02*
X126949200Y-107696000D01*
X126453900Y-110236000D02*
X126949200Y-110236000D01*
X126453900Y-112776000D02*
X126949200Y-112776000D01*
X129438400Y-102590600D02*
X129641600Y-102590600D01*
X129438400Y-100063300D02*
X129641600Y-100063300D01*
X129438400Y-97510600D02*
X129641600Y-97510600D01*
X129438400Y-94983300D02*
X129641600Y-94983300D01*
X129438400Y-92456000D02*
X129641600Y-92456000D01*
X129438400Y-84823300D02*
X129641600Y-84823300D01*
X129438400Y-77190600D02*
X129641600Y-77190600D01*
X129438400Y-74663300D02*
X129641600Y-74663300D01*
X129438400Y-79743300D02*
X129641600Y-79743300D01*
X129438400Y-82270600D02*
X129641600Y-82270600D01*
X129438400Y-89916000D02*
X129641600Y-89916000D01*
X129438400Y-87350600D02*
X129641600Y-87350600D01*
X126453900Y-89916000D02*
X126949200Y-89916000D01*
X126453900Y-87376000D02*
X126949200Y-87376000D01*
X126453900Y-84836000D02*
X126949200Y-84836000D01*
X126453900Y-82296000D02*
X126949200Y-82296000D01*
X126453900Y-79756000D02*
X126949200Y-79756000D01*
X126453900Y-77216000D02*
X126949200Y-77216000D01*
X165836600Y-84848700D02*
X165633400Y-84848700D01*
X165836600Y-82321400D02*
X165633400Y-82321400D01*
X165836600Y-79756000D02*
X165633400Y-79756000D01*
X165836600Y-77216000D02*
X165633400Y-77216000D01*
X165836600Y-74676000D02*
X165633400Y-74676000D01*
X168821100Y-115328700D02*
X168325800Y-115328700D01*
X168821100Y-97561400D02*
X168325800Y-97561400D01*
X168821100Y-94996000D02*
X168325800Y-94996000D01*
X168821100Y-92456000D02*
X168325800Y-92456000D01*
X168795700Y-74676000D02*
X168300400Y-74676000D01*
D11*
X168808400Y-118237000D02*
X168135300Y-118237000D01*
X168135300Y-118237000D02*
X168135300Y-119240300D01*
X168135300Y-119240300D02*
X168808400Y-119240300D01*
X168795700Y-70751700D02*
X168135300Y-70751700D01*
X168135300Y-70751700D02*
X168135300Y-71755000D01*
X168135300Y-71755000D02*
X168808400Y-71755000D01*
X170901360Y-117083840D02*
X170906440Y-119882920D01*
X170906440Y-119882920D02*
X174912020Y-119888000D01*
X174912020Y-119888000D02*
X174909480Y-117083840D01*
X174909480Y-117083840D02*
X170903900Y-117083840D01*
X176657000Y-113030000D02*
X176657000Y-115062000D01*
X176662080Y-115062000D02*
X177673000Y-115062000D01*
X177673000Y-113030000D02*
X176672240Y-113030000D01*
X172923200Y-114835940D02*
G75*
G03X172923200Y-113372900I-731520J731520D01*
G01*
X171262040Y-114866420D02*
X172836840Y-114866420D01*
X171241720Y-113317020D02*
X172836840Y-113322100D01*
X170327320Y-113311940D02*
X171267120Y-113317020D01*
X171267120Y-113317020D02*
X171267120Y-114876580D01*
X171267120Y-114876580D02*
X170337480Y-114876580D01*
X170340020Y-116230400D02*
X170340020Y-114874040D01*
X170327320Y-112420400D02*
X170327320Y-113311940D01*
D20*
X174150020Y-94884240D02*
X171914820Y-94856300D01*
D11*
X177673000Y-116248180D02*
X168960800Y-116248180D01*
D20*
X172105320Y-94871540D02*
X171330620Y-94858840D01*
X171330620Y-94858840D02*
X171333160Y-95250000D01*
X176085500Y-74437240D02*
X176349660Y-74114660D01*
X176403000Y-75150980D02*
X176207420Y-75044300D01*
X175140620Y-74754740D02*
X174843440Y-74693780D01*
X176496980Y-73718420D02*
X174950120Y-74693780D01*
X174950120Y-74693780D02*
X176496980Y-75509120D01*
X176496980Y-75509120D02*
X176504600Y-73847960D01*
X176504600Y-73847960D02*
X175163480Y-74678540D01*
X175163480Y-74678540D02*
X176420780Y-75349100D01*
X176420780Y-75349100D02*
X176405540Y-73977500D01*
X176405540Y-73977500D02*
X175376840Y-74678540D01*
X175376840Y-74678540D02*
X176352200Y-75219560D01*
X176352200Y-75219560D02*
X176298860Y-74190860D01*
X176298860Y-74190860D02*
X175552100Y-74716640D01*
X175552100Y-74716640D02*
X176291240Y-75006200D01*
X176291240Y-75006200D02*
X176207420Y-74419460D01*
X176207420Y-74419460D02*
X175765460Y-74709020D01*
X175765460Y-74709020D02*
X176215040Y-74853800D01*
X176215040Y-74853800D02*
X176169320Y-74571860D01*
X176169320Y-74571860D02*
X176062640Y-74747120D01*
X176062640Y-74747120D02*
X175994060Y-74640440D01*
X175994060Y-74640440D02*
X175986440Y-74648060D01*
X176575720Y-73738740D02*
X176580800Y-73545700D01*
X176580800Y-73703180D02*
X176580800Y-75699620D01*
X176580800Y-75699620D02*
X174691040Y-74693780D01*
X174691040Y-74693780D02*
X176504600Y-73566020D01*
X176504600Y-73566020D02*
X176580800Y-73520300D01*
X176763680Y-95283020D02*
X171383960Y-95237300D01*
X176748440Y-95161100D02*
X171383960Y-95145860D01*
X176748440Y-95039180D02*
X171353480Y-95023940D01*
X176748440Y-94917260D02*
X171368720Y-94932500D01*
X176794160Y-94780100D02*
X171323000Y-94780100D01*
X171236640Y-94640400D02*
X176794160Y-94640400D01*
X176794160Y-94640400D02*
X176794160Y-95351600D01*
X176794160Y-95351600D02*
X171246800Y-95351600D01*
D11*
X171229020Y-92854780D02*
X171229020Y-97155000D01*
X170327320Y-112420400D02*
X168993820Y-112420400D01*
X170205400Y-97155000D02*
X177673000Y-97155000D01*
X170205400Y-92837000D02*
X177673000Y-92837000D01*
X170202860Y-97155000D02*
X170202860Y-92837000D01*
X168960800Y-120396000D02*
X177673000Y-120396000D01*
X168960800Y-69596000D02*
X177673000Y-69596000D01*
X177673000Y-69596000D02*
X177673000Y-120396000D01*
X168960800Y-69596000D02*
X168960800Y-120396000D01*
D21*
X168821100Y-89916000D02*
X168325800Y-89916000D01*
X168821100Y-87376000D02*
X168325800Y-87376000D01*
X168821100Y-84836000D02*
X168325800Y-84836000D01*
X168821100Y-82296000D02*
X168325800Y-82296000D01*
X168821100Y-79756000D02*
X168325800Y-79756000D01*
X168821100Y-77216000D02*
X168325800Y-77216000D01*
X165836600Y-87401400D02*
X165633400Y-87401400D01*
X165836600Y-89928700D02*
X165633400Y-89928700D01*
X165836600Y-92481400D02*
X165633400Y-92481400D01*
X165836600Y-95008700D02*
X165633400Y-95008700D01*
X165836600Y-97536000D02*
X165633400Y-97536000D01*
X165836600Y-105168700D02*
X165633400Y-105168700D01*
X165836600Y-112801400D02*
X165633400Y-112801400D01*
X165836600Y-115328700D02*
X165633400Y-115328700D01*
X165836600Y-110248700D02*
X165633400Y-110248700D01*
X165836600Y-107721400D02*
X165633400Y-107721400D01*
X165836600Y-100076000D02*
X165633400Y-100076000D01*
X165836600Y-102641400D02*
X165633400Y-102641400D01*
X168821100Y-100076000D02*
X168325800Y-100076000D01*
X168821100Y-102616000D02*
X168325800Y-102616000D01*
X168821100Y-105156000D02*
X168325800Y-105156000D01*
X168821100Y-107696000D02*
X168325800Y-107696000D01*
X168821100Y-110236000D02*
X168325800Y-110236000D01*
X168821100Y-112776000D02*
X168325800Y-112776000D01*
D11*
X133502300Y-107000140D02*
X147497700Y-107000140D01*
X147497700Y-107000140D02*
X147497700Y-112501780D01*
X147497700Y-116499740D02*
X147497700Y-119999860D01*
X147497700Y-119999860D02*
X133502300Y-119999860D01*
X133502300Y-119999860D02*
X133502300Y-116499740D01*
X133502300Y-112501780D02*
X133502300Y-107000140D01*
X157346096Y-87154619D02*
X157712763Y-88254619D01*
X158079429Y-87154619D01*
X159022286Y-87207000D02*
X158917524Y-87154619D01*
X158760381Y-87154619D01*
X158603239Y-87207000D01*
X158498477Y-87311762D01*
X158446096Y-87416524D01*
X158393715Y-87626048D01*
X158393715Y-87783190D01*
X158446096Y-87992714D01*
X158498477Y-88097476D01*
X158603239Y-88202238D01*
X158760381Y-88254619D01*
X158865143Y-88254619D01*
X159022286Y-88202238D01*
X159074667Y-88149857D01*
X159074667Y-87783190D01*
X158865143Y-87783190D01*
X159493715Y-87940333D02*
X160017524Y-87940333D01*
X159388953Y-88254619D02*
X159755620Y-87154619D01*
X160122286Y-88254619D01*
X161065143Y-88254619D02*
X160436572Y-88254619D01*
X160750858Y-88254619D02*
X160750858Y-87154619D01*
X160646096Y-87311762D01*
X160541334Y-87416524D01*
X160436572Y-87468905D01*
X140502905Y-80987524D02*
X140261000Y-80987524D01*
X140140048Y-81048000D01*
X140079571Y-81108476D01*
X139958619Y-81289905D01*
X139898143Y-81531810D01*
X139898143Y-82015619D01*
X139958619Y-82136571D01*
X140019095Y-82197048D01*
X140140048Y-82257524D01*
X140381952Y-82257524D01*
X140502905Y-82197048D01*
X140563381Y-82136571D01*
X140623857Y-82015619D01*
X140623857Y-81713238D01*
X140563381Y-81592286D01*
X140502905Y-81531810D01*
X140381952Y-81471333D01*
X140140048Y-81471333D01*
X140019095Y-81531810D01*
X139958619Y-81592286D01*
X139898143Y-81713238D01*
X154497095Y-82384524D02*
X153771381Y-82384524D01*
X154134238Y-82384524D02*
X154134238Y-81114524D01*
X154013286Y-81295952D01*
X153892333Y-81416905D01*
X153771381Y-81477381D01*
X155283286Y-81114524D02*
X155404238Y-81114524D01*
X155525190Y-81175000D01*
X155585667Y-81235476D01*
X155646143Y-81356429D01*
X155706619Y-81598333D01*
X155706619Y-81900714D01*
X155646143Y-82142619D01*
X155585667Y-82263571D01*
X155525190Y-82324048D01*
X155404238Y-82384524D01*
X155283286Y-82384524D01*
X155162333Y-82324048D01*
X155101857Y-82263571D01*
X155041381Y-82142619D01*
X154980905Y-81900714D01*
X154980905Y-81598333D01*
X155041381Y-81356429D01*
X155101857Y-81235476D01*
X155162333Y-81175000D01*
X155283286Y-81114524D01*
X154624095Y-79844524D02*
X153898381Y-79844524D01*
X154261238Y-79844524D02*
X154261238Y-78574524D01*
X154140286Y-78755952D01*
X154019333Y-78876905D01*
X153898381Y-78937381D01*
X155773143Y-78574524D02*
X155168381Y-78574524D01*
X155107905Y-79179286D01*
X155168381Y-79118810D01*
X155289333Y-79058333D01*
X155591714Y-79058333D01*
X155712667Y-79118810D01*
X155773143Y-79179286D01*
X155833619Y-79300238D01*
X155833619Y-79602619D01*
X155773143Y-79723571D01*
X155712667Y-79784048D01*
X155591714Y-79844524D01*
X155289333Y-79844524D01*
X155168381Y-79784048D01*
X155107905Y-79723571D01*
X139892095Y-79844524D02*
X139166381Y-79844524D01*
X139529238Y-79844524D02*
X139529238Y-78574524D01*
X139408286Y-78755952D01*
X139287333Y-78876905D01*
X139166381Y-78937381D01*
X141101619Y-79844524D02*
X140375905Y-79844524D01*
X140738762Y-79844524D02*
X140738762Y-78574524D01*
X140617810Y-78755952D01*
X140496857Y-78876905D01*
X140375905Y-78937381D01*
X139289791Y-72362800D02*
X138856458Y-72362800D01*
X138856458Y-73096133D02*
X138856458Y-71696133D01*
X139475505Y-71696133D01*
X140465982Y-73029467D02*
X140342172Y-73096133D01*
X140094553Y-73096133D01*
X139970744Y-73029467D01*
X139908839Y-72896133D01*
X139908839Y-72362800D01*
X139970744Y-72229467D01*
X140094553Y-72162800D01*
X140342172Y-72162800D01*
X140465982Y-72229467D01*
X140527887Y-72362800D01*
X140527887Y-72496133D01*
X139908839Y-72629467D01*
X141085030Y-73096133D02*
X141085030Y-72162800D01*
X141085030Y-72296133D02*
X141146935Y-72229467D01*
X141270744Y-72162800D01*
X141456458Y-72162800D01*
X141580268Y-72229467D01*
X141642173Y-72362800D01*
X141642173Y-73096133D01*
X141642173Y-72362800D02*
X141704077Y-72229467D01*
X141827887Y-72162800D01*
X142013601Y-72162800D01*
X142137411Y-72229467D01*
X142199316Y-72362800D01*
X142199316Y-73096133D01*
X143375506Y-73096133D02*
X143375506Y-72362800D01*
X143313601Y-72229467D01*
X143189791Y-72162800D01*
X142942172Y-72162800D01*
X142818363Y-72229467D01*
X143375506Y-73029467D02*
X143251696Y-73096133D01*
X142942172Y-73096133D01*
X142818363Y-73029467D01*
X142756458Y-72896133D01*
X142756458Y-72762800D01*
X142818363Y-72629467D01*
X142942172Y-72562800D01*
X143251696Y-72562800D01*
X143375506Y-72496133D01*
X144180267Y-73096133D02*
X144056458Y-73029467D01*
X143994553Y-72896133D01*
X143994553Y-71696133D01*
X145170743Y-73029467D02*
X145046933Y-73096133D01*
X144799314Y-73096133D01*
X144675505Y-73029467D01*
X144613600Y-72896133D01*
X144613600Y-72362800D01*
X144675505Y-72229467D01*
X144799314Y-72162800D01*
X145046933Y-72162800D01*
X145170743Y-72229467D01*
X145232648Y-72362800D01*
X145232648Y-72496133D01*
X144613600Y-72629467D01*
X140623857Y-84797524D02*
X139898143Y-84797524D01*
X140261000Y-84797524D02*
X140261000Y-83527524D01*
X140140048Y-83708952D01*
X140019095Y-83829905D01*
X139898143Y-83890381D01*
X155041381Y-83654524D02*
X154436619Y-83654524D01*
X154376143Y-84259286D01*
X154436619Y-84198810D01*
X154557571Y-84138333D01*
X154859952Y-84138333D01*
X154980905Y-84198810D01*
X155041381Y-84259286D01*
X155101857Y-84380238D01*
X155101857Y-84682619D01*
X155041381Y-84803571D01*
X154980905Y-84864048D01*
X154859952Y-84924524D01*
X154557571Y-84924524D01*
X154436619Y-84864048D01*
X154376143Y-84803571D01*
D14*
X157079905Y-114814286D02*
X156698952Y-115080953D01*
X157079905Y-115271429D02*
X156279905Y-115271429D01*
X156279905Y-114966667D01*
X156318000Y-114890476D01*
X156356095Y-114852381D01*
X156432286Y-114814286D01*
X156546571Y-114814286D01*
X156622762Y-114852381D01*
X156660857Y-114890476D01*
X156698952Y-114966667D01*
X156698952Y-115271429D01*
X156356095Y-114509524D02*
X156318000Y-114471429D01*
X156279905Y-114395238D01*
X156279905Y-114204762D01*
X156318000Y-114128572D01*
X156356095Y-114090476D01*
X156432286Y-114052381D01*
X156508476Y-114052381D01*
X156622762Y-114090476D01*
X157079905Y-114547619D01*
X157079905Y-114052381D01*
X156279905Y-113785714D02*
X156279905Y-113290476D01*
X156584667Y-113557143D01*
X156584667Y-113442857D01*
X156622762Y-113366667D01*
X156660857Y-113328571D01*
X156737048Y-113290476D01*
X156927524Y-113290476D01*
X157003714Y-113328571D01*
X157041810Y-113366667D01*
X157079905Y-113442857D01*
X157079905Y-113671429D01*
X157041810Y-113747619D01*
X157003714Y-113785714D01*
X159035714Y-114814333D02*
X159073810Y-114852428D01*
X159111905Y-114966714D01*
X159111905Y-115042904D01*
X159073810Y-115157190D01*
X158997619Y-115233381D01*
X158921429Y-115271476D01*
X158769048Y-115309571D01*
X158654762Y-115309571D01*
X158502381Y-115271476D01*
X158426190Y-115233381D01*
X158350000Y-115157190D01*
X158311905Y-115042904D01*
X158311905Y-114966714D01*
X158350000Y-114852428D01*
X158388095Y-114814333D01*
X159111905Y-114052428D02*
X159111905Y-114509571D01*
X159111905Y-114281000D02*
X158311905Y-114281000D01*
X158426190Y-114357190D01*
X158502381Y-114433381D01*
X158540476Y-114509571D01*
X162540905Y-114814333D02*
X162159952Y-115081000D01*
X162540905Y-115271476D02*
X161740905Y-115271476D01*
X161740905Y-114966714D01*
X161779000Y-114890523D01*
X161817095Y-114852428D01*
X161893286Y-114814333D01*
X162007571Y-114814333D01*
X162083762Y-114852428D01*
X162121857Y-114890523D01*
X162159952Y-114966714D01*
X162159952Y-115271476D01*
X162540905Y-114052428D02*
X162540905Y-114509571D01*
X162540905Y-114281000D02*
X161740905Y-114281000D01*
X161855190Y-114357190D01*
X161931381Y-114433381D01*
X161969476Y-114509571D01*
X161524905Y-114814333D02*
X161143952Y-115081000D01*
X161524905Y-115271476D02*
X160724905Y-115271476D01*
X160724905Y-114966714D01*
X160763000Y-114890523D01*
X160801095Y-114852428D01*
X160877286Y-114814333D01*
X160991571Y-114814333D01*
X161067762Y-114852428D01*
X161105857Y-114890523D01*
X161143952Y-114966714D01*
X161143952Y-115271476D01*
X160801095Y-114509571D02*
X160763000Y-114471476D01*
X160724905Y-114395285D01*
X160724905Y-114204809D01*
X160763000Y-114128619D01*
X160801095Y-114090523D01*
X160877286Y-114052428D01*
X160953476Y-114052428D01*
X161067762Y-114090523D01*
X161524905Y-114547666D01*
X161524905Y-114052428D01*
X154666905Y-114814333D02*
X154285952Y-115081000D01*
X154666905Y-115271476D02*
X153866905Y-115271476D01*
X153866905Y-114966714D01*
X153905000Y-114890523D01*
X153943095Y-114852428D01*
X154019286Y-114814333D01*
X154133571Y-114814333D01*
X154209762Y-114852428D01*
X154247857Y-114890523D01*
X154285952Y-114966714D01*
X154285952Y-115271476D01*
X153866905Y-114547666D02*
X153866905Y-114052428D01*
X154171667Y-114319095D01*
X154171667Y-114204809D01*
X154209762Y-114128619D01*
X154247857Y-114090523D01*
X154324048Y-114052428D01*
X154514524Y-114052428D01*
X154590714Y-114090523D01*
X154628810Y-114128619D01*
X154666905Y-114204809D01*
X154666905Y-114433381D01*
X154628810Y-114509571D01*
X154590714Y-114547666D01*
X155936905Y-114814333D02*
X155555952Y-115081000D01*
X155936905Y-115271476D02*
X155136905Y-115271476D01*
X155136905Y-114966714D01*
X155175000Y-114890523D01*
X155213095Y-114852428D01*
X155289286Y-114814333D01*
X155403571Y-114814333D01*
X155479762Y-114852428D01*
X155517857Y-114890523D01*
X155555952Y-114966714D01*
X155555952Y-115271476D01*
X155403571Y-114128619D02*
X155936905Y-114128619D01*
X155098810Y-114319095D02*
X155670238Y-114509571D01*
X155670238Y-114014333D01*
X160432714Y-114814333D02*
X160470810Y-114852428D01*
X160508905Y-114966714D01*
X160508905Y-115042904D01*
X160470810Y-115157190D01*
X160394619Y-115233381D01*
X160318429Y-115271476D01*
X160166048Y-115309571D01*
X160051762Y-115309571D01*
X159899381Y-115271476D01*
X159823190Y-115233381D01*
X159747000Y-115157190D01*
X159708905Y-115042904D01*
X159708905Y-114966714D01*
X159747000Y-114852428D01*
X159785095Y-114814333D01*
X159785095Y-114509571D02*
X159747000Y-114471476D01*
X159708905Y-114395285D01*
X159708905Y-114204809D01*
X159747000Y-114128619D01*
X159785095Y-114090523D01*
X159861286Y-114052428D01*
X159937476Y-114052428D01*
X160051762Y-114090523D01*
X160508905Y-114547666D01*
X160508905Y-114052428D01*
D22*
X137537000Y-103240666D02*
X137570333Y-103274000D01*
X137603667Y-103374000D01*
X137603667Y-103440666D01*
X137570333Y-103540666D01*
X137503667Y-103607333D01*
X137437000Y-103640666D01*
X137303667Y-103674000D01*
X137203667Y-103674000D01*
X137070333Y-103640666D01*
X137003667Y-103607333D01*
X136937000Y-103540666D01*
X136903667Y-103440666D01*
X136903667Y-103374000D01*
X136937000Y-103274000D01*
X136970333Y-103240666D01*
X136903667Y-103007333D02*
X136903667Y-102574000D01*
X137170333Y-102807333D01*
X137170333Y-102707333D01*
X137203667Y-102640666D01*
X137237000Y-102607333D01*
X137303667Y-102574000D01*
X137470333Y-102574000D01*
X137537000Y-102607333D01*
X137570333Y-102640666D01*
X137603667Y-102707333D01*
X137603667Y-102907333D01*
X137570333Y-102974000D01*
X137537000Y-103007333D01*
X143064667Y-103320000D02*
X142731333Y-103553334D01*
X143064667Y-103720000D02*
X142364667Y-103720000D01*
X142364667Y-103453334D01*
X142398000Y-103386667D01*
X142431333Y-103353334D01*
X142498000Y-103320000D01*
X142598000Y-103320000D01*
X142664667Y-103353334D01*
X142698000Y-103386667D01*
X142731333Y-103453334D01*
X142731333Y-103720000D01*
X143064667Y-102653334D02*
X143064667Y-103053334D01*
X143064667Y-102853334D02*
X142364667Y-102853334D01*
X142464667Y-102920000D01*
X142531333Y-102986667D01*
X142564667Y-103053334D01*
X142364667Y-102220000D02*
X142364667Y-102153333D01*
X142398000Y-102086667D01*
X142431333Y-102053333D01*
X142498000Y-102020000D01*
X142631333Y-101986667D01*
X142798000Y-101986667D01*
X142931333Y-102020000D01*
X142998000Y-102053333D01*
X143031333Y-102086667D01*
X143064667Y-102153333D01*
X143064667Y-102220000D01*
X143031333Y-102286667D01*
X142998000Y-102320000D01*
X142931333Y-102353333D01*
X142798000Y-102386667D01*
X142631333Y-102386667D01*
X142498000Y-102353333D01*
X142431333Y-102320000D01*
X142398000Y-102286667D01*
X142364667Y-102220000D01*
X147062000Y-103367666D02*
X147095333Y-103401000D01*
X147128667Y-103501000D01*
X147128667Y-103567666D01*
X147095333Y-103667666D01*
X147028667Y-103734333D01*
X146962000Y-103767666D01*
X146828667Y-103801000D01*
X146728667Y-103801000D01*
X146595333Y-103767666D01*
X146528667Y-103734333D01*
X146462000Y-103667666D01*
X146428667Y-103567666D01*
X146428667Y-103501000D01*
X146462000Y-103401000D01*
X146495333Y-103367666D01*
X146662000Y-102767666D02*
X147128667Y-102767666D01*
X146395333Y-102934333D02*
X146895333Y-103101000D01*
X146895333Y-102667666D01*
D11*
X163358286Y-118696619D02*
X163358286Y-117680619D01*
X163842096Y-118696619D02*
X163842096Y-118019286D01*
X163842096Y-118212810D02*
X163890477Y-118116048D01*
X163938858Y-118067667D01*
X164035620Y-118019286D01*
X164132381Y-118019286D01*
X164471048Y-118696619D02*
X164471048Y-117680619D01*
X164712953Y-117680619D01*
X164858095Y-117729000D01*
X164954857Y-117825762D01*
X165003238Y-117922524D01*
X165051619Y-118116048D01*
X165051619Y-118261190D01*
X165003238Y-118454714D01*
X164954857Y-118551476D01*
X164858095Y-118648238D01*
X164712953Y-118696619D01*
X164471048Y-118696619D01*
X165438667Y-118406333D02*
X165922476Y-118406333D01*
X165341905Y-118696619D02*
X165680572Y-117680619D01*
X166019238Y-118696619D01*
X166890095Y-118696619D02*
X166309524Y-118696619D01*
X166599810Y-118696619D02*
X166599810Y-117680619D01*
X166503048Y-117825762D01*
X166406286Y-117922524D01*
X166309524Y-117970905D01*
D14*
X154457143Y-120635714D02*
X154757143Y-120635714D01*
X154885714Y-121107143D02*
X154457143Y-121107143D01*
X154457143Y-120207143D01*
X154885714Y-120207143D01*
X159864286Y-121107143D02*
X159864286Y-120207143D01*
X160078571Y-120207143D01*
X160207143Y-120250000D01*
X160292857Y-120335714D01*
X160335714Y-120421429D01*
X160378571Y-120592857D01*
X160378571Y-120721429D01*
X160335714Y-120892857D01*
X160292857Y-120978571D01*
X160207143Y-121064286D01*
X160078571Y-121107143D01*
X159864286Y-121107143D01*
X160764286Y-120635714D02*
X161064286Y-120635714D01*
X161192857Y-121107143D02*
X160764286Y-121107143D01*
X160764286Y-120207143D01*
X161192857Y-120207143D01*
X161450000Y-120207143D02*
X161964286Y-120207143D01*
X161707143Y-121107143D02*
X161707143Y-120207143D01*
X153607143Y-117807143D02*
X153092858Y-117807143D01*
X153350000Y-117807143D02*
X153350000Y-116907143D01*
X153264286Y-117035714D01*
X153178572Y-117121429D01*
X153092858Y-117164286D01*
D22*
X161606667Y-106177999D02*
X160906667Y-106177999D01*
X161606667Y-105444666D02*
X161273333Y-105678000D01*
X161606667Y-105844666D02*
X160906667Y-105844666D01*
X160906667Y-105578000D01*
X160940000Y-105511333D01*
X160973333Y-105478000D01*
X161040000Y-105444666D01*
X161140000Y-105444666D01*
X161206667Y-105478000D01*
X161240000Y-105511333D01*
X161273333Y-105578000D01*
X161273333Y-105844666D01*
X161606667Y-105144666D02*
X160906667Y-105144666D01*
X160906667Y-104978000D01*
X160940000Y-104878000D01*
X161006667Y-104811333D01*
X161073333Y-104778000D01*
X161206667Y-104744666D01*
X161306667Y-104744666D01*
X161440000Y-104778000D01*
X161506667Y-104811333D01*
X161573333Y-104878000D01*
X161606667Y-104978000D01*
X161606667Y-105144666D01*
X161406667Y-104478000D02*
X161406667Y-104144666D01*
X161606667Y-104544666D02*
X160906667Y-104311333D01*
X161606667Y-104078000D01*
X161673333Y-104011333D02*
X161673333Y-103478000D01*
X161606667Y-102978000D02*
X161606667Y-103311333D01*
X160906667Y-103311333D01*
X161573333Y-102778000D02*
X161606667Y-102678000D01*
X161606667Y-102511333D01*
X161573333Y-102444666D01*
X161540000Y-102411333D01*
X161473333Y-102378000D01*
X161406667Y-102378000D01*
X161340000Y-102411333D01*
X161306667Y-102444666D01*
X161273333Y-102511333D01*
X161240000Y-102644666D01*
X161206667Y-102711333D01*
X161173333Y-102744666D01*
X161106667Y-102778000D01*
X161040000Y-102778000D01*
X160973333Y-102744666D01*
X160940000Y-102711333D01*
X160906667Y-102644666D01*
X160906667Y-102478000D01*
X160940000Y-102378000D01*
X161673333Y-102244666D02*
X161673333Y-101711333D01*
X161240000Y-101544666D02*
X161240000Y-101311333D01*
X161606667Y-101211333D02*
X161606667Y-101544666D01*
X160906667Y-101544666D01*
X160906667Y-101211333D01*
X161606667Y-100544667D02*
X161606667Y-100944667D01*
X161606667Y-100744667D02*
X160906667Y-100744667D01*
X161006667Y-100811333D01*
X161073333Y-100878000D01*
X161106667Y-100944667D01*
D23*
X139254667Y-91429666D02*
X138921333Y-91663000D01*
X139254667Y-91829666D02*
X138554667Y-91829666D01*
X138554667Y-91563000D01*
X138588000Y-91496333D01*
X138621333Y-91463000D01*
X138688000Y-91429666D01*
X138788000Y-91429666D01*
X138854667Y-91463000D01*
X138888000Y-91496333D01*
X138921333Y-91563000D01*
X138921333Y-91829666D01*
X138854667Y-91029666D02*
X138821333Y-91096333D01*
X138788000Y-91129666D01*
X138721333Y-91163000D01*
X138688000Y-91163000D01*
X138621333Y-91129666D01*
X138588000Y-91096333D01*
X138554667Y-91029666D01*
X138554667Y-90896333D01*
X138588000Y-90829666D01*
X138621333Y-90796333D01*
X138688000Y-90763000D01*
X138721333Y-90763000D01*
X138788000Y-90796333D01*
X138821333Y-90829666D01*
X138854667Y-90896333D01*
X138854667Y-91029666D01*
X138888000Y-91096333D01*
X138921333Y-91129666D01*
X138988000Y-91163000D01*
X139121333Y-91163000D01*
X139188000Y-91129666D01*
X139221333Y-91096333D01*
X139254667Y-91029666D01*
X139254667Y-90896333D01*
X139221333Y-90829666D01*
X139188000Y-90796333D01*
X139121333Y-90763000D01*
X138988000Y-90763000D01*
X138921333Y-90796333D01*
X138888000Y-90829666D01*
X138854667Y-90896333D01*
X142302667Y-92017000D02*
X141969333Y-92250334D01*
X142302667Y-92417000D02*
X141602667Y-92417000D01*
X141602667Y-92150334D01*
X141636000Y-92083667D01*
X141669333Y-92050334D01*
X141736000Y-92017000D01*
X141836000Y-92017000D01*
X141902667Y-92050334D01*
X141936000Y-92083667D01*
X141969333Y-92150334D01*
X141969333Y-92417000D01*
X142302667Y-91350334D02*
X142302667Y-91750334D01*
X142302667Y-91550334D02*
X141602667Y-91550334D01*
X141702667Y-91617000D01*
X141769333Y-91683667D01*
X141802667Y-91750334D01*
X141669333Y-91083667D02*
X141636000Y-91050333D01*
X141602667Y-90983667D01*
X141602667Y-90817000D01*
X141636000Y-90750333D01*
X141669333Y-90717000D01*
X141736000Y-90683667D01*
X141802667Y-90683667D01*
X141902667Y-90717000D01*
X142302667Y-91117000D01*
X142302667Y-90683667D01*
X145858667Y-92017000D02*
X145525333Y-92250334D01*
X145858667Y-92417000D02*
X145158667Y-92417000D01*
X145158667Y-92150334D01*
X145192000Y-92083667D01*
X145225333Y-92050334D01*
X145292000Y-92017000D01*
X145392000Y-92017000D01*
X145458667Y-92050334D01*
X145492000Y-92083667D01*
X145525333Y-92150334D01*
X145525333Y-92417000D01*
X145858667Y-91350334D02*
X145858667Y-91750334D01*
X145858667Y-91550334D02*
X145158667Y-91550334D01*
X145258667Y-91617000D01*
X145325333Y-91683667D01*
X145358667Y-91750334D01*
X145158667Y-90717000D02*
X145158667Y-91050333D01*
X145492000Y-91083667D01*
X145458667Y-91050333D01*
X145425333Y-90983667D01*
X145425333Y-90817000D01*
X145458667Y-90750333D01*
X145492000Y-90717000D01*
X145558667Y-90683667D01*
X145725333Y-90683667D01*
X145792000Y-90717000D01*
X145825333Y-90750333D01*
X145858667Y-90817000D01*
X145858667Y-90983667D01*
X145825333Y-91050333D01*
X145792000Y-91083667D01*
X147382667Y-92017000D02*
X147049333Y-92250334D01*
X147382667Y-92417000D02*
X146682667Y-92417000D01*
X146682667Y-92150334D01*
X146716000Y-92083667D01*
X146749333Y-92050334D01*
X146816000Y-92017000D01*
X146916000Y-92017000D01*
X146982667Y-92050334D01*
X147016000Y-92083667D01*
X147049333Y-92150334D01*
X147049333Y-92417000D01*
X147382667Y-91350334D02*
X147382667Y-91750334D01*
X147382667Y-91550334D02*
X146682667Y-91550334D01*
X146782667Y-91617000D01*
X146849333Y-91683667D01*
X146882667Y-91750334D01*
X146682667Y-90750333D02*
X146682667Y-90883667D01*
X146716000Y-90950333D01*
X146749333Y-90983667D01*
X146849333Y-91050333D01*
X146982667Y-91083667D01*
X147249333Y-91083667D01*
X147316000Y-91050333D01*
X147349333Y-91017000D01*
X147382667Y-90950333D01*
X147382667Y-90817000D01*
X147349333Y-90750333D01*
X147316000Y-90717000D01*
X147249333Y-90683667D01*
X147082667Y-90683667D01*
X147016000Y-90717000D01*
X146982667Y-90750333D01*
X146949333Y-90817000D01*
X146949333Y-90950333D01*
X146982667Y-91017000D01*
X147016000Y-91050333D01*
X147082667Y-91083667D01*
X150811667Y-91890000D02*
X150478333Y-92123334D01*
X150811667Y-92290000D02*
X150111667Y-92290000D01*
X150111667Y-92023334D01*
X150145000Y-91956667D01*
X150178333Y-91923334D01*
X150245000Y-91890000D01*
X150345000Y-91890000D01*
X150411667Y-91923334D01*
X150445000Y-91956667D01*
X150478333Y-92023334D01*
X150478333Y-92290000D01*
X150811667Y-91223334D02*
X150811667Y-91623334D01*
X150811667Y-91423334D02*
X150111667Y-91423334D01*
X150211667Y-91490000D01*
X150278333Y-91556667D01*
X150311667Y-91623334D01*
X150811667Y-90890000D02*
X150811667Y-90756667D01*
X150778333Y-90690000D01*
X150745000Y-90656667D01*
X150645000Y-90590000D01*
X150511667Y-90556667D01*
X150245000Y-90556667D01*
X150178333Y-90590000D01*
X150145000Y-90623333D01*
X150111667Y-90690000D01*
X150111667Y-90823333D01*
X150145000Y-90890000D01*
X150178333Y-90923333D01*
X150245000Y-90956667D01*
X150411667Y-90956667D01*
X150478333Y-90923333D01*
X150511667Y-90890000D01*
X150545000Y-90823333D01*
X150545000Y-90690000D01*
X150511667Y-90623333D01*
X150478333Y-90590000D01*
X150411667Y-90556667D01*
D22*
X145096667Y-103320000D02*
X144763333Y-103553334D01*
X145096667Y-103720000D02*
X144396667Y-103720000D01*
X144396667Y-103453334D01*
X144430000Y-103386667D01*
X144463333Y-103353334D01*
X144530000Y-103320000D01*
X144630000Y-103320000D01*
X144696667Y-103353334D01*
X144730000Y-103386667D01*
X144763333Y-103453334D01*
X144763333Y-103720000D01*
X144463333Y-103053334D02*
X144430000Y-103020000D01*
X144396667Y-102953334D01*
X144396667Y-102786667D01*
X144430000Y-102720000D01*
X144463333Y-102686667D01*
X144530000Y-102653334D01*
X144596667Y-102653334D01*
X144696667Y-102686667D01*
X145096667Y-103086667D01*
X145096667Y-102653334D01*
X145096667Y-101986667D02*
X145096667Y-102386667D01*
X145096667Y-102186667D02*
X144396667Y-102186667D01*
X144496667Y-102253333D01*
X144563333Y-102320000D01*
X144596667Y-102386667D01*
X139762667Y-103320000D02*
X139429333Y-103553334D01*
X139762667Y-103720000D02*
X139062667Y-103720000D01*
X139062667Y-103453334D01*
X139096000Y-103386667D01*
X139129333Y-103353334D01*
X139196000Y-103320000D01*
X139296000Y-103320000D01*
X139362667Y-103353334D01*
X139396000Y-103386667D01*
X139429333Y-103453334D01*
X139429333Y-103720000D01*
X139129333Y-103053334D02*
X139096000Y-103020000D01*
X139062667Y-102953334D01*
X139062667Y-102786667D01*
X139096000Y-102720000D01*
X139129333Y-102686667D01*
X139196000Y-102653334D01*
X139262667Y-102653334D01*
X139362667Y-102686667D01*
X139762667Y-103086667D01*
X139762667Y-102653334D01*
X139129333Y-102386667D02*
X139096000Y-102353333D01*
X139062667Y-102286667D01*
X139062667Y-102120000D01*
X139096000Y-102053333D01*
X139129333Y-102020000D01*
X139196000Y-101986667D01*
X139262667Y-101986667D01*
X139362667Y-102020000D01*
X139762667Y-102420000D01*
X139762667Y-101986667D01*
D24*
X156554714Y-105537000D02*
X156191857Y-105791000D01*
X156554714Y-105972428D02*
X155792714Y-105972428D01*
X155792714Y-105682143D01*
X155829000Y-105609571D01*
X155865286Y-105573286D01*
X155937857Y-105537000D01*
X156046714Y-105537000D01*
X156119286Y-105573286D01*
X156155571Y-105609571D01*
X156191857Y-105682143D01*
X156191857Y-105972428D01*
X155792714Y-104847571D02*
X155792714Y-105210428D01*
X156155571Y-105246714D01*
X156119286Y-105210428D01*
X156083000Y-105137857D01*
X156083000Y-104956428D01*
X156119286Y-104883857D01*
X156155571Y-104847571D01*
X156228143Y-104811286D01*
X156409571Y-104811286D01*
X156482143Y-104847571D01*
X156518429Y-104883857D01*
X156554714Y-104956428D01*
X156554714Y-105137857D01*
X156518429Y-105210428D01*
X156482143Y-105246714D01*
X152871714Y-108585000D02*
X152508857Y-108839000D01*
X152871714Y-109020428D02*
X152109714Y-109020428D01*
X152109714Y-108730143D01*
X152146000Y-108657571D01*
X152182286Y-108621286D01*
X152254857Y-108585000D01*
X152363714Y-108585000D01*
X152436286Y-108621286D01*
X152472571Y-108657571D01*
X152508857Y-108730143D01*
X152508857Y-109020428D01*
X152109714Y-107931857D02*
X152109714Y-108077000D01*
X152146000Y-108149571D01*
X152182286Y-108185857D01*
X152291143Y-108258428D01*
X152436286Y-108294714D01*
X152726571Y-108294714D01*
X152799143Y-108258428D01*
X152835429Y-108222143D01*
X152871714Y-108149571D01*
X152871714Y-108004428D01*
X152835429Y-107931857D01*
X152799143Y-107895571D01*
X152726571Y-107859286D01*
X152545143Y-107859286D01*
X152472571Y-107895571D01*
X152436286Y-107931857D01*
X152400000Y-108004428D01*
X152400000Y-108149571D01*
X152436286Y-108222143D01*
X152472571Y-108258428D01*
X152545143Y-108294714D01*
X158586714Y-105537000D02*
X158223857Y-105791000D01*
X158586714Y-105972428D02*
X157824714Y-105972428D01*
X157824714Y-105682143D01*
X157861000Y-105609571D01*
X157897286Y-105573286D01*
X157969857Y-105537000D01*
X158078714Y-105537000D01*
X158151286Y-105573286D01*
X158187571Y-105609571D01*
X158223857Y-105682143D01*
X158223857Y-105972428D01*
X157824714Y-105283000D02*
X157824714Y-104775000D01*
X158586714Y-105101571D01*
D23*
X140778667Y-91429666D02*
X140445333Y-91663000D01*
X140778667Y-91829666D02*
X140078667Y-91829666D01*
X140078667Y-91563000D01*
X140112000Y-91496333D01*
X140145333Y-91463000D01*
X140212000Y-91429666D01*
X140312000Y-91429666D01*
X140378667Y-91463000D01*
X140412000Y-91496333D01*
X140445333Y-91563000D01*
X140445333Y-91829666D01*
X140778667Y-91096333D02*
X140778667Y-90963000D01*
X140745333Y-90896333D01*
X140712000Y-90863000D01*
X140612000Y-90796333D01*
X140478667Y-90763000D01*
X140212000Y-90763000D01*
X140145333Y-90796333D01*
X140112000Y-90829666D01*
X140078667Y-90896333D01*
X140078667Y-91029666D01*
X140112000Y-91096333D01*
X140145333Y-91129666D01*
X140212000Y-91163000D01*
X140378667Y-91163000D01*
X140445333Y-91129666D01*
X140478667Y-91096333D01*
X140512000Y-91029666D01*
X140512000Y-90896333D01*
X140478667Y-90829666D01*
X140445333Y-90796333D01*
X140378667Y-90763000D01*
D22*
X141794667Y-103320000D02*
X141461333Y-103553334D01*
X141794667Y-103720000D02*
X141094667Y-103720000D01*
X141094667Y-103453334D01*
X141128000Y-103386667D01*
X141161333Y-103353334D01*
X141228000Y-103320000D01*
X141328000Y-103320000D01*
X141394667Y-103353334D01*
X141428000Y-103386667D01*
X141461333Y-103453334D01*
X141461333Y-103720000D01*
X141794667Y-102653334D02*
X141794667Y-103053334D01*
X141794667Y-102853334D02*
X141094667Y-102853334D01*
X141194667Y-102920000D01*
X141261333Y-102986667D01*
X141294667Y-103053334D01*
X141794667Y-101986667D02*
X141794667Y-102386667D01*
X141794667Y-102186667D02*
X141094667Y-102186667D01*
X141194667Y-102253333D01*
X141261333Y-102320000D01*
X141294667Y-102386667D01*
D23*
X144334667Y-92017000D02*
X144001333Y-92250334D01*
X144334667Y-92417000D02*
X143634667Y-92417000D01*
X143634667Y-92150334D01*
X143668000Y-92083667D01*
X143701333Y-92050334D01*
X143768000Y-92017000D01*
X143868000Y-92017000D01*
X143934667Y-92050334D01*
X143968000Y-92083667D01*
X144001333Y-92150334D01*
X144001333Y-92417000D01*
X144334667Y-91350334D02*
X144334667Y-91750334D01*
X144334667Y-91550334D02*
X143634667Y-91550334D01*
X143734667Y-91617000D01*
X143801333Y-91683667D01*
X143834667Y-91750334D01*
X143634667Y-91117000D02*
X143634667Y-90683667D01*
X143901333Y-90917000D01*
X143901333Y-90817000D01*
X143934667Y-90750333D01*
X143968000Y-90717000D01*
X144034667Y-90683667D01*
X144201333Y-90683667D01*
X144268000Y-90717000D01*
X144301333Y-90750333D01*
X144334667Y-90817000D01*
X144334667Y-91017000D01*
X144301333Y-91083667D01*
X144268000Y-91117000D01*
D22*
X140778667Y-103320000D02*
X140445333Y-103553334D01*
X140778667Y-103720000D02*
X140078667Y-103720000D01*
X140078667Y-103453334D01*
X140112000Y-103386667D01*
X140145333Y-103353334D01*
X140212000Y-103320000D01*
X140312000Y-103320000D01*
X140378667Y-103353334D01*
X140412000Y-103386667D01*
X140445333Y-103453334D01*
X140445333Y-103720000D01*
X140778667Y-102653334D02*
X140778667Y-103053334D01*
X140778667Y-102853334D02*
X140078667Y-102853334D01*
X140178667Y-102920000D01*
X140245333Y-102986667D01*
X140278667Y-103053334D01*
X140312000Y-102053333D02*
X140778667Y-102053333D01*
X140045333Y-102220000D02*
X140545333Y-102386667D01*
X140545333Y-101953333D01*
D23*
X149414667Y-91890000D02*
X149081333Y-92123334D01*
X149414667Y-92290000D02*
X148714667Y-92290000D01*
X148714667Y-92023334D01*
X148748000Y-91956667D01*
X148781333Y-91923334D01*
X148848000Y-91890000D01*
X148948000Y-91890000D01*
X149014667Y-91923334D01*
X149048000Y-91956667D01*
X149081333Y-92023334D01*
X149081333Y-92290000D01*
X149414667Y-91223334D02*
X149414667Y-91623334D01*
X149414667Y-91423334D02*
X148714667Y-91423334D01*
X148814667Y-91490000D01*
X148881333Y-91556667D01*
X148914667Y-91623334D01*
X148714667Y-90990000D02*
X148714667Y-90523333D01*
X149414667Y-90823333D01*
D22*
X144080667Y-103320000D02*
X143747333Y-103553334D01*
X144080667Y-103720000D02*
X143380667Y-103720000D01*
X143380667Y-103453334D01*
X143414000Y-103386667D01*
X143447333Y-103353334D01*
X143514000Y-103320000D01*
X143614000Y-103320000D01*
X143680667Y-103353334D01*
X143714000Y-103386667D01*
X143747333Y-103453334D01*
X143747333Y-103720000D01*
X144080667Y-102653334D02*
X144080667Y-103053334D01*
X144080667Y-102853334D02*
X143380667Y-102853334D01*
X143480667Y-102920000D01*
X143547333Y-102986667D01*
X143580667Y-103053334D01*
X143680667Y-102253333D02*
X143647333Y-102320000D01*
X143614000Y-102353333D01*
X143547333Y-102386667D01*
X143514000Y-102386667D01*
X143447333Y-102353333D01*
X143414000Y-102320000D01*
X143380667Y-102253333D01*
X143380667Y-102120000D01*
X143414000Y-102053333D01*
X143447333Y-102020000D01*
X143514000Y-101986667D01*
X143547333Y-101986667D01*
X143614000Y-102020000D01*
X143647333Y-102053333D01*
X143680667Y-102120000D01*
X143680667Y-102253333D01*
X143714000Y-102320000D01*
X143747333Y-102353333D01*
X143814000Y-102386667D01*
X143947333Y-102386667D01*
X144014000Y-102353333D01*
X144047333Y-102320000D01*
X144080667Y-102253333D01*
X144080667Y-102120000D01*
X144047333Y-102053333D01*
X144014000Y-102020000D01*
X143947333Y-101986667D01*
X143814000Y-101986667D01*
X143747333Y-102020000D01*
X143714000Y-102053333D01*
X143680667Y-102120000D01*
D23*
X152335667Y-91890000D02*
X152002333Y-92123334D01*
X152335667Y-92290000D02*
X151635667Y-92290000D01*
X151635667Y-92023334D01*
X151669000Y-91956667D01*
X151702333Y-91923334D01*
X151769000Y-91890000D01*
X151869000Y-91890000D01*
X151935667Y-91923334D01*
X151969000Y-91956667D01*
X152002333Y-92023334D01*
X152002333Y-92290000D01*
X151702333Y-91623334D02*
X151669000Y-91590000D01*
X151635667Y-91523334D01*
X151635667Y-91356667D01*
X151669000Y-91290000D01*
X151702333Y-91256667D01*
X151769000Y-91223334D01*
X151835667Y-91223334D01*
X151935667Y-91256667D01*
X152335667Y-91656667D01*
X152335667Y-91223334D01*
X151635667Y-90790000D02*
X151635667Y-90723333D01*
X151669000Y-90656667D01*
X151702333Y-90623333D01*
X151769000Y-90590000D01*
X151902333Y-90556667D01*
X152069000Y-90556667D01*
X152202333Y-90590000D01*
X152269000Y-90623333D01*
X152302333Y-90656667D01*
X152335667Y-90723333D01*
X152335667Y-90790000D01*
X152302333Y-90856667D01*
X152269000Y-90890000D01*
X152202333Y-90923333D01*
X152069000Y-90956667D01*
X151902333Y-90956667D01*
X151769000Y-90923333D01*
X151702333Y-90890000D01*
X151669000Y-90856667D01*
X151635667Y-90790000D01*
D20*
D11*
X132334000Y-97469476D02*
X132273524Y-97590428D01*
X132273524Y-97771857D01*
X132334000Y-97953285D01*
X132454952Y-98074238D01*
X132575905Y-98134714D01*
X132817810Y-98195190D01*
X132999238Y-98195190D01*
X133241143Y-98134714D01*
X133362095Y-98074238D01*
X133483048Y-97953285D01*
X133543524Y-97771857D01*
X133543524Y-97650905D01*
X133483048Y-97469476D01*
X133422571Y-97409000D01*
X132999238Y-97409000D01*
X132999238Y-97650905D01*
X133543524Y-96864714D02*
X132273524Y-96864714D01*
X132273524Y-96380905D01*
X132334000Y-96259952D01*
X132394476Y-96199476D01*
X132515429Y-96139000D01*
X132696857Y-96139000D01*
X132817810Y-96199476D01*
X132878286Y-96259952D01*
X132938762Y-96380905D01*
X132938762Y-96864714D01*
X133543524Y-95594714D02*
X132273524Y-95594714D01*
X132273524Y-94748047D02*
X132273524Y-94506143D01*
X132334000Y-94385190D01*
X132454952Y-94264238D01*
X132696857Y-94203762D01*
X133120190Y-94203762D01*
X133362095Y-94264238D01*
X133483048Y-94385190D01*
X133543524Y-94506143D01*
X133543524Y-94748047D01*
X133483048Y-94869000D01*
X133362095Y-94989952D01*
X133120190Y-95050428D01*
X132696857Y-95050428D01*
X132454952Y-94989952D01*
X132334000Y-94869000D01*
X132273524Y-94748047D01*
X133664476Y-93961857D02*
X133664476Y-92994238D01*
X133543524Y-92691857D02*
X132273524Y-92691857D01*
X132696857Y-92087095D02*
X133543524Y-92087095D01*
X132817810Y-92087095D02*
X132757333Y-92026619D01*
X132696857Y-91905666D01*
X132696857Y-91724238D01*
X132757333Y-91603286D01*
X132878286Y-91542809D01*
X133543524Y-91542809D01*
X133543524Y-90272809D02*
X133543524Y-90998523D01*
X133543524Y-90635666D02*
X132273524Y-90635666D01*
X132454952Y-90756618D01*
X132575905Y-90877571D01*
X132636381Y-90998523D01*
X121351524Y-115902619D02*
X121980476Y-115902619D01*
X121641810Y-116289667D01*
X121786952Y-116289667D01*
X121883714Y-116338048D01*
X121932095Y-116386429D01*
X121980476Y-116483190D01*
X121980476Y-116725095D01*
X121932095Y-116821857D01*
X121883714Y-116870238D01*
X121786952Y-116918619D01*
X121496667Y-116918619D01*
X121399905Y-116870238D01*
X121351524Y-116821857D01*
X122851333Y-116241286D02*
X122851333Y-116918619D01*
X122609429Y-115854238D02*
X122367524Y-116579952D01*
X122996476Y-116579952D01*
X161544000Y-97941190D02*
X161483524Y-98062142D01*
X161483524Y-98243571D01*
X161544000Y-98424999D01*
X161664952Y-98545952D01*
X161785905Y-98606428D01*
X162027810Y-98666904D01*
X162209238Y-98666904D01*
X162451143Y-98606428D01*
X162572095Y-98545952D01*
X162693048Y-98424999D01*
X162753524Y-98243571D01*
X162753524Y-98122619D01*
X162693048Y-97941190D01*
X162632571Y-97880714D01*
X162209238Y-97880714D01*
X162209238Y-98122619D01*
X162753524Y-97336428D02*
X161483524Y-97336428D01*
X161483524Y-96852619D01*
X161544000Y-96731666D01*
X161604476Y-96671190D01*
X161725429Y-96610714D01*
X161906857Y-96610714D01*
X162027810Y-96671190D01*
X162088286Y-96731666D01*
X162148762Y-96852619D01*
X162148762Y-97336428D01*
X162753524Y-96066428D02*
X161483524Y-96066428D01*
X161483524Y-95219761D02*
X161483524Y-94977857D01*
X161544000Y-94856904D01*
X161664952Y-94735952D01*
X161906857Y-94675476D01*
X162330190Y-94675476D01*
X162572095Y-94735952D01*
X162693048Y-94856904D01*
X162753524Y-94977857D01*
X162753524Y-95219761D01*
X162693048Y-95340714D01*
X162572095Y-95461666D01*
X162330190Y-95522142D01*
X161906857Y-95522142D01*
X161664952Y-95461666D01*
X161544000Y-95340714D01*
X161483524Y-95219761D01*
X162874476Y-94433571D02*
X162874476Y-93465952D01*
X161483524Y-92921666D02*
X161483524Y-92679762D01*
X161544000Y-92558809D01*
X161664952Y-92437857D01*
X161906857Y-92377381D01*
X162330190Y-92377381D01*
X162572095Y-92437857D01*
X162693048Y-92558809D01*
X162753524Y-92679762D01*
X162753524Y-92921666D01*
X162693048Y-93042619D01*
X162572095Y-93163571D01*
X162330190Y-93224047D01*
X161906857Y-93224047D01*
X161664952Y-93163571D01*
X161544000Y-93042619D01*
X161483524Y-92921666D01*
X161906857Y-91288809D02*
X162753524Y-91288809D01*
X161906857Y-91833095D02*
X162572095Y-91833095D01*
X162693048Y-91772619D01*
X162753524Y-91651666D01*
X162753524Y-91470238D01*
X162693048Y-91349286D01*
X162632571Y-91288809D01*
X161906857Y-90865476D02*
X161906857Y-90381666D01*
X161483524Y-90684047D02*
X162572095Y-90684047D01*
X162693048Y-90623571D01*
X162753524Y-90502618D01*
X162753524Y-90381666D01*
X162753524Y-89293095D02*
X162753524Y-90018809D01*
X162753524Y-89655952D02*
X161483524Y-89655952D01*
X161664952Y-89776904D01*
X161785905Y-89897857D01*
X161846381Y-90018809D01*
X171821324Y-118188619D02*
X172450276Y-118188619D01*
X172111610Y-118575667D01*
X172256752Y-118575667D01*
X172353514Y-118624048D01*
X172401895Y-118672429D01*
X172450276Y-118769190D01*
X172450276Y-119011095D01*
X172401895Y-119107857D01*
X172353514Y-119156238D01*
X172256752Y-119204619D01*
X171966467Y-119204619D01*
X171869705Y-119156238D01*
X171821324Y-119107857D01*
X173321133Y-118527286D02*
X173321133Y-119204619D01*
X173079229Y-118140238D02*
X172837324Y-118865952D01*
X173466276Y-118865952D01*
X149938619Y-119283237D02*
X148922619Y-119283237D01*
X148922619Y-118896190D01*
X148971000Y-118799428D01*
X149019381Y-118751047D01*
X149116143Y-118702666D01*
X149261286Y-118702666D01*
X149358048Y-118751047D01*
X149406429Y-118799428D01*
X149454810Y-118896190D01*
X149454810Y-119283237D01*
X149890238Y-118315618D02*
X149938619Y-118170475D01*
X149938619Y-117928571D01*
X149890238Y-117831809D01*
X149841857Y-117783428D01*
X149745095Y-117735047D01*
X149648333Y-117735047D01*
X149551571Y-117783428D01*
X149503190Y-117831809D01*
X149454810Y-117928571D01*
X149406429Y-118122094D01*
X149358048Y-118218856D01*
X149309667Y-118267237D01*
X149212905Y-118315618D01*
X149116143Y-118315618D01*
X149019381Y-118267237D01*
X148971000Y-118218856D01*
X148922619Y-118122094D01*
X148922619Y-117880190D01*
X148971000Y-117735047D01*
X149019381Y-117347999D02*
X148971000Y-117299618D01*
X148922619Y-117202856D01*
X148922619Y-116960952D01*
X148971000Y-116864190D01*
X149019381Y-116815809D01*
X149116143Y-116767428D01*
X149212905Y-116767428D01*
X149358048Y-116815809D01*
X149938619Y-117396380D01*
X149938619Y-116767428D01*
X150035381Y-116573904D02*
X150035381Y-115799809D01*
X149938619Y-115557904D02*
X148922619Y-115557904D01*
X149938619Y-114977333D02*
X149358048Y-115412761D01*
X148922619Y-114977333D02*
X149503190Y-115557904D01*
X149406429Y-114541904D02*
X149406429Y-114203238D01*
X149938619Y-114058095D02*
X149938619Y-114541904D01*
X148922619Y-114541904D01*
X148922619Y-114058095D01*
X149454810Y-113429142D02*
X149938619Y-113429142D01*
X148922619Y-113767809D02*
X149454810Y-113429142D01*
X148922619Y-113090476D01*
X149406429Y-112413143D02*
X149454810Y-112268000D01*
X149503190Y-112219619D01*
X149599952Y-112171238D01*
X149745095Y-112171238D01*
X149841857Y-112219619D01*
X149890238Y-112268000D01*
X149938619Y-112364762D01*
X149938619Y-112751809D01*
X148922619Y-112751809D01*
X148922619Y-112413143D01*
X148971000Y-112316381D01*
X149019381Y-112268000D01*
X149116143Y-112219619D01*
X149212905Y-112219619D01*
X149309667Y-112268000D01*
X149358048Y-112316381D01*
X149406429Y-112413143D01*
X149406429Y-112751809D01*
X148922619Y-111542285D02*
X148922619Y-111348762D01*
X148971000Y-111252000D01*
X149067762Y-111155238D01*
X149261286Y-111106857D01*
X149599952Y-111106857D01*
X149793476Y-111155238D01*
X149890238Y-111252000D01*
X149938619Y-111348762D01*
X149938619Y-111542285D01*
X149890238Y-111639047D01*
X149793476Y-111735809D01*
X149599952Y-111784190D01*
X149261286Y-111784190D01*
X149067762Y-111735809D01*
X148971000Y-111639047D01*
X148922619Y-111542285D01*
X149648333Y-110719809D02*
X149648333Y-110236000D01*
X149938619Y-110816571D02*
X148922619Y-110477904D01*
X149938619Y-110139238D01*
X149938619Y-109220000D02*
X149454810Y-109558666D01*
X149938619Y-109800571D02*
X148922619Y-109800571D01*
X148922619Y-109413524D01*
X148971000Y-109316762D01*
X149019381Y-109268381D01*
X149116143Y-109220000D01*
X149261286Y-109220000D01*
X149358048Y-109268381D01*
X149406429Y-109316762D01*
X149454810Y-109413524D01*
X149454810Y-109800571D01*
X149938619Y-108784571D02*
X148922619Y-108784571D01*
X148922619Y-108542666D01*
X148971000Y-108397524D01*
X149067762Y-108300762D01*
X149164524Y-108252381D01*
X149358048Y-108204000D01*
X149503190Y-108204000D01*
X149696714Y-108252381D01*
X149793476Y-108300762D01*
X149890238Y-108397524D01*
X149938619Y-108542666D01*
X149938619Y-108784571D01*
X149938619Y-107236381D02*
X149938619Y-107816952D01*
X149938619Y-107526666D02*
X148922619Y-107526666D01*
X149067762Y-107623428D01*
X149164524Y-107720190D01*
X149212905Y-107816952D01*
M02*
